G04 Layer_Physical_Order=2*
G04 Layer_Color=16711680*
%FSLAX25Y25*%
%MOIN*%
G70*
G01*
G75*
%ADD23C,0.03000*%
%ADD24C,0.01400*%
%ADD25C,0.00500*%
%ADD26C,0.00591*%
%ADD27C,0.13386*%
%ADD28C,0.17716*%
%ADD29C,0.05000*%
%ADD30R,0.06299X0.06299*%
%ADD31C,0.06299*%
%ADD32R,0.06299X0.06299*%
%ADD33C,0.03937*%
G36*
X236221Y0D02*
X0D01*
Y137795D01*
X236221D01*
Y0D01*
D02*
G37*
%LPC*%
G36*
X98925Y36235D02*
Y33807D01*
X101354D01*
X101317Y34082D01*
X101018Y34804D01*
X100542Y35424D01*
X99922Y35900D01*
X99200Y36199D01*
X98925Y36235D01*
D02*
G37*
G36*
X226878Y37427D02*
Y33807D01*
X230498D01*
X230421Y34390D01*
X230003Y35400D01*
X229338Y36267D01*
X228471Y36932D01*
X227461Y37350D01*
X226878Y37427D01*
D02*
G37*
G36*
X225878Y37427D02*
X225295Y37350D01*
X224285Y36932D01*
X223418Y36267D01*
X222753Y35400D01*
X222335Y34390D01*
X222258Y33807D01*
X225878D01*
Y37427D01*
D02*
G37*
G36*
X97925Y36235D02*
X97650Y36199D01*
X96928Y35900D01*
X96308Y35424D01*
X95832Y34804D01*
X95533Y34082D01*
X95497Y33807D01*
X97925D01*
Y36235D01*
D02*
G37*
G36*
X14343Y39435D02*
X13759Y39358D01*
X12750Y38940D01*
X11883Y38274D01*
X11218Y37408D01*
X10800Y36398D01*
X10723Y35815D01*
X14343D01*
Y39435D01*
D02*
G37*
G36*
X18792Y49265D02*
X10893D01*
Y41365D01*
X18792D01*
Y49265D01*
D02*
G37*
G36*
X31980Y44815D02*
X29552D01*
X29588Y44540D01*
X29887Y43818D01*
X30363Y43198D01*
X30983Y42722D01*
X31705Y42423D01*
X31980Y42387D01*
Y44815D01*
D02*
G37*
G36*
X15342Y39435D02*
Y35815D01*
X18962D01*
X18885Y36398D01*
X18467Y37408D01*
X17802Y38274D01*
X16935Y38940D01*
X15926Y39358D01*
X15342Y39435D01*
D02*
G37*
G36*
X230328Y47257D02*
X222428D01*
Y39358D01*
X230328D01*
Y47257D01*
D02*
G37*
G36*
X18962Y34815D02*
X15342D01*
Y31195D01*
X15926Y31272D01*
X16935Y31690D01*
X17802Y32355D01*
X18467Y33222D01*
X18885Y34232D01*
X18962Y34815D01*
D02*
G37*
G36*
X197350Y26550D02*
Y24122D01*
X199779D01*
X199742Y24397D01*
X199443Y25119D01*
X198968Y25739D01*
X198347Y26215D01*
X197625Y26514D01*
X197350Y26550D01*
D02*
G37*
G36*
X174213Y48643D02*
X173351Y48530D01*
X172548Y48197D01*
X171859Y47668D01*
X171330Y46979D01*
X170998Y46176D01*
X170884Y45315D01*
X170998Y44453D01*
X171330Y43651D01*
X171859Y42961D01*
X172548Y42432D01*
X173351Y42100D01*
X174213Y41987D01*
X174276Y41995D01*
X174652Y41665D01*
Y34808D01*
X174517Y34753D01*
X173828Y34224D01*
X173299Y33534D01*
X172966Y32732D01*
X172853Y31870D01*
X172966Y31009D01*
X173299Y30206D01*
X173828Y29517D01*
X174517Y28988D01*
X175320Y28655D01*
X176181Y28542D01*
X177043Y28655D01*
X177845Y28988D01*
X178535Y29517D01*
X179064Y30206D01*
X179396Y31009D01*
X179510Y31870D01*
X179396Y32732D01*
X179064Y33534D01*
X178535Y34224D01*
X177845Y34753D01*
X177710Y34808D01*
Y43347D01*
X177594Y43932D01*
X177358Y44285D01*
X177428Y44453D01*
X177541Y45315D01*
X177428Y46176D01*
X177095Y46979D01*
X176566Y47668D01*
X175877Y48197D01*
X175074Y48530D01*
X174213Y48643D01*
D02*
G37*
G36*
X162902Y23822D02*
Y21394D01*
X165330D01*
X165294Y21669D01*
X164995Y22391D01*
X164519Y23011D01*
X163899Y23487D01*
X163177Y23786D01*
X162902Y23822D01*
D02*
G37*
G36*
X196350Y26550D02*
X196075Y26514D01*
X195353Y26215D01*
X194733Y25739D01*
X194257Y25119D01*
X193958Y24397D01*
X193922Y24122D01*
X196350D01*
Y26550D01*
D02*
G37*
G36*
X225878Y32807D02*
X222258D01*
X222335Y32224D01*
X222753Y31214D01*
X223418Y30348D01*
X224285Y29682D01*
X225295Y29264D01*
X225878Y29188D01*
Y32807D01*
D02*
G37*
G36*
X101354D02*
X98925D01*
Y30379D01*
X99200Y30415D01*
X99922Y30714D01*
X100542Y31190D01*
X101018Y31810D01*
X101317Y32532D01*
X101354Y32807D01*
D02*
G37*
G36*
X14343Y34815D02*
X10723D01*
X10800Y34232D01*
X11218Y33222D01*
X11883Y32355D01*
X12750Y31690D01*
X13759Y31272D01*
X14343Y31195D01*
Y34815D01*
D02*
G37*
G36*
X230498Y32807D02*
X226878D01*
Y29188D01*
X227461Y29264D01*
X228471Y29682D01*
X229338Y30348D01*
X230003Y31214D01*
X230421Y32224D01*
X230498Y32807D01*
D02*
G37*
G36*
X97925D02*
X95497D01*
X95533Y32532D01*
X95832Y31810D01*
X96308Y31190D01*
X96928Y30714D01*
X97650Y30415D01*
X97925Y30379D01*
Y32807D01*
D02*
G37*
G36*
X64461Y68398D02*
X62032D01*
X62068Y68123D01*
X62368Y67401D01*
X62844Y66781D01*
X63464Y66305D01*
X64186Y66005D01*
X64461Y65969D01*
Y68398D01*
D02*
G37*
G36*
X67889D02*
X65461D01*
Y65969D01*
X65736Y66005D01*
X66458Y66305D01*
X67078Y66781D01*
X67554Y67401D01*
X67853Y68123D01*
X67889Y68398D01*
D02*
G37*
G36*
X216035Y61983D02*
X215760Y61947D01*
X215038Y61648D01*
X214418Y61172D01*
X213943Y60552D01*
X213643Y59830D01*
X213607Y59555D01*
X216035D01*
Y61983D01*
D02*
G37*
G36*
X217035D02*
Y59555D01*
X219464D01*
X219427Y59830D01*
X219128Y60552D01*
X218653Y61172D01*
X218033Y61648D01*
X217310Y61947D01*
X217035Y61983D01*
D02*
G37*
G36*
X136496Y75179D02*
X135635Y75065D01*
X134832Y74733D01*
X134142Y74204D01*
X133614Y73515D01*
X133281Y72712D01*
X133168Y71850D01*
X133281Y70989D01*
X133614Y70186D01*
X134142Y69497D01*
X134832Y68968D01*
X135635Y68635D01*
X136496Y68522D01*
X137357Y68635D01*
X138160Y68968D01*
X138850Y69497D01*
X139379Y70186D01*
X139711Y70989D01*
X139824Y71850D01*
X139711Y72712D01*
X139379Y73515D01*
X138850Y74204D01*
X138160Y74733D01*
X137357Y75065D01*
X136496Y75179D01*
D02*
G37*
G36*
X65461Y71826D02*
Y69398D01*
X67889D01*
X67853Y69673D01*
X67554Y70395D01*
X67078Y71015D01*
X66458Y71491D01*
X65736Y71790D01*
X65461Y71826D01*
D02*
G37*
G36*
X77831Y72819D02*
X75402D01*
X75439Y72544D01*
X75738Y71822D01*
X76214Y71202D01*
X76834Y70726D01*
X77556Y70427D01*
X77831Y70391D01*
Y72819D01*
D02*
G37*
G36*
X156496Y75179D02*
X155635Y75065D01*
X154832Y74733D01*
X154142Y74204D01*
X153613Y73515D01*
X153281Y72712D01*
X153168Y71850D01*
X153281Y70989D01*
X153613Y70186D01*
X154142Y69497D01*
X154832Y68968D01*
X155635Y68635D01*
X156496Y68522D01*
X157358Y68635D01*
X158160Y68968D01*
X158850Y69497D01*
X159379Y70186D01*
X159711Y70989D01*
X159825Y71850D01*
X159711Y72712D01*
X159379Y73515D01*
X158850Y74204D01*
X158160Y74733D01*
X157358Y75065D01*
X156496Y75179D01*
D02*
G37*
G36*
X64461Y71826D02*
X64186Y71790D01*
X63464Y71491D01*
X62844Y71015D01*
X62368Y70395D01*
X62068Y69673D01*
X62032Y69398D01*
X64461D01*
Y71826D01*
D02*
G37*
G36*
X219464Y58555D02*
X217035D01*
Y56127D01*
X217310Y56163D01*
X218033Y56462D01*
X218653Y56938D01*
X219128Y57558D01*
X219427Y58280D01*
X219464Y58555D01*
D02*
G37*
G36*
X32980Y48243D02*
Y45815D01*
X35409D01*
X35372Y46090D01*
X35073Y46812D01*
X34598Y47432D01*
X33977Y47908D01*
X33255Y48207D01*
X32980Y48243D01*
D02*
G37*
G36*
X80708Y93879D02*
X79847Y93766D01*
X79044Y93433D01*
X78355Y92905D01*
X77826Y92215D01*
X77493Y91412D01*
X77380Y90551D01*
X77493Y89689D01*
X77826Y88887D01*
X78355Y88197D01*
X79044Y87668D01*
X79847Y87336D01*
X80708Y87222D01*
X81570Y87336D01*
X82373Y87668D01*
X82884Y88060D01*
X83294Y87745D01*
X83204Y87528D01*
X83084Y86614D01*
X83204Y85701D01*
X83557Y84849D01*
X84118Y84118D01*
X84849Y83557D01*
X85701Y83204D01*
X86614Y83084D01*
X87528Y83204D01*
X88379Y83557D01*
X89042Y84065D01*
X93828D01*
X100797Y77096D01*
Y57841D01*
X100289Y57178D01*
X99936Y56327D01*
X99816Y55413D01*
X99936Y54500D01*
X100289Y53648D01*
X100850Y52917D01*
X101581Y52356D01*
X102433Y52004D01*
X103261Y51894D01*
X112666Y42489D01*
X113493Y41936D01*
X114469Y41742D01*
X126897D01*
X127135Y41505D01*
X127962Y40952D01*
X128937Y40758D01*
X129338Y40838D01*
X129921Y40761D01*
X130835Y40881D01*
X131686Y41234D01*
X132417Y41795D01*
X132978Y42526D01*
X133331Y43378D01*
X133451Y44291D01*
X133331Y45205D01*
X132978Y46056D01*
X132417Y46787D01*
X131686Y47348D01*
X130835Y47701D01*
X129921Y47821D01*
X129007Y47701D01*
X128156Y47348D01*
X127494Y46840D01*
X115524D01*
X106865Y55499D01*
X106756Y56327D01*
X106404Y57178D01*
X105895Y57841D01*
Y77312D01*
X106357Y77503D01*
X122085Y61776D01*
Y60173D01*
X121493Y59581D01*
X121162Y59085D01*
X121045Y58500D01*
Y58352D01*
X120911Y58296D01*
X120221Y57767D01*
X119692Y57078D01*
X119360Y56275D01*
X119246Y55413D01*
X119360Y54552D01*
X119692Y53749D01*
X120221Y53060D01*
X120911Y52531D01*
X121713Y52198D01*
X122575Y52085D01*
X123436Y52198D01*
X124239Y52531D01*
X124928Y53060D01*
X125457Y53749D01*
X125790Y54552D01*
X125903Y55413D01*
X125790Y56275D01*
X125457Y57078D01*
X124928Y57767D01*
X124706Y57937D01*
X124674Y58436D01*
X124696Y58458D01*
X125027Y58954D01*
X125144Y59539D01*
Y62409D01*
X125027Y62995D01*
X124696Y63491D01*
X96554Y91632D01*
X96058Y91964D01*
X95473Y92080D01*
X89159D01*
X88939Y92227D01*
X88354Y92344D01*
X84874D01*
X84289Y92227D01*
X84109Y92107D01*
X83596Y92203D01*
X83591Y92215D01*
X83062Y92905D01*
X82373Y93433D01*
X81570Y93766D01*
X80708Y93879D01*
D02*
G37*
G36*
X35409Y44815D02*
X32980D01*
Y42387D01*
X33255Y42423D01*
X33977Y42722D01*
X34598Y43198D01*
X35073Y43818D01*
X35372Y44540D01*
X35409Y44815D01*
D02*
G37*
G36*
X31980Y48243D02*
X31705Y48207D01*
X30983Y47908D01*
X30363Y47432D01*
X29887Y46812D01*
X29588Y46090D01*
X29552Y45815D01*
X31980D01*
Y48243D01*
D02*
G37*
G36*
X129075Y54618D02*
X126646D01*
X126683Y54343D01*
X126982Y53621D01*
X127458Y53001D01*
X128078Y52525D01*
X128800Y52226D01*
X129075Y52190D01*
Y54618D01*
D02*
G37*
G36*
X130075Y58046D02*
Y55618D01*
X132503D01*
X132467Y55893D01*
X132168Y56615D01*
X131692Y57235D01*
X131072Y57711D01*
X130350Y58010D01*
X130075Y58046D01*
D02*
G37*
G36*
X216035Y58555D02*
X213607D01*
X213643Y58280D01*
X213943Y57558D01*
X214418Y56938D01*
X215038Y56462D01*
X215760Y56163D01*
X216035Y56127D01*
Y58555D01*
D02*
G37*
G36*
X132503Y54618D02*
X130075D01*
Y52190D01*
X130350Y52226D01*
X131072Y52525D01*
X131692Y53001D01*
X132168Y53621D01*
X132467Y54343D01*
X132503Y54618D01*
D02*
G37*
G36*
X129075Y58046D02*
X128800Y58010D01*
X128078Y57711D01*
X127458Y57235D01*
X126982Y56615D01*
X126683Y55893D01*
X126646Y55618D01*
X129075D01*
Y58046D01*
D02*
G37*
G36*
X161902Y23822D02*
X161627Y23786D01*
X160905Y23487D01*
X160284Y23011D01*
X159809Y22391D01*
X159510Y21669D01*
X159473Y21394D01*
X161902D01*
Y23822D01*
D02*
G37*
G36*
X176665Y13280D02*
X174237D01*
X174273Y13005D01*
X174572Y12282D01*
X175048Y11662D01*
X175668Y11186D01*
X176390Y10887D01*
X176665Y10851D01*
Y13280D01*
D02*
G37*
G36*
X180094D02*
X177665D01*
Y10851D01*
X177940Y10887D01*
X178662Y11186D01*
X179282Y11662D01*
X179758Y12282D01*
X180057Y13005D01*
X180094Y13280D01*
D02*
G37*
G36*
X87878D02*
X85450D01*
X85486Y13005D01*
X85785Y12282D01*
X86261Y11662D01*
X86881Y11186D01*
X87603Y10887D01*
X87878Y10851D01*
Y13280D01*
D02*
G37*
G36*
X91306D02*
X88878D01*
Y10851D01*
X89153Y10887D01*
X89875Y11186D01*
X90495Y11662D01*
X90971Y12282D01*
X91270Y13005D01*
X91306Y13280D01*
D02*
G37*
G36*
X77878Y14264D02*
X75450D01*
X75486Y13989D01*
X75785Y13267D01*
X76261Y12647D01*
X76881Y12171D01*
X77603Y11872D01*
X77878Y11835D01*
Y14264D01*
D02*
G37*
G36*
X88878Y16708D02*
Y14279D01*
X91306D01*
X91270Y14555D01*
X90971Y15277D01*
X90495Y15897D01*
X89875Y16373D01*
X89153Y16672D01*
X88878Y16708D01*
D02*
G37*
G36*
X176665D02*
X176390Y16672D01*
X175668Y16373D01*
X175048Y15897D01*
X174572Y15277D01*
X174273Y14555D01*
X174237Y14279D01*
X176665D01*
Y16708D01*
D02*
G37*
G36*
X81306Y14264D02*
X78878D01*
Y11835D01*
X79153Y11872D01*
X79875Y12171D01*
X80495Y12647D01*
X80971Y13267D01*
X81270Y13989D01*
X81306Y14264D01*
D02*
G37*
G36*
X87878Y16708D02*
X87603Y16672D01*
X86881Y16373D01*
X86261Y15897D01*
X85785Y15277D01*
X85486Y14555D01*
X85450Y14279D01*
X87878D01*
Y16708D01*
D02*
G37*
G36*
X143059Y12771D02*
Y10343D01*
X145487D01*
X145451Y10617D01*
X145152Y11340D01*
X144676Y11960D01*
X144056Y12436D01*
X143334Y12735D01*
X143059Y12771D01*
D02*
G37*
G36*
X36902Y9342D02*
X34473D01*
X34510Y9068D01*
X34809Y8345D01*
X35284Y7725D01*
X35904Y7249D01*
X36627Y6950D01*
X36902Y6914D01*
Y9342D01*
D02*
G37*
G36*
X40330D02*
X37902D01*
Y6914D01*
X38177Y6950D01*
X38899Y7249D01*
X39519Y7725D01*
X39994Y8345D01*
X40294Y9068D01*
X40330Y9342D01*
D02*
G37*
G36*
X9843Y17372D02*
X8374Y17227D01*
X6961Y16799D01*
X5660Y16103D01*
X4519Y15166D01*
X3582Y14026D01*
X2887Y12724D01*
X2458Y11311D01*
X2313Y9843D01*
X2458Y8374D01*
X2887Y6961D01*
X3582Y5660D01*
X4519Y4519D01*
X5660Y3582D01*
X6961Y2887D01*
X8374Y2458D01*
X9843Y2313D01*
X11311Y2458D01*
X12724Y2887D01*
X14026Y3582D01*
X15166Y4519D01*
X16103Y5660D01*
X16799Y6961D01*
X17227Y8374D01*
X17372Y9843D01*
X17227Y11311D01*
X16799Y12724D01*
X16103Y14026D01*
X15166Y15166D01*
X14026Y16103D01*
X12724Y16799D01*
X11311Y17227D01*
X9843Y17372D01*
D02*
G37*
G36*
X226378D02*
X224909Y17227D01*
X223497Y16799D01*
X222195Y16103D01*
X221054Y15166D01*
X220118Y14026D01*
X219422Y12724D01*
X218993Y11311D01*
X218849Y9843D01*
X218993Y8374D01*
X219422Y6961D01*
X220118Y5660D01*
X221054Y4519D01*
X222195Y3582D01*
X223497Y2887D01*
X224909Y2458D01*
X226378Y2313D01*
X227847Y2458D01*
X229259Y2887D01*
X230561Y3582D01*
X231702Y4519D01*
X232638Y5660D01*
X233334Y6961D01*
X233762Y8374D01*
X233907Y9843D01*
X233762Y11311D01*
X233334Y12724D01*
X232638Y14026D01*
X231702Y15166D01*
X230561Y16103D01*
X229259Y16799D01*
X227847Y17227D01*
X226378Y17372D01*
D02*
G37*
G36*
X142059Y9342D02*
X139631D01*
X139667Y9068D01*
X139966Y8345D01*
X140442Y7725D01*
X141062Y7249D01*
X141784Y6950D01*
X142059Y6914D01*
Y9342D01*
D02*
G37*
G36*
X37902Y12771D02*
Y10343D01*
X40330D01*
X40294Y10617D01*
X39994Y11340D01*
X39519Y11960D01*
X38899Y12436D01*
X38177Y12735D01*
X37902Y12771D01*
D02*
G37*
G36*
X142059D02*
X141784Y12735D01*
X141062Y12436D01*
X140442Y11960D01*
X139966Y11340D01*
X139667Y10617D01*
X139631Y10343D01*
X142059D01*
Y12771D01*
D02*
G37*
G36*
X145487Y9342D02*
X143059D01*
Y6914D01*
X143334Y6950D01*
X144056Y7249D01*
X144676Y7725D01*
X145152Y8345D01*
X145451Y9068D01*
X145487Y9342D01*
D02*
G37*
G36*
X36902Y12771D02*
X36627Y12735D01*
X35904Y12436D01*
X35284Y11960D01*
X34809Y11340D01*
X34510Y10617D01*
X34473Y10343D01*
X36902D01*
Y12771D01*
D02*
G37*
G36*
X69878Y20645D02*
Y18216D01*
X72306D01*
X72270Y18492D01*
X71971Y19214D01*
X71495Y19834D01*
X70875Y20310D01*
X70153Y20609D01*
X69878Y20645D01*
D02*
G37*
G36*
X107768Y22613D02*
X107493Y22577D01*
X106771Y22278D01*
X106151Y21802D01*
X105675Y21182D01*
X105376Y20460D01*
X105339Y20185D01*
X107768D01*
Y22613D01*
D02*
G37*
G36*
X165330Y20394D02*
X162902D01*
Y17965D01*
X163177Y18002D01*
X163899Y18301D01*
X164519Y18777D01*
X164995Y19397D01*
X165294Y20119D01*
X165330Y20394D01*
D02*
G37*
G36*
X68878Y20645D02*
X68603Y20609D01*
X67881Y20310D01*
X67261Y19834D01*
X66785Y19214D01*
X66486Y18492D01*
X66450Y18216D01*
X68878D01*
Y20645D01*
D02*
G37*
G36*
X108768Y22613D02*
Y20185D01*
X111196D01*
X111160Y20460D01*
X110861Y21182D01*
X110385Y21802D01*
X109765Y22278D01*
X109043Y22577D01*
X108768Y22613D01*
D02*
G37*
G36*
X204224Y23598D02*
X203949Y23561D01*
X203227Y23262D01*
X202607Y22786D01*
X202131Y22166D01*
X201832Y21444D01*
X201796Y21169D01*
X204224D01*
Y23598D01*
D02*
G37*
G36*
X205224D02*
Y21169D01*
X207653D01*
X207616Y21444D01*
X207317Y22166D01*
X206842Y22786D01*
X206222Y23262D01*
X205499Y23561D01*
X205224Y23598D01*
D02*
G37*
G36*
X196350Y23122D02*
X193922D01*
X193958Y22847D01*
X194257Y22125D01*
X194733Y21505D01*
X195353Y21029D01*
X196075Y20730D01*
X196350Y20694D01*
Y23122D01*
D02*
G37*
G36*
X199779D02*
X197350D01*
Y20694D01*
X197625Y20730D01*
X198347Y21029D01*
X198968Y21505D01*
X199443Y22125D01*
X199742Y22847D01*
X199779Y23122D01*
D02*
G37*
G36*
X161902Y20394D02*
X159473D01*
X159510Y20119D01*
X159809Y19397D01*
X160284Y18777D01*
X160905Y18301D01*
X161627Y18002D01*
X161902Y17965D01*
Y20394D01*
D02*
G37*
G36*
X72306Y17217D02*
X69878D01*
Y14788D01*
X70153Y14824D01*
X70875Y15124D01*
X71495Y15599D01*
X71971Y16219D01*
X72270Y16942D01*
X72306Y17217D01*
D02*
G37*
G36*
X77878Y17692D02*
X77603Y17656D01*
X76881Y17357D01*
X76261Y16881D01*
X75785Y16261D01*
X75486Y15539D01*
X75450Y15264D01*
X77878D01*
Y17692D01*
D02*
G37*
G36*
X177665Y16708D02*
Y14279D01*
X180094D01*
X180057Y14555D01*
X179758Y15277D01*
X179282Y15897D01*
X178662Y16373D01*
X177940Y16672D01*
X177665Y16708D01*
D02*
G37*
G36*
X68878Y17217D02*
X66450D01*
X66486Y16942D01*
X66785Y16219D01*
X67261Y15599D01*
X67881Y15124D01*
X68603Y14824D01*
X68878Y14788D01*
Y17217D01*
D02*
G37*
G36*
X78878Y17692D02*
Y15264D01*
X81306D01*
X81270Y15539D01*
X80971Y16261D01*
X80495Y16881D01*
X79875Y17357D01*
X79153Y17656D01*
X78878Y17692D01*
D02*
G37*
G36*
X204224Y20169D02*
X201796D01*
X201832Y19894D01*
X202131Y19172D01*
X202607Y18552D01*
X203227Y18076D01*
X203949Y17777D01*
X204224Y17741D01*
Y20169D01*
D02*
G37*
G36*
X207653D02*
X205224D01*
Y17741D01*
X205499Y17777D01*
X206222Y18076D01*
X206842Y18552D01*
X207317Y19172D01*
X207616Y19894D01*
X207653Y20169D01*
D02*
G37*
G36*
X107768Y19185D02*
X105339D01*
X105376Y18910D01*
X105675Y18188D01*
X106151Y17568D01*
X106771Y17092D01*
X107493Y16793D01*
X107768Y16757D01*
Y19185D01*
D02*
G37*
G36*
X111196D02*
X108768D01*
Y16757D01*
X109043Y16793D01*
X109765Y17092D01*
X110385Y17568D01*
X110861Y18188D01*
X111160Y18910D01*
X111196Y19185D01*
D02*
G37*
G36*
X224909Y119070D02*
Y116642D01*
X227338D01*
X227302Y116917D01*
X227002Y117639D01*
X226527Y118259D01*
X225906Y118735D01*
X225184Y119034D01*
X224909Y119070D01*
D02*
G37*
G36*
X18201Y120054D02*
X17926Y120018D01*
X17204Y119719D01*
X16584Y119243D01*
X16108Y118623D01*
X15809Y117901D01*
X15773Y117626D01*
X18201D01*
Y120054D01*
D02*
G37*
G36*
X21629Y116626D02*
X19201D01*
Y114198D01*
X19476Y114234D01*
X20198Y114533D01*
X20818Y115009D01*
X21294Y115629D01*
X21593Y116351D01*
X21629Y116626D01*
D02*
G37*
G36*
X223909Y119070D02*
X223635Y119034D01*
X222912Y118735D01*
X222292Y118259D01*
X221816Y117639D01*
X221517Y116917D01*
X221481Y116642D01*
X223909D01*
Y119070D01*
D02*
G37*
G36*
X19201Y120054D02*
Y117626D01*
X21629D01*
X21593Y117901D01*
X21294Y118623D01*
X20818Y119243D01*
X20198Y119719D01*
X19476Y120018D01*
X19201Y120054D01*
D02*
G37*
G36*
X145669Y130297D02*
X144808Y130184D01*
X144005Y129851D01*
X143316Y129322D01*
X142787Y128633D01*
X142454Y127830D01*
X142341Y126969D01*
X142454Y126107D01*
X142510Y125972D01*
X119419Y102881D01*
X119087Y102384D01*
X118971Y101799D01*
Y100131D01*
X118526Y99790D01*
X118082Y99211D01*
X117803Y98538D01*
X117708Y97815D01*
X117803Y97092D01*
X118082Y96419D01*
X118526Y95840D01*
X119104Y95397D01*
X119777Y95118D01*
X120500Y95023D01*
X121223Y95118D01*
X121896Y95397D01*
X122475Y95840D01*
X122918Y96419D01*
X123197Y97092D01*
X123292Y97815D01*
X123197Y98538D01*
X122918Y99211D01*
X122475Y99790D01*
X122029Y100131D01*
Y101166D01*
X144673Y123809D01*
X144808Y123753D01*
X145669Y123640D01*
X146531Y123753D01*
X147334Y124086D01*
X148023Y124615D01*
X148552Y125304D01*
X148884Y126107D01*
X148998Y126969D01*
X148884Y127830D01*
X148552Y128633D01*
X148023Y129322D01*
X147334Y129851D01*
X146531Y130184D01*
X145669Y130297D01*
D02*
G37*
G36*
X201000Y130315D02*
X197380D01*
X197457Y129732D01*
X197875Y128722D01*
X198540Y127855D01*
X199407Y127190D01*
X200417Y126772D01*
X201000Y126695D01*
Y130315D01*
D02*
G37*
G36*
X9843Y135482D02*
X8374Y135337D01*
X6961Y134909D01*
X5660Y134213D01*
X4519Y133277D01*
X3582Y132136D01*
X2887Y130834D01*
X2458Y129422D01*
X2313Y127953D01*
X2458Y126484D01*
X2887Y125072D01*
X3582Y123770D01*
X4519Y122629D01*
X5660Y121693D01*
X6961Y120997D01*
X8374Y120568D01*
X9843Y120424D01*
X11311Y120568D01*
X12724Y120997D01*
X14026Y121693D01*
X15166Y122629D01*
X16103Y123770D01*
X16799Y125072D01*
X17227Y126484D01*
X17372Y127953D01*
X17227Y129422D01*
X16799Y130834D01*
X16103Y132136D01*
X15166Y133277D01*
X14026Y134213D01*
X12724Y134909D01*
X11311Y135337D01*
X9843Y135482D01*
D02*
G37*
G36*
X226378D02*
X224909Y135337D01*
X223497Y134909D01*
X222195Y134213D01*
X221054Y133277D01*
X220118Y132136D01*
X219422Y130834D01*
X218993Y129422D01*
X218849Y127953D01*
X218993Y126484D01*
X219422Y125072D01*
X220118Y123770D01*
X221054Y122629D01*
X222195Y121693D01*
X223497Y120997D01*
X224909Y120568D01*
X226378Y120424D01*
X227847Y120568D01*
X229259Y120997D01*
X230561Y121693D01*
X231702Y122629D01*
X232638Y123770D01*
X233334Y125072D01*
X233762Y126484D01*
X233907Y127953D01*
X233762Y129422D01*
X233334Y130834D01*
X232638Y132136D01*
X231702Y133277D01*
X230561Y134213D01*
X229259Y134909D01*
X227847Y135337D01*
X226378Y135482D01*
D02*
G37*
G36*
X18201Y116626D02*
X15773D01*
X15809Y116351D01*
X16108Y115629D01*
X16584Y115009D01*
X17204Y114533D01*
X17926Y114234D01*
X18201Y114198D01*
Y116626D01*
D02*
G37*
G36*
X91850Y134889D02*
X90819Y134753D01*
X89859Y134355D01*
X89034Y133722D01*
X88400Y132897D01*
X88002Y131937D01*
X87867Y130905D01*
X88002Y129875D01*
X88400Y128914D01*
X89034Y128089D01*
X89859Y127455D01*
X90321Y127264D01*
Y113858D01*
X90437Y113273D01*
X90769Y112777D01*
X91329Y112217D01*
X91273Y112082D01*
X91160Y111221D01*
X91273Y110359D01*
X91606Y109556D01*
X92135Y108867D01*
X92824Y108338D01*
X93627Y108005D01*
X94488Y107892D01*
X95350Y108005D01*
X96152Y108338D01*
X96842Y108867D01*
X97371Y109556D01*
X97703Y110359D01*
X97817Y111221D01*
X97703Y112082D01*
X97371Y112885D01*
X96842Y113574D01*
X96152Y114103D01*
X95350Y114436D01*
X94488Y114549D01*
X93870Y114468D01*
X93426Y114793D01*
X93380Y114874D01*
Y127264D01*
X93842Y127455D01*
X94667Y128089D01*
X95300Y128914D01*
X95698Y129875D01*
X95834Y130905D01*
X95698Y131937D01*
X95300Y132897D01*
X94667Y133722D01*
X93842Y134355D01*
X92881Y134753D01*
X91850Y134889D01*
D02*
G37*
G36*
X168500Y110721D02*
X166072D01*
X166108Y110445D01*
X166407Y109723D01*
X166883Y109103D01*
X167503Y108627D01*
X168225Y108328D01*
X168500Y108292D01*
Y110721D01*
D02*
G37*
G36*
X222925Y109228D02*
X222650Y109191D01*
X221928Y108892D01*
X221308Y108416D01*
X220832Y107796D01*
X220533Y107074D01*
X220497Y106799D01*
X222925D01*
Y109228D01*
D02*
G37*
G36*
X223925D02*
Y106799D01*
X226354D01*
X226317Y107074D01*
X226018Y107796D01*
X225542Y108416D01*
X224922Y108892D01*
X224200Y109191D01*
X223925Y109228D01*
D02*
G37*
G36*
X171928Y110721D02*
X169500D01*
Y108292D01*
X169775Y108328D01*
X170497Y108627D01*
X171117Y109103D01*
X171593Y109723D01*
X171892Y110445D01*
X171928Y110721D01*
D02*
G37*
G36*
X223909Y115642D02*
X221481D01*
X221517Y115367D01*
X221816Y114645D01*
X222292Y114025D01*
X222912Y113549D01*
X223635Y113250D01*
X223909Y113213D01*
Y115642D01*
D02*
G37*
G36*
X227338D02*
X224909D01*
Y113213D01*
X225184Y113250D01*
X225906Y113549D01*
X226527Y114025D01*
X227002Y114645D01*
X227302Y115367D01*
X227338Y115642D01*
D02*
G37*
G36*
X168500Y114149D02*
X168225Y114113D01*
X167503Y113813D01*
X166883Y113338D01*
X166407Y112717D01*
X166108Y111995D01*
X166072Y111721D01*
X168500D01*
Y114149D01*
D02*
G37*
G36*
X169500D02*
Y111721D01*
X171928D01*
X171892Y111995D01*
X171593Y112717D01*
X171117Y113338D01*
X170497Y113813D01*
X169775Y114113D01*
X169500Y114149D01*
D02*
G37*
G36*
X205620Y130315D02*
X202000D01*
Y126695D01*
X202583Y126772D01*
X203593Y127190D01*
X204460Y127855D01*
X205125Y128722D01*
X205543Y129732D01*
X205620Y130315D01*
D02*
G37*
G36*
X202000Y134934D02*
Y131315D01*
X205620D01*
X205543Y131898D01*
X205125Y132908D01*
X204460Y133774D01*
X203593Y134440D01*
X202583Y134858D01*
X202000Y134934D01*
D02*
G37*
G36*
X81350Y135025D02*
X80767Y134948D01*
X79758Y134530D01*
X78891Y133865D01*
X78226Y132998D01*
X77808Y131989D01*
X77731Y131405D01*
X81350D01*
Y135025D01*
D02*
G37*
G36*
X22613Y133358D02*
X20185D01*
Y130930D01*
X20460Y130966D01*
X21182Y131265D01*
X21802Y131741D01*
X22278Y132361D01*
X22577Y133083D01*
X22613Y133358D01*
D02*
G37*
G36*
X201000Y134934D02*
X200417Y134858D01*
X199407Y134440D01*
X198540Y133774D01*
X197875Y132908D01*
X197457Y131898D01*
X197380Y131315D01*
X201000D01*
Y134934D01*
D02*
G37*
G36*
X82350Y135025D02*
Y131405D01*
X85970D01*
X85893Y131989D01*
X85475Y132998D01*
X84810Y133865D01*
X83943Y134530D01*
X82934Y134948D01*
X82350Y135025D01*
D02*
G37*
G36*
X19185Y136787D02*
X18910Y136750D01*
X18188Y136451D01*
X17568Y135975D01*
X17092Y135355D01*
X16793Y134633D01*
X16757Y134358D01*
X19185D01*
Y136787D01*
D02*
G37*
G36*
X20185D02*
Y134358D01*
X22613D01*
X22577Y134633D01*
X22278Y135355D01*
X21802Y135975D01*
X21182Y136451D01*
X20460Y136750D01*
X20185Y136787D01*
D02*
G37*
G36*
X165839Y134818D02*
X165564Y134782D01*
X164841Y134483D01*
X164221Y134007D01*
X163746Y133387D01*
X163446Y132665D01*
X163410Y132390D01*
X165839D01*
Y134818D01*
D02*
G37*
G36*
X166839D02*
Y132390D01*
X169267D01*
X169231Y132665D01*
X168932Y133387D01*
X168456Y134007D01*
X167836Y134483D01*
X167113Y134782D01*
X166839Y134818D01*
D02*
G37*
G36*
X19185Y133358D02*
X16757D01*
X16793Y133083D01*
X17092Y132361D01*
X17568Y131741D01*
X18188Y131265D01*
X18910Y130966D01*
X19185Y130930D01*
Y133358D01*
D02*
G37*
G36*
X195450Y134765D02*
X187550D01*
Y126865D01*
X195450D01*
Y134765D01*
D02*
G37*
G36*
X131390Y129421D02*
X128962D01*
X128998Y129146D01*
X129297Y128424D01*
X129773Y127804D01*
X130393Y127328D01*
X131115Y127029D01*
X131390Y126993D01*
Y129421D01*
D02*
G37*
G36*
X81350Y130405D02*
X77731D01*
X77808Y129822D01*
X78226Y128813D01*
X78891Y127946D01*
X79758Y127281D01*
X80767Y126863D01*
X81350Y126786D01*
Y130405D01*
D02*
G37*
G36*
X85970D02*
X82350D01*
Y126786D01*
X82934Y126863D01*
X83943Y127281D01*
X84810Y127946D01*
X85475Y128813D01*
X85893Y129822D01*
X85970Y130405D01*
D02*
G37*
G36*
X134818Y129421D02*
X132390D01*
Y126993D01*
X132665Y127029D01*
X133387Y127328D01*
X134007Y127804D01*
X134483Y128424D01*
X134782Y129146D01*
X134818Y129421D01*
D02*
G37*
G36*
X131390Y132850D02*
X131115Y132813D01*
X130393Y132514D01*
X129773Y132038D01*
X129297Y131418D01*
X128998Y130696D01*
X128962Y130421D01*
X131390D01*
Y132850D01*
D02*
G37*
G36*
X132390D02*
Y130421D01*
X134818D01*
X134782Y130696D01*
X134483Y131418D01*
X134007Y132038D01*
X133387Y132514D01*
X132665Y132813D01*
X132390Y132850D01*
D02*
G37*
G36*
X165839Y131390D02*
X163410D01*
X163446Y131115D01*
X163746Y130393D01*
X164221Y129773D01*
X164841Y129297D01*
X165564Y128998D01*
X165839Y128962D01*
Y131390D01*
D02*
G37*
G36*
X169267D02*
X166839D01*
Y128962D01*
X167113Y128998D01*
X167836Y129297D01*
X168456Y129773D01*
X168932Y130393D01*
X169231Y131115D01*
X169267Y131390D01*
D02*
G37*
G36*
X146496Y85179D02*
X145635Y85065D01*
X144832Y84733D01*
X144142Y84204D01*
X143614Y83515D01*
X143281Y82712D01*
X143168Y81850D01*
X143281Y80989D01*
X143614Y80186D01*
X144142Y79497D01*
X144832Y78968D01*
X145635Y78635D01*
X146496Y78522D01*
X147357Y78635D01*
X148160Y78968D01*
X148850Y79497D01*
X149379Y80186D01*
X149711Y80989D01*
X149825Y81850D01*
X149711Y82712D01*
X149379Y83515D01*
X148850Y84204D01*
X148160Y84733D01*
X147357Y85065D01*
X146496Y85179D01*
D02*
G37*
G36*
X186024Y87974D02*
X185162Y87861D01*
X184359Y87528D01*
X183670Y86999D01*
X183141Y86310D01*
X182809Y85507D01*
X182695Y84646D01*
X182809Y83784D01*
X183141Y82981D01*
X183670Y82292D01*
X184359Y81763D01*
X185162Y81431D01*
X186024Y81317D01*
X186885Y81431D01*
X187688Y81763D01*
X188377Y82292D01*
X188906Y82981D01*
X189239Y83784D01*
X189352Y84646D01*
X189239Y85507D01*
X188906Y86310D01*
X188377Y86999D01*
X187688Y87528D01*
X186885Y87861D01*
X186024Y87974D01*
D02*
G37*
G36*
X36902Y80684D02*
X36627Y80648D01*
X35904Y80349D01*
X35284Y79873D01*
X34809Y79253D01*
X34510Y78531D01*
X34473Y78256D01*
X36902D01*
Y80684D01*
D02*
G37*
G36*
X37902D02*
Y78256D01*
X40330D01*
X40294Y78531D01*
X39994Y79253D01*
X39519Y79873D01*
X38899Y80349D01*
X38177Y80648D01*
X37902Y80684D01*
D02*
G37*
G36*
X206024Y87974D02*
X205162Y87861D01*
X204359Y87528D01*
X203670Y86999D01*
X203141Y86310D01*
X202809Y85507D01*
X202695Y84646D01*
X202809Y83784D01*
X203141Y82981D01*
X203670Y82292D01*
X204359Y81763D01*
X205162Y81431D01*
X206024Y81317D01*
X206885Y81431D01*
X207688Y81763D01*
X208377Y82292D01*
X208906Y82981D01*
X209239Y83784D01*
X209352Y84646D01*
X209239Y85507D01*
X208906Y86310D01*
X208377Y86999D01*
X207688Y87528D01*
X206885Y87861D01*
X206024Y87974D01*
D02*
G37*
G36*
X15248Y89749D02*
X14665Y89673D01*
X13655Y89255D01*
X12788Y88589D01*
X12123Y87723D01*
X11705Y86713D01*
X11628Y86130D01*
X15248D01*
Y89749D01*
D02*
G37*
G36*
X16248Y89749D02*
Y86130D01*
X19868D01*
X19791Y86713D01*
X19373Y87723D01*
X18708Y88589D01*
X17841Y89255D01*
X16831Y89673D01*
X16248Y89749D01*
D02*
G37*
G36*
X15248Y85130D02*
X11628D01*
X11705Y84547D01*
X12123Y83537D01*
X12788Y82670D01*
X13655Y82005D01*
X14665Y81587D01*
X15248Y81510D01*
Y85130D01*
D02*
G37*
G36*
X19868D02*
X16248D01*
Y81510D01*
X16831Y81587D01*
X17841Y82005D01*
X18708Y82670D01*
X19373Y83537D01*
X19791Y84547D01*
X19868Y85130D01*
D02*
G37*
G36*
X54150Y80275D02*
Y77846D01*
X56578D01*
X56542Y78121D01*
X56243Y78843D01*
X55767Y79464D01*
X55147Y79939D01*
X54425Y80239D01*
X54150Y80275D01*
D02*
G37*
G36*
X77831Y76247D02*
X77556Y76211D01*
X76834Y75912D01*
X76214Y75436D01*
X75738Y74816D01*
X75439Y74094D01*
X75402Y73819D01*
X77831D01*
Y76247D01*
D02*
G37*
G36*
X78831D02*
Y73819D01*
X81259D01*
X81223Y74094D01*
X80924Y74816D01*
X80448Y75436D01*
X79828Y75912D01*
X79106Y76211D01*
X78831Y76247D01*
D02*
G37*
G36*
X81259Y72819D02*
X78831D01*
Y70391D01*
X79106Y70427D01*
X79828Y70726D01*
X80448Y71202D01*
X80924Y71822D01*
X81223Y72544D01*
X81259Y72819D01*
D02*
G37*
G36*
X196024Y77974D02*
X195162Y77861D01*
X194359Y77528D01*
X193670Y76999D01*
X193141Y76310D01*
X192809Y75507D01*
X192695Y74646D01*
X192809Y73784D01*
X193141Y72981D01*
X193670Y72292D01*
X194359Y71763D01*
X195162Y71431D01*
X196024Y71317D01*
X196885Y71431D01*
X197688Y71763D01*
X198377Y72292D01*
X198906Y72981D01*
X199239Y73784D01*
X199352Y74646D01*
X199239Y75507D01*
X198906Y76310D01*
X198377Y76999D01*
X197688Y77528D01*
X196885Y77861D01*
X196024Y77974D01*
D02*
G37*
G36*
X53150Y76846D02*
X50721D01*
X50757Y76572D01*
X51057Y75849D01*
X51532Y75229D01*
X52153Y74753D01*
X52875Y74454D01*
X53150Y74418D01*
Y76846D01*
D02*
G37*
G36*
X40330Y77256D02*
X37902D01*
Y74828D01*
X38177Y74864D01*
X38899Y75163D01*
X39519Y75639D01*
X39994Y76259D01*
X40294Y76981D01*
X40330Y77256D01*
D02*
G37*
G36*
X53150Y80275D02*
X52875Y80239D01*
X52153Y79939D01*
X51532Y79464D01*
X51057Y78843D01*
X50757Y78121D01*
X50721Y77846D01*
X53150D01*
Y80275D01*
D02*
G37*
G36*
X56578Y76846D02*
X54150D01*
Y74418D01*
X54425Y74454D01*
X55147Y74753D01*
X55767Y75229D01*
X56243Y75849D01*
X56542Y76572D01*
X56578Y76846D01*
D02*
G37*
G36*
X36902Y77256D02*
X34473D01*
X34510Y76981D01*
X34809Y76259D01*
X35284Y75639D01*
X35904Y75163D01*
X36627Y74864D01*
X36902Y74828D01*
Y77256D01*
D02*
G37*
G36*
X19698Y99580D02*
X11798D01*
Y91680D01*
X19698D01*
Y94100D01*
X47437D01*
X48022Y93516D01*
X47966Y93381D01*
X47853Y92520D01*
X47966Y91658D01*
X48299Y90855D01*
X48827Y90166D01*
X49517Y89637D01*
X50320Y89305D01*
X51181Y89191D01*
X52043Y89305D01*
X52845Y89637D01*
X53535Y90166D01*
X54064Y90855D01*
X54396Y91658D01*
X54510Y92520D01*
X54396Y93381D01*
X54064Y94184D01*
X53535Y94873D01*
X52845Y95402D01*
X52043Y95735D01*
X51181Y95848D01*
X50320Y95735D01*
X50185Y95679D01*
X49152Y96711D01*
X48656Y97043D01*
X48071Y97159D01*
X19698D01*
Y99580D01*
D02*
G37*
G36*
X56078Y104315D02*
X53650D01*
Y101887D01*
X53925Y101923D01*
X54647Y102222D01*
X55267Y102698D01*
X55743Y103318D01*
X56042Y104040D01*
X56078Y104315D01*
D02*
G37*
G36*
X222925Y105799D02*
X220497D01*
X220533Y105524D01*
X220832Y104802D01*
X221308Y104182D01*
X221928Y103706D01*
X222650Y103407D01*
X222925Y103371D01*
Y105799D01*
D02*
G37*
G36*
X155428Y103858D02*
X153000D01*
Y101430D01*
X153275Y101466D01*
X153997Y101765D01*
X154617Y102241D01*
X155093Y102861D01*
X155392Y103583D01*
X155428Y103858D01*
D02*
G37*
G36*
X52650Y104315D02*
X50221D01*
X50257Y104040D01*
X50557Y103318D01*
X51033Y102698D01*
X51652Y102222D01*
X52375Y101923D01*
X52650Y101887D01*
Y104315D01*
D02*
G37*
G36*
X226354Y105799D02*
X223925D01*
Y103371D01*
X224200Y103407D01*
X224922Y103706D01*
X225542Y104182D01*
X226018Y104802D01*
X226317Y105524D01*
X226354Y105799D01*
D02*
G37*
G36*
X52650Y107743D02*
X52375Y107707D01*
X51652Y107408D01*
X51033Y106932D01*
X50557Y106312D01*
X50257Y105590D01*
X50221Y105315D01*
X52650D01*
Y107743D01*
D02*
G37*
G36*
X53650D02*
Y105315D01*
X56078D01*
X56042Y105590D01*
X55743Y106312D01*
X55267Y106932D01*
X54647Y107408D01*
X53925Y107707D01*
X53650Y107743D01*
D02*
G37*
G36*
X152000Y107287D02*
X151725Y107250D01*
X151003Y106951D01*
X150383Y106475D01*
X149907Y105855D01*
X149608Y105133D01*
X149572Y104858D01*
X152000D01*
Y107287D01*
D02*
G37*
G36*
X153000D02*
Y104858D01*
X155428D01*
X155392Y105133D01*
X155093Y105855D01*
X154617Y106475D01*
X153997Y106951D01*
X153275Y107250D01*
X153000Y107287D01*
D02*
G37*
G36*
X152000Y103858D02*
X149572D01*
X149608Y103583D01*
X149907Y102861D01*
X150383Y102241D01*
X151003Y101765D01*
X151725Y101466D01*
X152000Y101430D01*
Y103858D01*
D02*
G37*
G36*
X161902Y94327D02*
X159473D01*
X159510Y94052D01*
X159809Y93330D01*
X160284Y92710D01*
X160905Y92234D01*
X161627Y91935D01*
X161902Y91899D01*
Y94327D01*
D02*
G37*
G36*
X165330D02*
X162902D01*
Y91899D01*
X163177Y91935D01*
X163899Y92234D01*
X164519Y92710D01*
X164995Y93330D01*
X165294Y94052D01*
X165330Y94327D01*
D02*
G37*
G36*
X98909Y93988D02*
X96481D01*
X96517Y93713D01*
X96816Y92991D01*
X97292Y92371D01*
X97912Y91895D01*
X98634Y91596D01*
X98909Y91560D01*
Y93988D01*
D02*
G37*
G36*
X102338D02*
X99910D01*
Y91560D01*
X100184Y91596D01*
X100907Y91895D01*
X101527Y92371D01*
X102002Y92991D01*
X102302Y93713D01*
X102338Y93988D01*
D02*
G37*
G36*
X98909Y97417D02*
X98634Y97380D01*
X97912Y97081D01*
X97292Y96605D01*
X96816Y95985D01*
X96517Y95263D01*
X96481Y94988D01*
X98909D01*
Y97417D01*
D02*
G37*
G36*
X162902Y97755D02*
Y95327D01*
X165330D01*
X165294Y95602D01*
X164995Y96324D01*
X164519Y96944D01*
X163899Y97420D01*
X163177Y97719D01*
X162902Y97755D01*
D02*
G37*
G36*
X76000Y135055D02*
X67701D01*
Y126756D01*
X69301D01*
Y109252D01*
X69495Y108276D01*
X70048Y107450D01*
X70300Y107198D01*
X70409Y106370D01*
X70762Y105518D01*
X71323Y104787D01*
X72054Y104226D01*
X72905Y103874D01*
X73819Y103753D01*
X74733Y103874D01*
X75584Y104226D01*
X76246Y104735D01*
X86694D01*
X89884Y101544D01*
X90711Y100991D01*
X91686Y100797D01*
X100894D01*
X101869Y100991D01*
X102696Y101544D01*
X108102Y106950D01*
X108654Y107776D01*
X108848Y108752D01*
Y124541D01*
X109356Y125203D01*
X109709Y126055D01*
X109829Y126969D01*
X109709Y127882D01*
X109356Y128734D01*
X108795Y129465D01*
X108064Y130026D01*
X107213Y130378D01*
X106299Y130499D01*
X105385Y130378D01*
X104534Y130026D01*
X103803Y129465D01*
X103242Y128734D01*
X102889Y127882D01*
X102769Y126969D01*
X102889Y126055D01*
X103242Y125203D01*
X103750Y124541D01*
Y109808D01*
X99838Y105895D01*
X92742D01*
X89552Y109086D01*
X88725Y109638D01*
X87749Y109832D01*
X76246D01*
X75584Y110341D01*
X74733Y110693D01*
X74399Y110737D01*
Y126756D01*
X76000D01*
Y135055D01*
D02*
G37*
G36*
X99910Y97417D02*
Y94988D01*
X102338D01*
X102302Y95263D01*
X102002Y95985D01*
X101527Y96605D01*
X100907Y97081D01*
X100184Y97380D01*
X99910Y97417D01*
D02*
G37*
G36*
X161902Y97755D02*
X161627Y97719D01*
X160905Y97420D01*
X160284Y96944D01*
X159809Y96324D01*
X159510Y95602D01*
X159473Y95327D01*
X161902D01*
Y97755D01*
D02*
G37*
%LPD*%
D23*
X127953Y44291D02*
X128937Y43307D01*
X106299Y108752D02*
Y126969D01*
X100894Y103347D02*
X106299Y108752D01*
X91686Y103347D02*
X100894D01*
X87749Y107283D02*
X91686Y103347D01*
X73819Y107283D02*
X87749D01*
X71850Y109252D02*
Y130905D01*
Y109252D02*
X73819Y107283D01*
X129921Y44291D02*
Y44291D01*
X128937Y43307D02*
X129921Y44291D01*
X114469Y44291D02*
X127953D01*
X103347Y55413D02*
Y78152D01*
X94884Y86614D02*
X103347Y78152D01*
X86614Y86614D02*
X94884D01*
X103347Y55413D02*
X114469Y44291D01*
D24*
X48071Y95630D02*
X51181Y92520D01*
X15748Y95630D02*
X48071D01*
X91850Y113858D02*
X94488Y111221D01*
X91850Y113858D02*
Y130905D01*
X120500Y101799D02*
X145669Y126969D01*
X120500Y97815D02*
Y101799D01*
X174213Y45315D02*
X176181Y43347D01*
Y31870D02*
Y43347D01*
X123614Y59539D02*
Y62409D01*
X95473Y90551D02*
X123614Y62409D01*
X88617Y90551D02*
X95473D01*
X88354Y90814D02*
X88617Y90551D01*
X84874Y90814D02*
X88354D01*
X84611Y90551D02*
X84874Y90814D01*
X80708Y90551D02*
X84611D01*
X122575Y58500D02*
X123614Y59539D01*
X122575Y55413D02*
Y58500D01*
D25*
X0Y137795D02*
X236221D01*
Y0D02*
Y137795D01*
X0Y0D02*
X236221D01*
X0D02*
Y137795D01*
D26*
X190366Y42306D02*
Y39026D01*
X191022Y38370D01*
X192334D01*
X192990Y39026D01*
Y42306D01*
X196270Y38370D02*
Y42306D01*
X194302Y40338D01*
X196926D01*
X40126Y56920D02*
Y53640D01*
X40782Y52984D01*
X42094D01*
X42750Y53640D01*
Y56920D01*
X44062Y52984D02*
X45374D01*
X44718D01*
Y56920D01*
X44062Y56264D01*
X123436Y121315D02*
X120156D01*
X119500Y120659D01*
Y119347D01*
X120156Y118691D01*
X123436D01*
X122780Y117379D02*
X123436Y116723D01*
Y115411D01*
X122780Y114755D01*
X122124D01*
X121468Y115411D01*
Y116067D01*
Y115411D01*
X120812Y114755D01*
X120156D01*
X119500Y115411D01*
Y116723D01*
X120156Y117379D01*
D27*
X226378Y127953D02*
D03*
X9843D02*
D03*
Y9843D02*
D03*
X226378D02*
D03*
D28*
X-393898Y226772D02*
D03*
D29*
X146496Y81850D02*
D03*
X156496Y71850D02*
D03*
X136496D02*
D03*
X206024Y84646D02*
D03*
X186024D02*
D03*
X196024Y74646D02*
D03*
X51181Y92520D02*
D03*
X94488Y111221D02*
D03*
X106299Y126969D02*
D03*
X73819Y107283D02*
D03*
X145669Y126969D02*
D03*
X129921Y44291D02*
D03*
X174213Y45315D02*
D03*
X176181Y31870D02*
D03*
X80708Y90551D02*
D03*
X86614Y86614D02*
D03*
X103347Y55413D02*
D03*
X122575D02*
D03*
D30*
X71850Y130905D02*
D03*
X191500Y130815D02*
D03*
D31*
X81850Y130905D02*
D03*
X91850D02*
D03*
X201500Y130815D02*
D03*
X226378Y33307D02*
D03*
X14842Y35315D02*
D03*
X15748Y85630D02*
D03*
D32*
X226378Y43307D02*
D03*
X14842Y45315D02*
D03*
X15748Y95630D02*
D03*
D33*
X216535Y59055D02*
D03*
X78331Y73319D02*
D03*
X64961Y68898D02*
D03*
X162402Y20894D02*
D03*
X37402Y77756D02*
D03*
X224410Y116142D02*
D03*
X108268Y19685D02*
D03*
X223425Y106299D02*
D03*
X166339Y131890D02*
D03*
X18701Y117126D02*
D03*
X32480Y45315D02*
D03*
X142559Y9843D02*
D03*
X98425Y33307D02*
D03*
X196850Y23622D02*
D03*
X204724Y20669D02*
D03*
X120500Y97815D02*
D03*
X69378Y17717D02*
D03*
X78378Y14764D02*
D03*
X88378Y13780D02*
D03*
X129575Y55118D02*
D03*
X53150Y104815D02*
D03*
X99410Y94488D02*
D03*
X131890Y129921D02*
D03*
X152500Y104358D02*
D03*
X169000Y111221D02*
D03*
X53650Y77346D02*
D03*
X37402Y9843D02*
D03*
X162402Y94827D02*
D03*
X19685Y133858D02*
D03*
X177165Y13780D02*
D03*
M02*
