G04 Layer_Color=8421504*
%FSLAX25Y25*%
%MOIN*%
G70*
G01*
G75*
%ADD10R,0.05118X0.06102*%
%ADD11R,0.06102X0.05118*%
G04:AMPARAMS|DCode=12|XSize=25.59mil|YSize=64.96mil|CornerRadius=1.92mil|HoleSize=0mil|Usage=FLASHONLY|Rotation=90.000|XOffset=0mil|YOffset=0mil|HoleType=Round|Shape=RoundedRectangle|*
%AMROUNDEDRECTD12*
21,1,0.02559,0.06112,0,0,90.0*
21,1,0.02175,0.06496,0,0,90.0*
1,1,0.00384,0.03056,0.01088*
1,1,0.00384,0.03056,-0.01088*
1,1,0.00384,-0.03056,-0.01088*
1,1,0.00384,-0.03056,0.01088*
%
%ADD12ROUNDEDRECTD12*%
%ADD13R,0.07480X0.05315*%
%ADD14R,0.05315X0.07480*%
G04:AMPARAMS|DCode=15|XSize=21.65mil|YSize=49.21mil|CornerRadius=1.95mil|HoleSize=0mil|Usage=FLASHONLY|Rotation=90.000|XOffset=0mil|YOffset=0mil|HoleType=Round|Shape=RoundedRectangle|*
%AMROUNDEDRECTD15*
21,1,0.02165,0.04532,0,0,90.0*
21,1,0.01776,0.04921,0,0,90.0*
1,1,0.00390,0.02266,0.00888*
1,1,0.00390,0.02266,-0.00888*
1,1,0.00390,-0.02266,-0.00888*
1,1,0.00390,-0.02266,0.00888*
%
%ADD15ROUNDEDRECTD15*%
G04:AMPARAMS|DCode=16|XSize=35.43mil|YSize=68.9mil|CornerRadius=1.95mil|HoleSize=0mil|Usage=FLASHONLY|Rotation=0.000|XOffset=0mil|YOffset=0mil|HoleType=Round|Shape=RoundedRectangle|*
%AMROUNDEDRECTD16*
21,1,0.03543,0.06500,0,0,0.0*
21,1,0.03154,0.06890,0,0,0.0*
1,1,0.00390,0.01577,-0.03250*
1,1,0.00390,-0.01577,-0.03250*
1,1,0.00390,-0.01577,0.03250*
1,1,0.00390,0.01577,0.03250*
%
%ADD16ROUNDEDRECTD16*%
G04:AMPARAMS|DCode=17|XSize=125.98mil|YSize=68.9mil|CornerRadius=2.07mil|HoleSize=0mil|Usage=FLASHONLY|Rotation=0.000|XOffset=0mil|YOffset=0mil|HoleType=Round|Shape=RoundedRectangle|*
%AMROUNDEDRECTD17*
21,1,0.12598,0.06476,0,0,0.0*
21,1,0.12185,0.06890,0,0,0.0*
1,1,0.00413,0.06093,-0.03238*
1,1,0.00413,-0.06093,-0.03238*
1,1,0.00413,-0.06093,0.03238*
1,1,0.00413,0.06093,0.03238*
%
%ADD17ROUNDEDRECTD17*%
%ADD18R,0.04724X0.05709*%
%ADD19R,0.05709X0.04724*%
%ADD20R,0.05315X0.04331*%
%ADD21R,0.06693X0.03740*%
%ADD22O,0.07480X0.02362*%
%ADD25C,0.00500*%
%ADD26C,0.00591*%
D10*
X186024Y23622D02*
D03*
X193898D02*
D03*
D11*
X64961Y65945D02*
D03*
Y58071D02*
D03*
X169000Y114378D02*
D03*
Y122252D02*
D03*
D12*
X184744Y46870D02*
D03*
Y41870D02*
D03*
Y36870D02*
D03*
Y31870D02*
D03*
X206988Y46870D02*
D03*
Y41870D02*
D03*
Y36870D02*
D03*
Y31870D02*
D03*
D13*
X100394Y109646D02*
D03*
Y97047D02*
D03*
X152000Y108016D02*
D03*
Y120614D02*
D03*
X88378Y16532D02*
D03*
Y29130D02*
D03*
D14*
X56693Y105315D02*
D03*
X69291D02*
D03*
D15*
X55961Y46484D02*
D03*
Y51484D02*
D03*
Y56484D02*
D03*
Y61484D02*
D03*
X35291Y46484D02*
D03*
Y51484D02*
D03*
Y56484D02*
D03*
Y61484D02*
D03*
D16*
X129555Y127118D02*
D03*
X120500D02*
D03*
X111445D02*
D03*
D17*
X120500Y102512D02*
D03*
D18*
X107283Y63976D02*
D03*
X99410D02*
D03*
X89567Y73819D02*
D03*
X81693D02*
D03*
X50197Y28543D02*
D03*
X58071D02*
D03*
X63976Y38386D02*
D03*
X56102D02*
D03*
X142559Y39370D02*
D03*
X150433D02*
D03*
D19*
X69378Y20894D02*
D03*
Y28768D02*
D03*
X206988Y105555D02*
D03*
Y97681D02*
D03*
X167323Y54134D02*
D03*
Y46260D02*
D03*
X186024Y97681D02*
D03*
Y105555D02*
D03*
X53150Y80709D02*
D03*
Y88583D02*
D03*
D20*
X129575Y47657D02*
D03*
Y53169D02*
D03*
X216535Y51378D02*
D03*
Y56890D02*
D03*
D21*
X78378Y17319D02*
D03*
Y28343D02*
D03*
D22*
X101575Y48913D02*
D03*
Y43913D02*
D03*
Y38913D02*
D03*
Y33913D02*
D03*
X120079Y48913D02*
D03*
Y43913D02*
D03*
Y38913D02*
D03*
Y33913D02*
D03*
D25*
X0Y137795D02*
X236221D01*
Y0D02*
Y137795D01*
X0Y0D02*
X236221D01*
X0D02*
Y137795D01*
D26*
X190366Y42306D02*
Y39026D01*
X191022Y38370D01*
X192334D01*
X192990Y39026D01*
Y42306D01*
X196270Y38370D02*
Y42306D01*
X194302Y40338D01*
X196926D01*
X40126Y56920D02*
Y53640D01*
X40782Y52984D01*
X42094D01*
X42750Y53640D01*
Y56920D01*
X44062Y52984D02*
X45374D01*
X44718D01*
Y56920D01*
X44062Y56264D01*
X123436Y121315D02*
X120156D01*
X119500Y120659D01*
Y119347D01*
X120156Y118691D01*
X123436D01*
X122780Y117379D02*
X123436Y116723D01*
Y115411D01*
X122780Y114755D01*
X122124D01*
X121468Y115411D01*
Y116067D01*
Y115411D01*
X120812Y114755D01*
X120156D01*
X119500Y115411D01*
Y116723D01*
X120156Y117379D01*
M02*
