G04 Layer_Color=65535*
%FSLAX25Y25*%
%MOIN*%
G70*
G01*
G75*
%ADD25C,0.00500*%
%ADD26C,0.00591*%
%ADD34C,0.00394*%
%ADD35C,0.00984*%
%ADD36C,0.02362*%
%ADD37C,0.01575*%
%ADD38C,0.01968*%
%ADD39C,0.01000*%
%ADD40C,0.00100*%
%ADD41C,0.00787*%
%ADD42C,0.00606*%
%ADD43C,0.00472*%
D25*
X131996Y78100D02*
Y83100D01*
X133496Y78100D02*
Y83100D01*
X209024Y73396D02*
Y78396D01*
X210524Y73396D02*
Y78396D01*
X0Y137795D02*
X236221D01*
Y0D02*
Y137795D01*
X0Y0D02*
X236221D01*
X0D02*
Y137795D01*
D26*
X170276Y78740D02*
X166340D01*
Y80708D01*
X166996Y81364D01*
X168308D01*
X168964Y80708D01*
Y78740D01*
Y80052D02*
X170276Y81364D01*
Y82676D02*
Y83988D01*
Y83332D01*
X166340D01*
X166996Y82676D01*
X170276Y88579D02*
Y85956D01*
X167652Y88579D01*
X166996D01*
X166340Y87924D01*
Y86612D01*
X166996Y85956D01*
X187663Y16075D02*
X187007Y16731D01*
X185695D01*
X185039Y16075D01*
Y13451D01*
X185695Y12795D01*
X187007D01*
X187663Y13451D01*
X188975Y12795D02*
X190287D01*
X189631D01*
Y16731D01*
X188975Y16075D01*
X192255D02*
X192911Y16731D01*
X194223D01*
X194879Y16075D01*
Y13451D01*
X194223Y12795D01*
X192911D01*
X192255Y13451D01*
Y16075D01*
X73490Y65288D02*
X72834Y65944D01*
X71522D01*
X70866Y65288D01*
Y62664D01*
X71522Y62008D01*
X72834D01*
X73490Y62664D01*
X74802D02*
X75458Y62008D01*
X76770D01*
X77426Y62664D01*
Y65288D01*
X76770Y65944D01*
X75458D01*
X74802Y65288D01*
Y64632D01*
X75458Y63976D01*
X77426D01*
X187992Y55117D02*
Y51837D01*
X188648Y51181D01*
X189960D01*
X190616Y51837D01*
Y55117D01*
X193896Y51181D02*
Y55117D01*
X191928Y53149D01*
X194552D01*
X99080Y122046D02*
X97769D01*
X98425D01*
Y118766D01*
X97769Y118110D01*
X97113D01*
X96457Y118766D01*
X103016Y122046D02*
X100392D01*
Y120078D01*
X101704Y120734D01*
X102360D01*
X103016Y120078D01*
Y118766D01*
X102360Y118110D01*
X101048D01*
X100392Y118766D01*
X91208Y102033D02*
X90552Y101377D01*
Y100065D01*
X91208Y99410D01*
X93832D01*
X94488Y100065D01*
Y101377D01*
X93832Y102033D01*
X91208Y103345D02*
X90552Y104001D01*
Y105313D01*
X91208Y105969D01*
X91864D01*
X92520Y105313D01*
X93176Y105969D01*
X93832D01*
X94488Y105313D01*
Y104001D01*
X93832Y103345D01*
X93176D01*
X92520Y104001D01*
X91864Y103345D01*
X91208D01*
X92520Y104001D02*
Y105313D01*
X62663Y98752D02*
X62007Y99408D01*
X60695D01*
X60039Y98752D01*
Y96128D01*
X60695Y95472D01*
X62007D01*
X62663Y96128D01*
X66599Y99408D02*
X63975D01*
Y97440D01*
X65287Y98096D01*
X65943D01*
X66599Y97440D01*
Y96128D01*
X65943Y95472D01*
X64631D01*
X63975Y96128D01*
X174870Y116797D02*
X174214Y116141D01*
Y114829D01*
X174870Y114173D01*
X177494D01*
X178150Y114829D01*
Y116141D01*
X177494Y116797D01*
X178150Y118109D02*
Y119421D01*
Y118765D01*
X174214D01*
X174870Y118109D01*
Y121389D02*
X174214Y122045D01*
Y123357D01*
X174870Y124013D01*
X177494D01*
X178150Y123357D01*
Y122045D01*
X177494Y121389D01*
X174870D01*
X178150Y127948D02*
Y125324D01*
X175526Y127948D01*
X174870D01*
X174214Y127292D01*
Y125980D01*
X174870Y125324D01*
X43307Y69881D02*
Y66601D01*
X43963Y65945D01*
X45275D01*
X45931Y66601D01*
Y69881D01*
X47243Y65945D02*
X48555D01*
X47899D01*
Y69881D01*
X47243Y69225D01*
X135827Y121062D02*
Y117782D01*
X136483Y117126D01*
X137795D01*
X138451Y117782D01*
Y121062D01*
X139762Y120406D02*
X140419Y121062D01*
X141730D01*
X142386Y120406D01*
Y119750D01*
X141730Y119094D01*
X141074D01*
X141730D01*
X142386Y118438D01*
Y117782D01*
X141730Y117126D01*
X140419D01*
X139762Y117782D01*
X153214Y129264D02*
X152558Y129920D01*
X151247D01*
X150591Y129264D01*
Y126640D01*
X151247Y125984D01*
X152558D01*
X153214Y126640D01*
X154526Y125984D02*
X155838D01*
X155182D01*
Y129920D01*
X154526Y129264D01*
X157806D02*
X158462Y129920D01*
X159774D01*
X160430Y129264D01*
Y126640D01*
X159774Y125984D01*
X158462D01*
X157806Y126640D01*
Y129264D01*
X161742D02*
X162398Y129920D01*
X163710D01*
X164366Y129264D01*
Y128608D01*
X163710Y127952D01*
X163054D01*
X163710D01*
X164366Y127296D01*
Y126640D01*
X163710Y125984D01*
X162398D01*
X161742Y126640D01*
X222440Y26574D02*
X221128D01*
X220472Y25918D01*
Y23294D01*
X221128Y22638D01*
X222440D01*
X223096Y23294D01*
Y25918D01*
X222440Y26574D01*
X224408D02*
Y23294D01*
X225064Y22638D01*
X226376D01*
X227032Y23294D01*
Y26574D01*
X228344D02*
X230968D01*
X229656D01*
Y22638D01*
X88583Y62008D02*
Y65944D01*
X90551D01*
X91207Y65288D01*
Y63976D01*
X90551Y63320D01*
X88583D01*
X89895D02*
X91207Y62008D01*
X95142Y65944D02*
X92518D01*
Y63976D01*
X93830Y64632D01*
X94486D01*
X95142Y63976D01*
Y62664D01*
X94486Y62008D01*
X93174D01*
X92518Y62664D01*
X80630Y78969D02*
Y82904D01*
X82598D01*
X83254Y82248D01*
Y80936D01*
X82598Y80280D01*
X80630D01*
X81942D02*
X83254Y78969D01*
X86533D02*
Y82904D01*
X84566Y80936D01*
X87190D01*
X72835Y32480D02*
X68899D01*
Y34448D01*
X69555Y35104D01*
X70867D01*
X71523Y34448D01*
Y32480D01*
Y33792D02*
X72835Y35104D01*
X69555Y36416D02*
X68899Y37072D01*
Y38384D01*
X69555Y39040D01*
X70211D01*
X70867Y38384D01*
Y37728D01*
Y38384D01*
X71523Y39040D01*
X72179D01*
X72835Y38384D01*
Y37072D01*
X72179Y36416D01*
X39370Y26575D02*
Y30511D01*
X41338D01*
X41994Y29855D01*
Y28543D01*
X41338Y27887D01*
X39370D01*
X40682D02*
X41994Y26575D01*
X45930D02*
X43306D01*
X45930Y29199D01*
Y29855D01*
X45274Y30511D01*
X43962D01*
X43306Y29855D01*
X60039Y43307D02*
Y47243D01*
X62007D01*
X62663Y46587D01*
Y45275D01*
X62007Y44619D01*
X60039D01*
X61351D02*
X62663Y43307D01*
X63975D02*
X65287D01*
X64631D01*
Y47243D01*
X63975Y46587D01*
X4266Y31167D02*
Y29199D01*
X4922Y28543D01*
X6234D01*
X6890Y29199D01*
Y31167D01*
X3610Y33135D02*
X4266D01*
Y32479D01*
Y33791D01*
Y33135D01*
X6234D01*
X6890Y33791D01*
X4266Y35759D02*
X6890D01*
X5578D01*
X4922Y36415D01*
X4266Y37071D01*
Y37727D01*
X6890Y39695D02*
Y41006D01*
Y40350D01*
X2954D01*
Y39695D01*
Y46910D02*
Y48222D01*
Y47566D01*
X6890D01*
Y46910D01*
Y48222D01*
Y50190D02*
X2954D01*
X6890Y52814D01*
X2954D01*
X85303Y37073D02*
X84647Y36417D01*
Y35105D01*
X85303Y34449D01*
X87927D01*
X88583Y35105D01*
Y36417D01*
X87927Y37073D01*
X88583Y41008D02*
Y38385D01*
X85959Y41008D01*
X85303D01*
X84647Y40352D01*
Y39040D01*
X85303Y38385D01*
X135500Y49494D02*
X134844Y48838D01*
Y47526D01*
X135500Y46870D01*
X138124D01*
X138779Y47526D01*
Y48838D01*
X138124Y49494D01*
X138779Y52774D02*
X134844D01*
X136812Y50806D01*
Y53430D01*
X219159Y65288D02*
X218503Y65944D01*
X217191D01*
X216535Y65288D01*
Y62664D01*
X217191Y62008D01*
X218503D01*
X219159Y62664D01*
X220471Y65288D02*
X221127Y65944D01*
X222439D01*
X223095Y65288D01*
Y64632D01*
X222439Y63976D01*
X221783D01*
X222439D01*
X223095Y63320D01*
Y62664D01*
X222439Y62008D01*
X221127D01*
X220471Y62664D01*
X77429Y34494D02*
X76773Y33838D01*
Y32526D01*
X77429Y31870D01*
X80053D01*
X80708Y32526D01*
Y33838D01*
X80053Y34494D01*
X80708Y35806D02*
Y37118D01*
Y36462D01*
X76773D01*
X77429Y35806D01*
X1391Y66847D02*
Y69470D01*
Y68158D01*
X5327D01*
X2703Y70782D02*
X5327D01*
X4015D01*
X3359Y71438D01*
X2703Y72094D01*
Y72750D01*
X5327Y74718D02*
Y76030D01*
Y75374D01*
X2703D01*
Y74718D01*
X6639Y79310D02*
Y79966D01*
X5983Y80621D01*
X2703D01*
Y78654D01*
X3359Y77998D01*
X4671D01*
X5327Y78654D01*
Y80621D01*
X6639Y83245D02*
Y83901D01*
X5983Y84557D01*
X2703D01*
Y82589D01*
X3359Y81933D01*
X4671D01*
X5327Y82589D01*
Y84557D01*
Y87837D02*
Y86525D01*
X4671Y85869D01*
X3359D01*
X2703Y86525D01*
Y87837D01*
X3359Y88493D01*
X4015D01*
Y85869D01*
X2703Y89805D02*
X5327D01*
X4015D01*
X3359Y90461D01*
X2703Y91117D01*
Y91773D01*
X90551Y51180D02*
Y47900D01*
X91207Y47244D01*
X92519D01*
X93175Y47900D01*
Y51180D01*
X97111Y47244D02*
X94487D01*
X97111Y49868D01*
Y50524D01*
X96455Y51180D01*
X95143D01*
X94487Y50524D01*
X145669Y44291D02*
Y48227D01*
X147637D01*
X148293Y47571D01*
Y46259D01*
X147637Y45603D01*
X145669D01*
X146981D02*
X148293Y44291D01*
X152229Y48227D02*
X150917Y47571D01*
X149605Y46259D01*
Y44947D01*
X150261Y44291D01*
X151573D01*
X152229Y44947D01*
Y45603D01*
X151573Y46259D01*
X149605D01*
X202756Y95472D02*
X198820D01*
Y97440D01*
X199476Y98096D01*
X200788D01*
X201444Y97440D01*
Y95472D01*
Y96784D02*
X202756Y98096D01*
X198820Y99408D02*
Y102032D01*
X199476D01*
X202100Y99408D01*
X202756D01*
X162402Y48228D02*
X158466D01*
Y50196D01*
X159122Y50852D01*
X160434D01*
X161090Y50196D01*
Y48228D01*
Y49540D02*
X162402Y50852D01*
X159122Y52164D02*
X158466Y52820D01*
Y54132D01*
X159122Y54788D01*
X159778D01*
X160434Y54132D01*
X161090Y54788D01*
X161746D01*
X162402Y54132D01*
Y52820D01*
X161746Y52164D01*
X161090D01*
X160434Y52820D01*
X159778Y52164D01*
X159122D01*
X160434Y52820D02*
Y54132D01*
X181102Y94488D02*
X177167D01*
Y96456D01*
X177823Y97112D01*
X179135D01*
X179790Y96456D01*
Y94488D01*
Y95800D02*
X181102Y97112D01*
X180446Y98424D02*
X181102Y99080D01*
Y100392D01*
X180446Y101048D01*
X177823D01*
X177167Y100392D01*
Y99080D01*
X177823Y98424D01*
X178479D01*
X179135Y99080D01*
Y101048D01*
X220500Y82000D02*
X216564D01*
Y83968D01*
X217220Y84624D01*
X218532D01*
X219188Y83968D01*
Y82000D01*
Y83312D02*
X220500Y84624D01*
Y85936D02*
Y87248D01*
Y86592D01*
X216564D01*
X217220Y85936D01*
Y89215D02*
X216564Y89872D01*
Y91183D01*
X217220Y91839D01*
X219844D01*
X220500Y91183D01*
Y89872D01*
X219844Y89215D01*
X217220D01*
X63976Y75787D02*
X60041D01*
Y77755D01*
X60697Y78411D01*
X62009D01*
X62665Y77755D01*
Y75787D01*
Y77099D02*
X63976Y78411D01*
Y79723D02*
Y81035D01*
Y80379D01*
X60041D01*
X60697Y79723D01*
X63976Y83003D02*
Y84315D01*
Y83659D01*
X60041D01*
X60697Y83003D01*
X190366Y42306D02*
Y39026D01*
X191022Y38370D01*
X192334D01*
X192990Y39026D01*
Y42306D01*
X196270Y38370D02*
Y42306D01*
X194302Y40338D01*
X196926D01*
X40126Y56920D02*
Y53640D01*
X40782Y52984D01*
X42094D01*
X42750Y53640D01*
Y56920D01*
X44062Y52984D02*
X45374D01*
X44718D01*
Y56920D01*
X44062Y56264D01*
X123436Y121315D02*
X120156D01*
X119500Y120659D01*
Y119347D01*
X120156Y118691D01*
X123436D01*
X122780Y117379D02*
X123436Y116723D01*
Y115411D01*
X122780Y114755D01*
X122124D01*
X121468Y115411D01*
Y116067D01*
Y115411D01*
X120812Y114755D01*
X120156D01*
X119500Y115411D01*
Y116723D01*
X120156Y117379D01*
D34*
X135564Y80600D02*
G03*
X135564Y80600I-2818J0D01*
G01*
X212591Y75896D02*
G03*
X212591Y75896I-2818J0D01*
G01*
D35*
X185236Y50315D02*
G03*
X185236Y50315I-492J0D01*
G01*
X35783Y64732D02*
G03*
X35783Y64732I-492J0D01*
G01*
X133984Y127118D02*
G03*
X133984Y127118I-492J0D01*
G01*
X102067Y52260D02*
G03*
X102067Y52260I-492J0D01*
G01*
D36*
X194685Y45276D02*
G03*
X194685Y45276I-1181J0D01*
G01*
X44445Y59890D02*
G03*
X44445Y59890I-1181J0D01*
G01*
D37*
X110827Y48106D02*
G03*
X110827Y48106I-787J0D01*
G01*
D38*
X27559Y115815D02*
Y136811D01*
X104646Y65299D02*
Y94685D01*
X173543Y65299D02*
Y94685D01*
X173402Y94827D02*
X173543Y94685D01*
X105657Y94827D02*
X173402D01*
X105657Y65299D02*
X173543D01*
X0Y111221D02*
X40343D01*
X217342Y109252D02*
Y136953D01*
X183343Y109252D02*
X217342D01*
X183343D02*
Y136453D01*
X40343Y64315D02*
Y74315D01*
X343Y64315D02*
X40343D01*
Y74315D02*
Y111221D01*
X0Y61024D02*
X29842D01*
Y18701D02*
Y61024D01*
X-158Y18701D02*
X29842D01*
X210842Y59055D02*
X235236D01*
X210842Y19685D02*
Y59055D01*
Y19685D02*
X236221D01*
X27559Y115815D02*
X105315D01*
Y136811D01*
D39*
X127796Y67850D02*
Y85650D01*
X165196Y67850D02*
Y85650D01*
X127796D02*
X165196D01*
X127796Y67850D02*
X133796D01*
X159196D02*
X165196D01*
X133896Y68350D02*
X159096D01*
X183424Y88146D02*
X208624D01*
X177324Y88646D02*
X183324D01*
X208724D02*
X214724D01*
X177324Y70846D02*
X214724D01*
X177324D02*
Y88646D01*
X214724Y70846D02*
Y88646D01*
X107299Y83076D02*
Y91074D01*
X111298D01*
X112631Y89741D01*
Y87075D01*
X111298Y85742D01*
X107299D01*
X115297Y91074D02*
Y87075D01*
X116630Y85742D01*
X117962Y87075D01*
X119295Y85742D01*
X120628Y87075D01*
Y91074D01*
X123294D02*
Y85742D01*
Y88408D01*
X124627Y89741D01*
X125960Y91074D01*
X127293D01*
X224759Y52474D02*
X230091D01*
X227425Y55139D02*
Y49808D01*
X11177Y55348D02*
X16508D01*
X13842Y58013D02*
Y52682D01*
X13145Y105544D02*
X18477D01*
X15811Y108210D02*
Y102879D01*
X188334Y119726D02*
X193666D01*
X191000Y122391D02*
Y117060D01*
X108314Y81005D02*
X110980D01*
X112313Y79672D01*
Y75674D01*
X108314D01*
X106981Y77007D01*
X108314Y78339D01*
X112313D01*
X120310Y83671D02*
Y75674D01*
X116312D01*
X114979Y77007D01*
Y79672D01*
X116312Y81005D01*
X120310D01*
X122976Y73008D02*
X124309D01*
X125642Y74341D01*
Y81005D01*
D40*
X159096Y68350D02*
X159196D01*
X183324Y88146D02*
X183424D01*
D41*
X189567Y29528D02*
Y49213D01*
X202165Y29528D02*
Y49213D01*
X189567D02*
X202165D01*
X189567Y29528D02*
X202165D01*
X66850Y135906D02*
X96851D01*
Y125906D02*
Y135906D01*
X66850Y125906D02*
X96851D01*
X66850D02*
Y135906D01*
X103740Y101181D02*
Y105512D01*
X97047Y101181D02*
Y105512D01*
X60827Y108661D02*
X65158D01*
X60827Y101969D02*
X65158D01*
X39327Y44142D02*
X51925D01*
X39327Y63827D02*
X51925D01*
Y44142D02*
Y63827D01*
X39327Y44142D02*
Y63827D01*
X107311Y122492D02*
X133689D01*
X107311Y107138D02*
X133689D01*
Y122492D01*
X107311Y107138D02*
Y122492D01*
X186500Y125815D02*
Y135815D01*
Y125815D02*
X206500D01*
Y135815D01*
X186500D02*
X206500D01*
X148653Y112150D02*
Y116480D01*
X155347Y112150D02*
Y116480D01*
X221378Y48307D02*
X231378D01*
X221378Y28307D02*
Y48307D01*
Y28307D02*
X231378D01*
Y48307D01*
X102953Y61516D02*
X103740D01*
X102953Y66437D02*
X103740D01*
X85236Y71358D02*
X86024D01*
X85236Y76279D02*
X86024D01*
X66917Y24437D02*
Y25224D01*
X71839Y24437D02*
Y25224D01*
X53740Y31004D02*
X54528D01*
X53740Y26083D02*
X54528D01*
X59646Y35925D02*
X60433D01*
X59646Y40846D02*
X60433D01*
X9843Y50315D02*
X19842D01*
X9843Y30315D02*
Y50315D01*
Y30315D02*
X19842D01*
Y50315D01*
X85031Y20665D02*
Y24996D01*
X91724Y20665D02*
Y24996D01*
X75425Y20665D02*
Y24996D01*
X81331Y20665D02*
Y24996D01*
X20748Y80630D02*
Y100630D01*
X10748Y80630D02*
X20748D01*
X10748D02*
Y100630D01*
X20748D01*
X106890Y31571D02*
Y51256D01*
X114764Y31571D02*
Y51256D01*
X106890D02*
X114764D01*
X106890Y31571D02*
X114764D01*
X146102Y41831D02*
X146890D01*
X146102Y36909D02*
X146890D01*
X209449Y101224D02*
Y102012D01*
X204527Y101224D02*
Y102012D01*
X169783Y49803D02*
Y50591D01*
X164862Y49803D02*
Y50591D01*
X183563Y101224D02*
Y102012D01*
X188484Y101224D02*
Y102012D01*
X50689Y84252D02*
Y85039D01*
X55610Y84252D02*
Y85039D01*
D42*
X76984Y117977D02*
X77771D01*
X78558Y118764D01*
Y122700D01*
X76197D01*
X75410Y121913D01*
Y120339D01*
X76197Y119552D01*
X78558D01*
X80132D02*
Y122700D01*
X82494D01*
X83281Y121913D01*
Y119552D01*
X88004Y124275D02*
Y119552D01*
X85642D01*
X84855Y120339D01*
Y121913D01*
X85642Y122700D01*
X88004D01*
X31118Y123686D02*
Y128409D01*
X33480D01*
X34267Y127621D01*
Y126047D01*
X33480Y125260D01*
X31118D01*
X36628D02*
X38202D01*
X38990Y126047D01*
Y127621D01*
X38202Y128409D01*
X36628D01*
X35841Y127621D01*
Y126047D01*
X36628Y125260D01*
X40564Y128409D02*
Y126047D01*
X41351Y125260D01*
X42138Y126047D01*
X42925Y125260D01*
X43712Y126047D01*
Y128409D01*
X47648Y125260D02*
X46074D01*
X45287Y126047D01*
Y127621D01*
X46074Y128409D01*
X47648D01*
X48435Y127621D01*
Y126834D01*
X45287D01*
X50010Y128409D02*
Y125260D01*
Y126834D01*
X50797Y127621D01*
X51584Y128409D01*
X52371D01*
X198835Y123082D02*
X199622Y123869D01*
X201196D01*
X201983Y123082D01*
Y122295D01*
X201196Y121508D01*
X200409D01*
X201196D01*
X201983Y120721D01*
Y119934D01*
X201196Y119147D01*
X199622D01*
X198835Y119934D01*
X203557Y119147D02*
Y119934D01*
X204345D01*
Y119147D01*
X203557D01*
X207493Y123082D02*
X208280Y123869D01*
X209855D01*
X210642Y123082D01*
Y122295D01*
X209855Y121508D01*
X209067D01*
X209855D01*
X210642Y120721D01*
Y119934D01*
X209855Y119147D01*
X208280D01*
X207493Y119934D01*
X212216Y123869D02*
Y120721D01*
X213790Y119147D01*
X215365Y120721D01*
Y123869D01*
X202377Y112811D02*
X203951D01*
X204738Y113598D01*
Y115173D01*
X203951Y115960D01*
X202377D01*
X201589Y115173D01*
Y113598D01*
X202377Y112811D01*
X206312Y115960D02*
Y113598D01*
X207100Y112811D01*
X209461D01*
Y115960D01*
X211822Y116747D02*
Y115960D01*
X211035D01*
X212610D01*
X211822D01*
Y113598D01*
X212610Y112811D01*
X38202Y122503D02*
X39777D01*
X38990D01*
Y117780D01*
X38202D01*
X39777D01*
X42138D02*
Y122503D01*
X45287Y117780D01*
Y122503D01*
X98882Y131846D02*
X102031D01*
X31118Y132937D02*
X34267D01*
X32692Y134511D02*
Y131363D01*
X35841Y132937D02*
X38990D01*
X43712Y135299D02*
X40564D01*
Y132937D01*
X42138Y133724D01*
X42925D01*
X43712Y132937D01*
Y131363D01*
X42925Y130576D01*
X41351D01*
X40564Y131363D01*
X45287Y135299D02*
Y132150D01*
X46861Y130576D01*
X48435Y132150D01*
Y135299D01*
X60497Y131059D02*
X63645D01*
X62071Y132633D02*
Y129485D01*
D43*
X14907Y73586D02*
X13595Y74898D01*
Y76210D01*
X14907Y77522D01*
X16874D02*
Y73586D01*
Y75554D01*
X17530Y76210D01*
X18842D01*
X19498Y75554D01*
Y73586D01*
X20810D02*
X22122D01*
X21466D01*
Y76210D01*
X20810D01*
X25402Y72274D02*
X26058D01*
X26714Y72930D01*
Y76210D01*
X24746D01*
X24090Y75554D01*
Y74242D01*
X24746Y73586D01*
X26714D01*
X28026Y77522D02*
Y73586D01*
Y75554D01*
X28682Y76210D01*
X29994D01*
X30650Y75554D01*
Y73586D01*
X10971Y69041D02*
X12283D01*
X12939Y68385D01*
Y66417D01*
X10971D01*
X10315Y67073D01*
X10971Y67729D01*
X12939D01*
X16874Y69041D02*
X14907D01*
X14251Y68385D01*
Y67073D01*
X14907Y66417D01*
X16874D01*
X18842Y69697D02*
Y69041D01*
X18186D01*
X19498D01*
X18842D01*
Y67073D01*
X19498Y66417D01*
X21466D02*
X22778D01*
X22122D01*
Y69041D01*
X21466D01*
X24746D02*
X26058Y66417D01*
X27370Y69041D01*
X30650Y66417D02*
X29338D01*
X28682Y67073D01*
Y68385D01*
X29338Y69041D01*
X30650D01*
X31306Y68385D01*
Y67729D01*
X28682D01*
X32618Y66417D02*
X33929Y67729D01*
Y69041D01*
X32618Y70353D01*
X3940Y24069D02*
X4597Y24725D01*
X5908D01*
X6564Y24069D01*
Y21445D01*
X5908Y20789D01*
X4597D01*
X3940Y21445D01*
Y24069D01*
X7876Y22757D02*
X10500D01*
X11812Y24069D02*
X12468Y24725D01*
X13780D01*
X14436Y24069D01*
Y23413D01*
X13780Y22757D01*
X13124D01*
X13780D01*
X14436Y22101D01*
Y21445D01*
X13780Y20789D01*
X12468D01*
X11812Y21445D01*
X15748Y20789D02*
Y21445D01*
X16404D01*
Y20789D01*
X15748D01*
X19027Y24069D02*
X19683Y24725D01*
X20995D01*
X21651Y24069D01*
Y23413D01*
X20995Y22757D01*
X20339D01*
X20995D01*
X21651Y22101D01*
Y21445D01*
X20995Y20789D01*
X19683D01*
X19027Y21445D01*
X22963Y24725D02*
Y22101D01*
X24275Y20789D01*
X25587Y22101D01*
Y24725D01*
X24512Y88913D02*
X23856Y88257D01*
Y86945D01*
X24512Y86289D01*
X25168D01*
X25824Y86945D01*
Y88257D01*
X26480Y88913D01*
X27136D01*
X27792Y88257D01*
Y86945D01*
X27136Y86289D01*
X27792Y90225D02*
Y91537D01*
Y90881D01*
X25168D01*
Y90225D01*
X29104Y94817D02*
Y95473D01*
X28448Y96129D01*
X25168D01*
Y94161D01*
X25824Y93505D01*
X27136D01*
X27792Y94161D01*
Y96129D01*
Y97441D02*
X25168D01*
Y99409D01*
X25824Y100064D01*
X27792D01*
X25168Y102032D02*
Y103344D01*
X25824Y104000D01*
X27792D01*
Y102032D01*
X27136Y101376D01*
X26480Y102032D01*
Y104000D01*
X27792Y105312D02*
Y106624D01*
Y105968D01*
X23856D01*
Y105312D01*
X34961Y87601D02*
Y86289D01*
X34305Y85633D01*
X32993D01*
X32337Y86289D01*
Y87601D01*
X32993Y88257D01*
X33649D01*
Y85633D01*
X34961Y89569D02*
X32337D01*
Y91537D01*
X32993Y92193D01*
X34961D01*
X32337Y94161D02*
Y95473D01*
X32993Y96129D01*
X34961D01*
Y94161D01*
X34305Y93505D01*
X33649Y94161D01*
Y96129D01*
X31025Y97441D02*
X34961D01*
Y99409D01*
X34305Y100064D01*
X33649D01*
X32993D01*
X32337Y99409D01*
Y97441D01*
X34961Y101376D02*
Y102688D01*
Y102032D01*
X31025D01*
Y101376D01*
X34961Y106624D02*
Y105312D01*
X34305Y104656D01*
X32993D01*
X32337Y105312D01*
Y106624D01*
X32993Y107280D01*
X33649D01*
Y104656D01*
X1358Y95473D02*
Y96785D01*
Y96129D01*
X5294D01*
Y95473D01*
Y96785D01*
Y98753D02*
X1358D01*
X5294Y101377D01*
X1358D01*
M02*
