G04 Layer_Physical_Order=1*
G04 Layer_Color=255*
%FSLAX25Y25*%
%MOIN*%
G70*
G01*
G75*
%ADD10R,0.05118X0.06102*%
%ADD11R,0.06102X0.05118*%
G04:AMPARAMS|DCode=12|XSize=25.59mil|YSize=64.96mil|CornerRadius=1.92mil|HoleSize=0mil|Usage=FLASHONLY|Rotation=90.000|XOffset=0mil|YOffset=0mil|HoleType=Round|Shape=RoundedRectangle|*
%AMROUNDEDRECTD12*
21,1,0.02559,0.06112,0,0,90.0*
21,1,0.02175,0.06496,0,0,90.0*
1,1,0.00384,0.03056,0.01088*
1,1,0.00384,0.03056,-0.01088*
1,1,0.00384,-0.03056,-0.01088*
1,1,0.00384,-0.03056,0.01088*
%
%ADD12ROUNDEDRECTD12*%
%ADD13R,0.07480X0.05315*%
%ADD14R,0.05315X0.07480*%
G04:AMPARAMS|DCode=15|XSize=21.65mil|YSize=49.21mil|CornerRadius=1.95mil|HoleSize=0mil|Usage=FLASHONLY|Rotation=90.000|XOffset=0mil|YOffset=0mil|HoleType=Round|Shape=RoundedRectangle|*
%AMROUNDEDRECTD15*
21,1,0.02165,0.04532,0,0,90.0*
21,1,0.01776,0.04921,0,0,90.0*
1,1,0.00390,0.02266,0.00888*
1,1,0.00390,0.02266,-0.00888*
1,1,0.00390,-0.02266,-0.00888*
1,1,0.00390,-0.02266,0.00888*
%
%ADD15ROUNDEDRECTD15*%
G04:AMPARAMS|DCode=16|XSize=35.43mil|YSize=68.9mil|CornerRadius=1.95mil|HoleSize=0mil|Usage=FLASHONLY|Rotation=0.000|XOffset=0mil|YOffset=0mil|HoleType=Round|Shape=RoundedRectangle|*
%AMROUNDEDRECTD16*
21,1,0.03543,0.06500,0,0,0.0*
21,1,0.03154,0.06890,0,0,0.0*
1,1,0.00390,0.01577,-0.03250*
1,1,0.00390,-0.01577,-0.03250*
1,1,0.00390,-0.01577,0.03250*
1,1,0.00390,0.01577,0.03250*
%
%ADD16ROUNDEDRECTD16*%
G04:AMPARAMS|DCode=17|XSize=125.98mil|YSize=68.9mil|CornerRadius=2.07mil|HoleSize=0mil|Usage=FLASHONLY|Rotation=0.000|XOffset=0mil|YOffset=0mil|HoleType=Round|Shape=RoundedRectangle|*
%AMROUNDEDRECTD17*
21,1,0.12598,0.06476,0,0,0.0*
21,1,0.12185,0.06890,0,0,0.0*
1,1,0.00413,0.06093,-0.03238*
1,1,0.00413,-0.06093,-0.03238*
1,1,0.00413,-0.06093,0.03238*
1,1,0.00413,0.06093,0.03238*
%
%ADD17ROUNDEDRECTD17*%
%ADD18R,0.04724X0.05709*%
%ADD19R,0.05709X0.04724*%
%ADD20R,0.05315X0.04331*%
%ADD21R,0.06693X0.03740*%
%ADD22O,0.07480X0.02362*%
%ADD23C,0.03000*%
%ADD24C,0.01400*%
%ADD25C,0.00500*%
%ADD26C,0.00591*%
%ADD27C,0.13386*%
%ADD28C,0.17716*%
%ADD29C,0.05000*%
%ADD30R,0.06299X0.06299*%
%ADD31C,0.06299*%
%ADD32R,0.06299X0.06299*%
%ADD33C,0.03937*%
G36*
X236221Y0D02*
X0D01*
Y137795D01*
X236221D01*
Y0D01*
D02*
G37*
%LPC*%
G36*
X18962Y34815D02*
X15342D01*
Y31195D01*
X15926Y31272D01*
X16935Y31690D01*
X17802Y32355D01*
X18467Y33222D01*
X18885Y34232D01*
X18962Y34815D01*
D02*
G37*
G36*
X106258Y33413D02*
X102075D01*
Y31690D01*
X104134D01*
X104985Y31859D01*
X105706Y32341D01*
X106188Y33062D01*
X106258Y33413D01*
D02*
G37*
G36*
X98925Y36235D02*
Y33307D01*
Y30379D01*
X99200Y30415D01*
X99922Y30714D01*
X100542Y31190D01*
X100926Y31690D01*
X101075D01*
Y33913D01*
Y36137D01*
X99350D01*
X99200Y36199D01*
X98925Y36235D01*
D02*
G37*
G36*
X14343Y34815D02*
X10723D01*
X10800Y34232D01*
X11218Y33222D01*
X11883Y32355D01*
X12750Y31690D01*
X13759Y31272D01*
X14343Y31195D01*
Y34815D01*
D02*
G37*
G36*
X97925Y36235D02*
X97650Y36199D01*
X96928Y35900D01*
X96308Y35424D01*
X95832Y34804D01*
X95533Y34082D01*
X95497Y33807D01*
X97925D01*
Y36235D01*
D02*
G37*
G36*
X226878Y37427D02*
Y33807D01*
X230498D01*
X230421Y34390D01*
X230003Y35400D01*
X229338Y36267D01*
X228471Y36932D01*
X227461Y37350D01*
X226878Y37427D01*
D02*
G37*
G36*
X122638Y35933D02*
X117520D01*
X116747Y35780D01*
X116091Y35342D01*
X115654Y34686D01*
X115500Y33913D01*
X115654Y33140D01*
X116091Y32485D01*
X116747Y32047D01*
X117520Y31894D01*
X122638D01*
X123411Y32047D01*
X124066Y32485D01*
X124504Y33140D01*
X124658Y33913D01*
X124504Y34686D01*
X124066Y35342D01*
X123411Y35780D01*
X122638Y35933D01*
D02*
G37*
G36*
X225878Y37427D02*
X225295Y37350D01*
X224285Y36932D01*
X223418Y36267D01*
X222753Y35400D01*
X222335Y34390D01*
X222258Y33807D01*
X225878D01*
Y37427D01*
D02*
G37*
G36*
X97925Y32807D02*
X95497D01*
X95533Y32532D01*
X95832Y31810D01*
X96308Y31190D01*
X96928Y30714D01*
X97650Y30415D01*
X97925Y30379D01*
Y32807D01*
D02*
G37*
G36*
X193398Y27673D02*
X190339D01*
Y24122D01*
X193398D01*
Y27673D01*
D02*
G37*
G36*
X59265Y42040D02*
X52940D01*
Y37387D01*
X49115Y33562D01*
X48784Y33066D01*
X48667Y32480D01*
Y32198D01*
X47035D01*
Y24889D01*
X53359D01*
Y32198D01*
X52730D01*
X52539Y32660D01*
X54611Y34732D01*
X59265D01*
Y42040D01*
D02*
G37*
G36*
X162902Y23822D02*
Y21394D01*
X165330D01*
X165294Y21669D01*
X164995Y22391D01*
X164519Y23011D01*
X163899Y23487D01*
X163177Y23786D01*
X162902Y23822D01*
D02*
G37*
G36*
X73232Y24256D02*
X69878D01*
Y21394D01*
X73232D01*
Y24256D01*
D02*
G37*
G36*
X210044Y33969D02*
X203932D01*
X203545Y33892D01*
X203217Y33673D01*
X202998Y33345D01*
X202921Y32958D01*
Y30782D01*
X202998Y30395D01*
X203217Y30067D01*
X203545Y29848D01*
X203932Y29771D01*
X210044D01*
X210431Y29848D01*
X210759Y30067D01*
X210979Y30395D01*
X211056Y30782D01*
Y32958D01*
X210979Y33345D01*
X210759Y33673D01*
X210431Y33892D01*
X210044Y33969D01*
D02*
G37*
G36*
X104134Y40933D02*
X99016D01*
X98243Y40780D01*
X97588Y40342D01*
X97321Y39943D01*
X95472D01*
X95472Y39943D01*
X94880D01*
X94295Y39826D01*
X93799Y39495D01*
X87296Y32993D01*
X87026Y32587D01*
X83838D01*
Y29872D01*
X82524D01*
Y31013D01*
X74231D01*
Y29510D01*
X73032D01*
Y31930D01*
X65724D01*
Y31360D01*
X62528D01*
X61942Y31244D01*
X61733Y31104D01*
X61233Y31371D01*
Y32198D01*
X54909D01*
Y24889D01*
X61233D01*
Y27014D01*
X61240D01*
X61825Y27130D01*
X62322Y27462D01*
X63161Y28301D01*
X65724D01*
Y25605D01*
X73032D01*
Y26451D01*
X74231D01*
Y25672D01*
X82524D01*
Y26813D01*
X83838D01*
Y25672D01*
X92918D01*
Y32587D01*
X91870D01*
X91679Y33049D01*
X95513Y36884D01*
X96323D01*
X96323Y36884D01*
X101075D01*
X101122Y36893D01*
X104134D01*
X104907Y37047D01*
X105562Y37485D01*
X106000Y38140D01*
X106154Y38913D01*
X106000Y39686D01*
X105562Y40342D01*
X104907Y40780D01*
X104134Y40933D01*
D02*
G37*
G36*
X225878Y32807D02*
X222258D01*
X222335Y32224D01*
X222753Y31214D01*
X223418Y30348D01*
X224285Y29682D01*
X225295Y29264D01*
X225878Y29188D01*
Y32807D01*
D02*
G37*
G36*
X230498D02*
X226878D01*
Y29188D01*
X227461Y29264D01*
X228471Y29682D01*
X229338Y30348D01*
X230003Y31214D01*
X230421Y32224D01*
X230498Y32807D01*
D02*
G37*
G36*
X37557Y53386D02*
X33026D01*
X32637Y53309D01*
X32308Y53089D01*
X32258Y53014D01*
X28543D01*
X27958Y52897D01*
X27462Y52566D01*
X21741Y46844D01*
X18792D01*
Y49265D01*
X10893D01*
Y41365D01*
X18792D01*
Y43786D01*
X22374D01*
X22959Y43902D01*
X23456Y44234D01*
X29177Y49955D01*
X32258D01*
X32308Y49879D01*
X32637Y49659D01*
X33026Y49582D01*
X37557D01*
X37945Y49659D01*
X38274Y49879D01*
X38494Y50208D01*
X38571Y50596D01*
Y52372D01*
X38494Y52760D01*
X38274Y53089D01*
X37945Y53309D01*
X37557Y53386D01*
D02*
G37*
G36*
X76870Y61801D02*
X64961D01*
X64101Y61630D01*
X60909D01*
Y59033D01*
X55961D01*
X54985Y58839D01*
X54613Y58590D01*
X53695D01*
X53229Y58498D01*
X52833Y58233D01*
X52569Y57838D01*
X52477Y57372D01*
Y55597D01*
X52569Y55130D01*
X52833Y54735D01*
X53229Y54471D01*
X53695Y54378D01*
X54613D01*
X54985Y54129D01*
X55961Y53935D01*
X62193D01*
X63168Y54129D01*
X63741Y54512D01*
X69012D01*
Y56703D01*
X75814D01*
X78906Y53611D01*
X79733Y53058D01*
X80709Y52864D01*
X100919D01*
X101581Y52356D01*
X102433Y52004D01*
X103347Y51883D01*
X104260Y52004D01*
X105112Y52356D01*
X105843Y52917D01*
X106404Y53648D01*
X106756Y54500D01*
X106877Y55413D01*
X106756Y56327D01*
X106404Y57178D01*
X105843Y57910D01*
X105112Y58471D01*
X104260Y58823D01*
X103347Y58944D01*
X102433Y58823D01*
X101581Y58471D01*
X100919Y57962D01*
X81765D01*
X78672Y61054D01*
X77846Y61607D01*
X76870Y61801D01*
D02*
G37*
G36*
X104134Y50933D02*
X99016D01*
X98243Y50779D01*
X97588Y50342D01*
X97150Y49686D01*
X96996Y48913D01*
X97150Y48140D01*
X97588Y47485D01*
X98243Y47047D01*
X99016Y46894D01*
X104134D01*
X104907Y47047D01*
X105562Y47485D01*
X106000Y48140D01*
X106154Y48913D01*
X106000Y49686D01*
X105562Y50342D01*
X104907Y50779D01*
X104134Y50933D01*
D02*
G37*
G36*
X37557Y48590D02*
X35791D01*
Y46984D01*
X38775D01*
Y47372D01*
X38683Y47838D01*
X38418Y48234D01*
X38023Y48498D01*
X37557Y48590D01*
D02*
G37*
G36*
X58226Y63386D02*
X53695D01*
X53307Y63309D01*
X52978Y63089D01*
X52758Y62760D01*
X52680Y62372D01*
Y60597D01*
X52758Y60208D01*
X52978Y59879D01*
X53307Y59659D01*
X53695Y59582D01*
X58226D01*
X58614Y59659D01*
X58944Y59879D01*
X59163Y60208D01*
X59241Y60597D01*
Y62372D01*
X59163Y62760D01*
X58944Y63089D01*
X58614Y63309D01*
X58226Y63386D01*
D02*
G37*
G36*
X92729Y77473D02*
X86405D01*
Y70165D01*
X91058D01*
X96247Y64976D01*
Y60322D01*
X102572D01*
Y67631D01*
X97918D01*
X92729Y72820D01*
Y77473D01*
D02*
G37*
G36*
X217035Y61983D02*
Y59055D01*
X216035D01*
Y61983D01*
X215760Y61947D01*
X215038Y61648D01*
X214418Y61172D01*
X213943Y60552D01*
X213737Y60055D01*
X212878D01*
Y57390D01*
X220193D01*
Y60055D01*
X219334D01*
X219128Y60552D01*
X218653Y61172D01*
X218033Y61648D01*
X217310Y61947D01*
X217035Y61983D01*
D02*
G37*
G36*
X37557Y63386D02*
X33026D01*
X32637Y63309D01*
X32308Y63089D01*
X32088Y62760D01*
X32011Y62372D01*
Y60597D01*
X32088Y60208D01*
X32308Y59879D01*
X32637Y59659D01*
X33026Y59582D01*
X37557D01*
X37945Y59659D01*
X38274Y59879D01*
X38494Y60208D01*
X38571Y60597D01*
Y62372D01*
X38494Y62760D01*
X38274Y63089D01*
X37945Y63309D01*
X37557Y63386D01*
D02*
G37*
G36*
X187800Y48969D02*
X181688D01*
X181301Y48892D01*
X180973Y48673D01*
X180754Y48345D01*
X180677Y47958D01*
Y45783D01*
X180754Y45395D01*
X180973Y45067D01*
X181301Y44848D01*
X181688Y44771D01*
X187800D01*
X188187Y44848D01*
X188515Y45067D01*
X188735Y45395D01*
X188812Y45783D01*
Y47958D01*
X188735Y48345D01*
X188515Y48673D01*
X188187Y48892D01*
X187800Y48969D01*
D02*
G37*
G36*
X14343Y39435D02*
X13759Y39358D01*
X12750Y38940D01*
X11883Y38274D01*
X11218Y37408D01*
X10800Y36398D01*
X10723Y35815D01*
X14343D01*
Y39435D01*
D02*
G37*
G36*
X15342D02*
Y35815D01*
X18962D01*
X18885Y36398D01*
X18467Y37408D01*
X17802Y38274D01*
X16935Y38940D01*
X15926Y39358D01*
X15342Y39435D01*
D02*
G37*
G36*
X104134Y36137D02*
X102075D01*
Y34413D01*
X106258D01*
X106188Y34764D01*
X105706Y35486D01*
X104985Y35968D01*
X104134Y36137D01*
D02*
G37*
G36*
X37557Y58386D02*
X33026D01*
X32637Y58309D01*
X32308Y58089D01*
X32088Y57760D01*
X32011Y57372D01*
Y55597D01*
X32088Y55208D01*
X32308Y54879D01*
X32637Y54659D01*
X33026Y54582D01*
X37557D01*
X37945Y54659D01*
X38274Y54879D01*
X38325Y54955D01*
X42492D01*
X47045Y50403D01*
X47541Y50071D01*
X48126Y49955D01*
X52927D01*
X52978Y49879D01*
X53307Y49659D01*
X53695Y49582D01*
X58226D01*
X58614Y49659D01*
X58944Y49879D01*
X58994Y49955D01*
X65992D01*
X67368Y48579D01*
Y43941D01*
X65468Y42040D01*
X60814D01*
Y34732D01*
X67139D01*
Y39385D01*
X69979Y42226D01*
X70311Y42722D01*
X70427Y43307D01*
Y49213D01*
X70311Y49798D01*
X69979Y50294D01*
X67707Y52566D01*
X67211Y52897D01*
X66626Y53014D01*
X58994D01*
X58944Y53089D01*
X58614Y53309D01*
X58226Y53386D01*
X53695D01*
X53307Y53309D01*
X52978Y53089D01*
X52927Y53014D01*
X48759D01*
X44207Y57566D01*
X43711Y57897D01*
X43126Y58014D01*
X38325D01*
X38274Y58089D01*
X37945Y58309D01*
X37557Y58386D01*
D02*
G37*
G36*
X34791Y48590D02*
X33026D01*
X32559Y48498D01*
X32227Y48276D01*
X31705Y48207D01*
X30983Y47908D01*
X30363Y47432D01*
X29887Y46812D01*
X29588Y46090D01*
X29552Y45815D01*
X32480D01*
Y45315D01*
X32980D01*
Y42387D01*
X33255Y42423D01*
X33977Y42722D01*
X34598Y43198D01*
X35073Y43818D01*
X35305Y44378D01*
X37557D01*
X38023Y44471D01*
X38418Y44735D01*
X38683Y45130D01*
X38775Y45597D01*
Y45984D01*
X35291D01*
Y46484D01*
X34791D01*
Y48590D01*
D02*
G37*
G36*
X58226Y48386D02*
X53695D01*
X53307Y48309D01*
X52978Y48089D01*
X52758Y47760D01*
X52680Y47372D01*
Y45597D01*
X52758Y45208D01*
X52978Y44879D01*
X53307Y44659D01*
X53695Y44582D01*
X58226D01*
X58614Y44659D01*
X58944Y44879D01*
X59163Y45208D01*
X59241Y45597D01*
Y47372D01*
X59163Y47760D01*
X58944Y48089D01*
X58614Y48309D01*
X58226Y48386D01*
D02*
G37*
G36*
X146496Y85179D02*
X145635Y85065D01*
X144832Y84733D01*
X144142Y84204D01*
X143614Y83515D01*
X143281Y82712D01*
X143168Y81850D01*
X143281Y80989D01*
X143614Y80186D01*
X144142Y79497D01*
X144832Y78968D01*
X144967Y78912D01*
Y59689D01*
X141478Y56200D01*
X141146Y55703D01*
X141030Y55118D01*
Y43024D01*
X139397D01*
Y40900D01*
X132071D01*
X131902Y41399D01*
X132417Y41795D01*
X132978Y42526D01*
X133331Y43378D01*
X133451Y44291D01*
X133331Y45205D01*
X133232Y45443D01*
Y50004D01*
Y52669D01*
X129575D01*
Y53669D01*
X133232D01*
Y56335D01*
X132284D01*
X132168Y56615D01*
X131692Y57235D01*
X131072Y57711D01*
X130350Y58010D01*
X130075Y58046D01*
Y55118D01*
X129075D01*
Y58046D01*
X128800Y58010D01*
X128078Y57711D01*
X127458Y57235D01*
X126982Y56615D01*
X126866Y56335D01*
X125917Y56335D01*
X125611Y56708D01*
X125457Y57078D01*
X124928Y57767D01*
X124239Y58296D01*
X123436Y58628D01*
X122575Y58742D01*
X121713Y58628D01*
X120911Y58296D01*
X120221Y57767D01*
X119692Y57078D01*
X119360Y56275D01*
X119246Y55413D01*
X119360Y54552D01*
X119692Y53749D01*
X120221Y53060D01*
X120911Y52531D01*
X120963Y52509D01*
X121016Y52013D01*
X119936Y50933D01*
X117520D01*
X116747Y50779D01*
X116091Y50342D01*
X115654Y49686D01*
X115500Y48913D01*
X115654Y48140D01*
X116091Y47485D01*
X116747Y47047D01*
X117520Y46894D01*
X118847D01*
X118999Y46413D01*
X118716Y46137D01*
X117520D01*
X116669Y45968D01*
X115947Y45486D01*
X115465Y44764D01*
X115296Y43913D01*
X115465Y43062D01*
X115947Y42341D01*
X116669Y41859D01*
X117520Y41690D01*
X118907D01*
X119103Y41558D01*
X119732Y41433D01*
X119683Y40933D01*
X117520D01*
X116747Y40780D01*
X116091Y40342D01*
X115654Y39686D01*
X115500Y38913D01*
X115654Y38140D01*
X116091Y37485D01*
X116747Y37047D01*
X117520Y36893D01*
X122638D01*
X123411Y37047D01*
X124066Y37485D01*
X124304Y37841D01*
X139397D01*
Y35716D01*
X145721D01*
Y43024D01*
X144088D01*
Y54485D01*
X147578Y57974D01*
X147909Y58470D01*
X148026Y59055D01*
Y78912D01*
X148160Y78968D01*
X148850Y79497D01*
X149379Y80186D01*
X149711Y80989D01*
X149825Y81850D01*
X149711Y82712D01*
X149379Y83515D01*
X148850Y84204D01*
X148160Y84733D01*
X147357Y85065D01*
X146496Y85179D01*
D02*
G37*
G36*
X31980Y44815D02*
X29552D01*
X29588Y44540D01*
X29887Y43818D01*
X30363Y43198D01*
X30983Y42722D01*
X31705Y42423D01*
X31980Y42387D01*
Y44815D01*
D02*
G37*
G36*
X161902Y23822D02*
X161627Y23786D01*
X160905Y23487D01*
X160284Y23011D01*
X159809Y22391D01*
X159510Y21669D01*
X159473Y21394D01*
X161902D01*
Y23822D01*
D02*
G37*
G36*
X176665Y13280D02*
X174237D01*
X174273Y13005D01*
X174572Y12282D01*
X175048Y11662D01*
X175668Y11186D01*
X176390Y10887D01*
X176665Y10851D01*
Y13280D01*
D02*
G37*
G36*
X180094D02*
X177665D01*
Y10851D01*
X177940Y10887D01*
X178662Y11186D01*
X179282Y11662D01*
X179758Y12282D01*
X180057Y13005D01*
X180094Y13280D01*
D02*
G37*
G36*
X143059Y12771D02*
Y10343D01*
X145487D01*
X145451Y10617D01*
X145152Y11340D01*
X144676Y11960D01*
X144056Y12436D01*
X143334Y12735D01*
X143059Y12771D01*
D02*
G37*
G36*
X93118Y16032D02*
X88378D01*
X83638D01*
Y12874D01*
X85540D01*
X85785Y12282D01*
X86261Y11662D01*
X86881Y11186D01*
X87603Y10887D01*
X87878Y10851D01*
Y13780D01*
X88878D01*
Y10851D01*
X89153Y10887D01*
X89875Y11186D01*
X90495Y11662D01*
X90971Y12282D01*
X91216Y12874D01*
X93118D01*
Y16032D01*
D02*
G37*
G36*
X177665Y16708D02*
Y14279D01*
X180094D01*
X180057Y14555D01*
X179758Y15277D01*
X179282Y15897D01*
X178662Y16373D01*
X177940Y16672D01*
X177665Y16708D01*
D02*
G37*
G36*
X73232Y20394D02*
X69378D01*
X65524D01*
Y17531D01*
X66408D01*
X66486Y16942D01*
X66785Y16219D01*
X67261Y15599D01*
X67881Y15124D01*
X68603Y14824D01*
X68878Y14788D01*
Y17717D01*
X69878D01*
Y14788D01*
X70153Y14824D01*
X70875Y15124D01*
X71495Y15599D01*
X71971Y16219D01*
X72270Y16942D01*
X72348Y17531D01*
X73232D01*
Y20394D01*
D02*
G37*
G36*
X82724Y16819D02*
X78378D01*
X74032D01*
Y14449D01*
X75425D01*
X75486Y13989D01*
X75785Y13267D01*
X76261Y12647D01*
X76881Y12171D01*
X77603Y11872D01*
X77878Y11835D01*
Y14764D01*
X78878D01*
Y11835D01*
X79153Y11872D01*
X79875Y12171D01*
X80495Y12647D01*
X80971Y13267D01*
X81270Y13989D01*
X81331Y14449D01*
X82724D01*
Y16819D01*
D02*
G37*
G36*
X176665Y16708D02*
X176390Y16672D01*
X175668Y16373D01*
X175048Y15897D01*
X174572Y15277D01*
X174273Y14555D01*
X174237Y14279D01*
X176665D01*
Y16708D01*
D02*
G37*
G36*
X142059Y12771D02*
X141784Y12735D01*
X141062Y12436D01*
X140442Y11960D01*
X139966Y11340D01*
X139667Y10617D01*
X139631Y10343D01*
X142059D01*
Y12771D01*
D02*
G37*
G36*
X36902Y9342D02*
X34473D01*
X34510Y9068D01*
X34809Y8345D01*
X35284Y7725D01*
X35904Y7249D01*
X36627Y6950D01*
X36902Y6914D01*
Y9342D01*
D02*
G37*
G36*
X40330D02*
X37902D01*
Y6914D01*
X38177Y6950D01*
X38899Y7249D01*
X39519Y7725D01*
X39994Y8345D01*
X40294Y9068D01*
X40330Y9342D01*
D02*
G37*
G36*
X9843Y17372D02*
X8374Y17227D01*
X6961Y16799D01*
X5660Y16103D01*
X4519Y15166D01*
X3582Y14026D01*
X2887Y12724D01*
X2458Y11311D01*
X2313Y9843D01*
X2458Y8374D01*
X2887Y6961D01*
X3582Y5660D01*
X4519Y4519D01*
X5660Y3582D01*
X6961Y2887D01*
X8374Y2458D01*
X9843Y2313D01*
X11311Y2458D01*
X12724Y2887D01*
X14026Y3582D01*
X15166Y4519D01*
X16103Y5660D01*
X16799Y6961D01*
X17227Y8374D01*
X17372Y9843D01*
X17227Y11311D01*
X16799Y12724D01*
X16103Y14026D01*
X15166Y15166D01*
X14026Y16103D01*
X12724Y16799D01*
X11311Y17227D01*
X9843Y17372D01*
D02*
G37*
G36*
X226378D02*
X224909Y17227D01*
X223497Y16799D01*
X222195Y16103D01*
X221054Y15166D01*
X220118Y14026D01*
X219422Y12724D01*
X218993Y11311D01*
X218849Y9843D01*
X218993Y8374D01*
X219422Y6961D01*
X220118Y5660D01*
X221054Y4519D01*
X222195Y3582D01*
X223497Y2887D01*
X224909Y2458D01*
X226378Y2313D01*
X227847Y2458D01*
X229259Y2887D01*
X230561Y3582D01*
X231702Y4519D01*
X232638Y5660D01*
X233334Y6961D01*
X233762Y8374D01*
X233907Y9843D01*
X233762Y11311D01*
X233334Y12724D01*
X232638Y14026D01*
X231702Y15166D01*
X230561Y16103D01*
X229259Y16799D01*
X227847Y17227D01*
X226378Y17372D01*
D02*
G37*
G36*
X36902Y12771D02*
X36627Y12735D01*
X35904Y12436D01*
X35284Y11960D01*
X34809Y11340D01*
X34510Y10617D01*
X34473Y10343D01*
X36902D01*
Y12771D01*
D02*
G37*
G36*
X37902D02*
Y10343D01*
X40330D01*
X40294Y10617D01*
X39994Y11340D01*
X39519Y11960D01*
X38899Y12436D01*
X38177Y12735D01*
X37902Y12771D01*
D02*
G37*
G36*
X142059Y9342D02*
X139631D01*
X139667Y9068D01*
X139966Y8345D01*
X140442Y7725D01*
X141062Y7249D01*
X141784Y6950D01*
X142059Y6914D01*
Y9342D01*
D02*
G37*
G36*
X145487D02*
X143059D01*
Y6914D01*
X143334Y6950D01*
X144056Y7249D01*
X144676Y7725D01*
X145152Y8345D01*
X145451Y9068D01*
X145487Y9342D01*
D02*
G37*
G36*
X197457Y27673D02*
X194398D01*
Y23622D01*
Y19571D01*
X197457D01*
Y20708D01*
X197625Y20730D01*
X198347Y21029D01*
X198968Y21505D01*
X199443Y22125D01*
X199742Y22847D01*
X199779Y23122D01*
X196850D01*
Y24122D01*
X199779D01*
X199742Y24397D01*
X199443Y25119D01*
X198968Y25739D01*
X198347Y26215D01*
X197625Y26514D01*
X197457Y26536D01*
Y27673D01*
D02*
G37*
G36*
X107768Y22613D02*
X107493Y22577D01*
X106771Y22278D01*
X106151Y21802D01*
X105675Y21182D01*
X105376Y20460D01*
X105339Y20185D01*
X107768D01*
Y22613D01*
D02*
G37*
G36*
X165330Y20394D02*
X162902D01*
Y17965D01*
X163177Y18002D01*
X163899Y18301D01*
X164519Y18777D01*
X164995Y19397D01*
X165294Y20119D01*
X165330Y20394D01*
D02*
G37*
G36*
X193398Y23122D02*
X190339D01*
Y19571D01*
X193398D01*
Y23122D01*
D02*
G37*
G36*
X205224Y23598D02*
Y21169D01*
X207653D01*
X207616Y21444D01*
X207317Y22166D01*
X206842Y22786D01*
X206222Y23262D01*
X205499Y23561D01*
X205224Y23598D01*
D02*
G37*
G36*
X68878Y24256D02*
X65524D01*
Y21394D01*
X68878D01*
Y24256D01*
D02*
G37*
G36*
X108768Y22613D02*
Y20185D01*
X111196D01*
X111160Y20460D01*
X110861Y21182D01*
X110385Y21802D01*
X109765Y22278D01*
X109043Y22577D01*
X108768Y22613D01*
D02*
G37*
G36*
X204224Y23598D02*
X203949Y23561D01*
X203227Y23262D01*
X202607Y22786D01*
X202131Y22166D01*
X201832Y21444D01*
X201796Y21169D01*
X204224D01*
Y23598D01*
D02*
G37*
G36*
X161902Y20394D02*
X159473D01*
X159510Y20119D01*
X159809Y19397D01*
X160284Y18777D01*
X160905Y18301D01*
X161627Y18002D01*
X161902Y17965D01*
Y20394D01*
D02*
G37*
G36*
X87878Y20189D02*
X83638D01*
Y17031D01*
X87878D01*
Y20189D01*
D02*
G37*
G36*
X93118D02*
X88878D01*
Y17031D01*
X93118D01*
Y20189D01*
D02*
G37*
G36*
X107768Y19185D02*
X105339D01*
X105376Y18910D01*
X105675Y18188D01*
X106151Y17568D01*
X106771Y17092D01*
X107493Y16793D01*
X107768Y16757D01*
Y19185D01*
D02*
G37*
G36*
X111196D02*
X108768D01*
Y16757D01*
X109043Y16793D01*
X109765Y17092D01*
X110385Y17568D01*
X110861Y18188D01*
X111160Y18910D01*
X111196Y19185D01*
D02*
G37*
G36*
X77878Y20189D02*
X74032D01*
Y17819D01*
X77878D01*
Y20189D01*
D02*
G37*
G36*
X82724D02*
X78878D01*
Y17819D01*
X82724D01*
Y20189D01*
D02*
G37*
G36*
X204224Y20169D02*
X201796D01*
X201832Y19894D01*
X202131Y19172D01*
X202607Y18552D01*
X203227Y18076D01*
X203949Y17777D01*
X204224Y17741D01*
Y20169D01*
D02*
G37*
G36*
X207653D02*
X205224D01*
Y17741D01*
X205499Y17777D01*
X206222Y18076D01*
X206842Y18552D01*
X207317Y19172D01*
X207616Y19894D01*
X207653Y20169D01*
D02*
G37*
G36*
X224909Y119070D02*
Y116642D01*
X227338D01*
X227302Y116917D01*
X227002Y117639D01*
X226527Y118259D01*
X225906Y118735D01*
X225184Y119034D01*
X224909Y119070D01*
D02*
G37*
G36*
X18201Y120054D02*
X17926Y120018D01*
X17204Y119719D01*
X16584Y119243D01*
X16108Y118623D01*
X15809Y117901D01*
X15773Y117626D01*
X18201D01*
Y120054D01*
D02*
G37*
G36*
X137799Y136344D02*
X124000D01*
X123415Y136228D01*
X122919Y135896D01*
X119419Y132396D01*
X119087Y131900D01*
X118984Y131383D01*
X118923D01*
X118535Y131305D01*
X118206Y131085D01*
X117986Y130756D01*
X117909Y130368D01*
Y123868D01*
X117986Y123480D01*
X118206Y123151D01*
X118535Y122931D01*
X118923Y122854D01*
X122077D01*
X122465Y122931D01*
X122794Y123151D01*
X123014Y123480D01*
X123091Y123868D01*
Y130368D01*
X123014Y130756D01*
X122794Y131085D01*
X122762Y131414D01*
X124634Y133286D01*
X131009D01*
X131115Y132813D01*
X130393Y132514D01*
X129773Y132038D01*
X129426Y131586D01*
X127978D01*
X127512Y131494D01*
X127117Y131230D01*
X126853Y130834D01*
X126760Y130368D01*
Y127618D01*
X129555D01*
Y127118D01*
X130055D01*
Y122650D01*
X131132D01*
X131598Y122743D01*
X131993Y123007D01*
X132257Y123402D01*
X132350Y123868D01*
Y126988D01*
X132665Y127029D01*
X133387Y127328D01*
X134007Y127804D01*
X134483Y128424D01*
X134782Y129146D01*
X134818Y129421D01*
X131890D01*
Y130421D01*
X134818D01*
X134782Y130696D01*
X134483Y131418D01*
X134007Y132038D01*
X133387Y132514D01*
X132665Y132813D01*
X132771Y133286D01*
X137166D01*
X142503Y127948D01*
X142454Y127830D01*
X142341Y126969D01*
X142454Y126107D01*
X142787Y125304D01*
X143316Y124615D01*
X144005Y124086D01*
X144808Y123753D01*
X145669Y123640D01*
X146531Y123753D01*
X146649Y123802D01*
X147460Y122991D01*
Y117427D01*
X147460Y117157D01*
X147055Y116927D01*
X144685D01*
X143710Y116733D01*
X142883Y116180D01*
X142440Y115738D01*
X120150D01*
X113994Y121894D01*
Y123172D01*
X114147Y123402D01*
X114240Y123868D01*
Y130368D01*
X114147Y130834D01*
X113883Y131230D01*
X113488Y131494D01*
X113022Y131586D01*
X109868D01*
X109402Y131494D01*
X109007Y131230D01*
X108743Y130834D01*
X108650Y130368D01*
Y130142D01*
X108201Y129921D01*
X108064Y130026D01*
X107213Y130378D01*
X106299Y130499D01*
X105385Y130378D01*
X104534Y130026D01*
X103803Y129465D01*
X103242Y128734D01*
X102889Y127882D01*
X102849Y127576D01*
X102719Y126921D01*
X102886Y126081D01*
X102889Y126055D01*
X102893Y126047D01*
X102913Y125946D01*
X102970Y125860D01*
X103242Y125203D01*
X103803Y124472D01*
X104534Y123911D01*
X105385Y123559D01*
X106299Y123438D01*
X107213Y123559D01*
X108064Y123911D01*
X108210Y124023D01*
X108674Y123749D01*
X108743Y123402D01*
X108896Y123172D01*
Y120839D01*
X109090Y119863D01*
X109643Y119036D01*
X116451Y112227D01*
X116260Y111766D01*
X104934D01*
Y113103D01*
X97203D01*
X96842Y113574D01*
X96152Y114103D01*
X95350Y114436D01*
X94488Y114549D01*
X93627Y114436D01*
X92824Y114103D01*
X92135Y113574D01*
X91606Y112885D01*
X91273Y112082D01*
X91160Y111221D01*
X91273Y110359D01*
X91606Y109556D01*
X92135Y108867D01*
X92824Y108338D01*
X93627Y108005D01*
X94488Y107892D01*
X95350Y108005D01*
X95438Y108042D01*
X95854Y107764D01*
Y106188D01*
X104934D01*
Y108707D01*
X116988D01*
X117184Y108576D01*
X117769Y108460D01*
X129535D01*
X139667Y98328D01*
X140163Y97996D01*
X140748Y97880D01*
X160712D01*
X160847Y97556D01*
X160853Y97380D01*
X160284Y96944D01*
X159809Y96324D01*
X159510Y95602D01*
X159473Y95327D01*
X165330D01*
X165294Y95602D01*
X164995Y96324D01*
X164519Y96944D01*
X163950Y97380D01*
X163956Y97556D01*
X164092Y97880D01*
X173228D01*
X173814Y97996D01*
X174310Y98328D01*
X180008Y104026D01*
X182369D01*
Y102393D01*
X189678D01*
X189678Y102393D01*
Y102393D01*
X190093Y102185D01*
X191384Y100894D01*
Y89567D01*
X191500Y88982D01*
X191832Y88485D01*
X200585Y79733D01*
Y70858D01*
X189670Y59943D01*
X180461D01*
X179875Y59826D01*
X179379Y59495D01*
X173131Y53247D01*
X172800Y52751D01*
X172683Y52165D01*
Y48253D01*
X172548Y48197D01*
X171859Y47668D01*
X171477Y47171D01*
X170977Y47341D01*
Y49422D01*
X163669D01*
Y44768D01*
X159800Y40900D01*
X153595D01*
Y43024D01*
X147271D01*
Y35716D01*
X153595D01*
Y37841D01*
X160174D01*
X162226Y35789D01*
X162722Y35457D01*
X163307Y35341D01*
X174630D01*
X174729Y34841D01*
X174517Y34753D01*
X173828Y34224D01*
X173299Y33534D01*
X172966Y32732D01*
X172853Y31870D01*
X172966Y31009D01*
X173299Y30206D01*
X173828Y29517D01*
X174517Y28988D01*
X175320Y28655D01*
X176181Y28542D01*
X177043Y28655D01*
X177845Y28988D01*
X178535Y29517D01*
X179064Y30206D01*
X179120Y30341D01*
X180790D01*
X180973Y30067D01*
X181301Y29848D01*
X181688Y29771D01*
X183215D01*
Y27473D01*
X182665D01*
Y19771D01*
X189383D01*
Y27473D01*
X186274D01*
Y29771D01*
X187800D01*
X188187Y29848D01*
X188515Y30067D01*
X188735Y30395D01*
X188812Y30782D01*
Y32958D01*
X188735Y33345D01*
X188515Y33673D01*
X188187Y33892D01*
X187800Y33969D01*
X181688D01*
X181301Y33892D01*
X180973Y33673D01*
X180790Y33400D01*
X179120D01*
X179064Y33534D01*
X178535Y34224D01*
X177845Y34753D01*
X177633Y34841D01*
X177732Y35341D01*
X180790D01*
X180973Y35067D01*
X181301Y34848D01*
X181688Y34771D01*
X187800D01*
X188187Y34848D01*
X188515Y35067D01*
X188735Y35395D01*
X188812Y35783D01*
Y37958D01*
X188735Y38345D01*
X188515Y38673D01*
X188187Y38892D01*
X187800Y38969D01*
X181688D01*
X181301Y38892D01*
X180973Y38673D01*
X180790Y38399D01*
X163941D01*
X162783Y39557D01*
X166323Y43098D01*
X170977D01*
Y43289D01*
X171477Y43459D01*
X171859Y42961D01*
X172548Y42432D01*
X173351Y42100D01*
X174213Y41987D01*
X175074Y42100D01*
X175877Y42432D01*
X176566Y42961D01*
X177095Y43651D01*
X177428Y44453D01*
X177541Y45315D01*
X177428Y46176D01*
X177095Y46979D01*
X176566Y47668D01*
X175877Y48197D01*
X175742Y48253D01*
Y51532D01*
X181094Y56884D01*
X190303D01*
X190888Y57000D01*
X191385Y57332D01*
X203196Y69143D01*
X203527Y69639D01*
X203644Y70224D01*
Y80366D01*
X203527Y80951D01*
X203196Y81448D01*
X194443Y90200D01*
Y101528D01*
X194326Y102113D01*
X193995Y102609D01*
X189967Y106637D01*
X189678Y106830D01*
Y108717D01*
X182369D01*
Y107085D01*
X179374D01*
X178789Y106968D01*
X178293Y106637D01*
X172595Y100939D01*
X153100D01*
X153067Y101439D01*
X153275Y101466D01*
X153997Y101765D01*
X154617Y102241D01*
X155093Y102861D01*
X155392Y103583D01*
X155494Y104358D01*
X156740D01*
Y107516D01*
X152000D01*
X147260D01*
Y104358D01*
X149506D01*
X149608Y103583D01*
X149907Y102861D01*
X150383Y102241D01*
X151003Y101765D01*
X151725Y101466D01*
X151933Y101439D01*
X151900Y100939D01*
X141382D01*
X132142Y110178D01*
X132334Y110640D01*
X143496D01*
X144472Y110834D01*
X145299Y111387D01*
X145741Y111829D01*
X146824D01*
X147260Y111673D01*
X147260Y111329D01*
Y108516D01*
X152000D01*
X156740D01*
Y111329D01*
X156740Y111673D01*
X157176Y111829D01*
X159172D01*
X159853Y111149D01*
Y108268D01*
X160047Y107292D01*
X160599Y106465D01*
X162568Y104497D01*
X163395Y103944D01*
X164370Y103750D01*
X173228D01*
X174204Y103944D01*
X175031Y104497D01*
X181174Y110640D01*
X190873D01*
X197761Y103753D01*
X198588Y103200D01*
X199563Y103006D01*
X203134D01*
Y102193D01*
X210842D01*
Y103006D01*
X212287D01*
X220876Y94417D01*
Y80780D01*
X195048Y54952D01*
X194495Y54125D01*
X194301Y53150D01*
Y44291D01*
X194495Y43316D01*
X195048Y42489D01*
X197469Y40068D01*
X198296Y39515D01*
X199272Y39321D01*
X203334D01*
X203439Y38821D01*
X203217Y38673D01*
X203034Y38399D01*
X195063D01*
X190511Y42952D01*
X190014Y43283D01*
X189429Y43400D01*
X188698D01*
X188515Y43673D01*
X188187Y43892D01*
X187800Y43969D01*
X181688D01*
X181301Y43892D01*
X180973Y43673D01*
X180754Y43345D01*
X180677Y42958D01*
Y40782D01*
X180754Y40395D01*
X180973Y40067D01*
X181301Y39848D01*
X181688Y39771D01*
X187800D01*
X188187Y39848D01*
X188515Y40067D01*
X189098Y40039D01*
X193348Y35789D01*
X193844Y35457D01*
X194429Y35341D01*
X203034D01*
X203217Y35067D01*
X203545Y34848D01*
X203932Y34771D01*
X210044D01*
X210431Y34848D01*
X210759Y35067D01*
X210942Y35341D01*
X214825D01*
X215411Y35457D01*
X215907Y35789D01*
X221896Y41778D01*
X222428D01*
Y39358D01*
X230328D01*
Y47257D01*
X222428D01*
Y44837D01*
X221262D01*
X220677Y44720D01*
X220181Y44388D01*
X214192Y38399D01*
X210942D01*
X210759Y38673D01*
X210538Y38821D01*
X210642Y39321D01*
X212709D01*
X213684Y39515D01*
X214511Y40068D01*
X218338Y43894D01*
X218890Y44721D01*
X219084Y45697D01*
Y48213D01*
X220193D01*
Y53724D01*
Y56390D01*
X212878D01*
Y53724D01*
Y48213D01*
X213986D01*
Y46753D01*
X211653Y44419D01*
X210642D01*
X210538Y44919D01*
X210759Y45067D01*
X210979Y45395D01*
X211056Y45783D01*
Y47958D01*
X210979Y48345D01*
X210759Y48673D01*
X210431Y48892D01*
X210044Y48969D01*
X203932D01*
X203545Y48892D01*
X203217Y48673D01*
X202998Y48345D01*
X202921Y47958D01*
Y45783D01*
X202998Y45395D01*
X203217Y45067D01*
X203439Y44919D01*
X203334Y44419D01*
X200327D01*
X199399Y45347D01*
Y52094D01*
X225228Y77922D01*
X225780Y78749D01*
X225974Y79724D01*
Y95472D01*
X225780Y96448D01*
X225228Y97275D01*
X215145Y107358D01*
X214318Y107910D01*
X213342Y108104D01*
X210842D01*
Y108917D01*
X203134D01*
Y108104D01*
X200619D01*
X193731Y114991D01*
X192905Y115544D01*
X191929Y115738D01*
X180118D01*
X179143Y115544D01*
X178316Y114991D01*
X172172Y108848D01*
X171552D01*
X171305Y109348D01*
X171593Y109723D01*
X171892Y110445D01*
X171941Y110819D01*
X173051D01*
Y113878D01*
X169000D01*
X164949D01*
Y113792D01*
X164449Y113641D01*
X164204Y114007D01*
X162031Y116180D01*
X161204Y116733D01*
X160228Y116927D01*
X156945D01*
X156540Y117157D01*
X156540Y117427D01*
Y121786D01*
X165149D01*
Y118893D01*
X172851D01*
Y121786D01*
X190500D01*
X191085Y121902D01*
X191581Y122233D01*
X192581Y123233D01*
X192913Y123730D01*
X193029Y124315D01*
Y126865D01*
X195450D01*
Y134765D01*
X187550D01*
Y126865D01*
X189971D01*
Y124949D01*
X189866Y124844D01*
X172851D01*
Y125611D01*
X165149D01*
Y124844D01*
X154701D01*
X154115Y124728D01*
X153619Y124396D01*
X153295Y124072D01*
X150705D01*
X148822Y125955D01*
X148884Y126107D01*
X148998Y126969D01*
X148884Y127830D01*
X148552Y128633D01*
X148023Y129322D01*
X147334Y129851D01*
X146531Y130184D01*
X145669Y130297D01*
X144808Y130184D01*
X144656Y130121D01*
X138881Y135896D01*
X138384Y136228D01*
X137799Y136344D01*
D02*
G37*
G36*
X223909Y119070D02*
X223635Y119034D01*
X222912Y118735D01*
X222292Y118259D01*
X221816Y117639D01*
X221517Y116917D01*
X221481Y116642D01*
X223909D01*
Y119070D01*
D02*
G37*
G36*
X226378Y135482D02*
X224909Y135337D01*
X223497Y134909D01*
X222195Y134213D01*
X221054Y133277D01*
X220118Y132136D01*
X219422Y130834D01*
X218993Y129422D01*
X218849Y127953D01*
X218993Y126484D01*
X219422Y125072D01*
X220118Y123770D01*
X221054Y122629D01*
X222195Y121693D01*
X223497Y120997D01*
X224909Y120568D01*
X226378Y120424D01*
X227847Y120568D01*
X229259Y120997D01*
X230561Y121693D01*
X231702Y122629D01*
X232638Y123770D01*
X233334Y125072D01*
X233762Y126484D01*
X233907Y127953D01*
X233762Y129422D01*
X233334Y130834D01*
X232638Y132136D01*
X231702Y133277D01*
X230561Y134213D01*
X229259Y134909D01*
X227847Y135337D01*
X226378Y135482D01*
D02*
G37*
G36*
X129055Y126618D02*
X126760D01*
Y123868D01*
X126853Y123402D01*
X127117Y123007D01*
X127512Y122743D01*
X127978Y122650D01*
X129055D01*
Y126618D01*
D02*
G37*
G36*
X19201Y120054D02*
Y117626D01*
X21629D01*
X21593Y117901D01*
X21294Y118623D01*
X20818Y119243D01*
X20198Y119719D01*
X19476Y120018D01*
X19201Y120054D01*
D02*
G37*
G36*
X9843Y135482D02*
X8374Y135337D01*
X6961Y134909D01*
X5660Y134213D01*
X4519Y133277D01*
X3582Y132136D01*
X2887Y130834D01*
X2458Y129422D01*
X2313Y127953D01*
X2458Y126484D01*
X2887Y125072D01*
X3582Y123770D01*
X4519Y122629D01*
X5660Y121693D01*
X6961Y120997D01*
X8374Y120568D01*
X9843Y120424D01*
X11311Y120568D01*
X12724Y120997D01*
X14026Y121693D01*
X15166Y122629D01*
X16103Y123770D01*
X16799Y125072D01*
X17227Y126484D01*
X17372Y127953D01*
X17227Y129422D01*
X16799Y130834D01*
X16103Y132136D01*
X15166Y133277D01*
X14026Y134213D01*
X12724Y134909D01*
X11311Y135337D01*
X9843Y135482D01*
D02*
G37*
G36*
X173051Y117937D02*
X169500D01*
Y114878D01*
X173051D01*
Y117937D01*
D02*
G37*
G36*
X223925Y109228D02*
Y106799D01*
X226354D01*
X226317Y107074D01*
X226018Y107796D01*
X225542Y108416D01*
X224922Y108892D01*
X224200Y109191D01*
X223925Y109228D01*
D02*
G37*
G36*
X223909Y115642D02*
X221481D01*
X221517Y115367D01*
X221816Y114645D01*
X222292Y114025D01*
X222912Y113549D01*
X223635Y113250D01*
X223909Y113213D01*
Y115642D01*
D02*
G37*
G36*
X60350Y110055D02*
X57193D01*
Y105815D01*
X60350D01*
Y110055D01*
D02*
G37*
G36*
X222925Y109228D02*
X222650Y109191D01*
X221928Y108892D01*
X221308Y108416D01*
X220832Y107796D01*
X220533Y107074D01*
X220497Y106799D01*
X222925D01*
Y109228D01*
D02*
G37*
G36*
X21629Y116626D02*
X19201D01*
Y114198D01*
X19476Y114234D01*
X20198Y114533D01*
X20818Y115009D01*
X21294Y115629D01*
X21593Y116351D01*
X21629Y116626D01*
D02*
G37*
G36*
X168500Y117937D02*
X164949D01*
Y114878D01*
X168500D01*
Y117937D01*
D02*
G37*
G36*
X227338Y115642D02*
X224909D01*
Y113213D01*
X225184Y113250D01*
X225906Y113549D01*
X226527Y114025D01*
X227002Y114645D01*
X227302Y115367D01*
X227338Y115642D01*
D02*
G37*
G36*
X18201Y116626D02*
X15773D01*
X15809Y116351D01*
X16108Y115629D01*
X16584Y115009D01*
X17204Y114533D01*
X17926Y114234D01*
X18201Y114198D01*
Y116626D01*
D02*
G37*
G36*
X201000Y130315D02*
X197380D01*
X197457Y129732D01*
X197875Y128722D01*
X198540Y127855D01*
X199407Y127190D01*
X200417Y126772D01*
X201000Y126695D01*
Y130315D01*
D02*
G37*
G36*
X81350Y135025D02*
X80767Y134948D01*
X79758Y134530D01*
X78891Y133865D01*
X78226Y132998D01*
X77808Y131989D01*
X77731Y131405D01*
X81350D01*
Y135025D01*
D02*
G37*
G36*
X82350D02*
Y131405D01*
X85970D01*
X85893Y131989D01*
X85475Y132998D01*
X84810Y133865D01*
X83943Y134530D01*
X82934Y134948D01*
X82350Y135025D01*
D02*
G37*
G36*
X201000Y134934D02*
X200417Y134858D01*
X199407Y134440D01*
X198540Y133774D01*
X197875Y132908D01*
X197457Y131898D01*
X197380Y131315D01*
X201000D01*
Y134934D01*
D02*
G37*
G36*
X202000D02*
Y131315D01*
X205620D01*
X205543Y131898D01*
X205125Y132908D01*
X204460Y133774D01*
X203593Y134440D01*
X202583Y134858D01*
X202000Y134934D01*
D02*
G37*
G36*
X19185Y136787D02*
X18910Y136750D01*
X18188Y136451D01*
X17568Y135975D01*
X17092Y135355D01*
X16793Y134633D01*
X16757Y134358D01*
X19185D01*
Y136787D01*
D02*
G37*
G36*
X20185D02*
Y134358D01*
X22613D01*
X22577Y134633D01*
X22278Y135355D01*
X21802Y135975D01*
X21182Y136451D01*
X20460Y136750D01*
X20185Y136787D01*
D02*
G37*
G36*
X165839Y134818D02*
X165564Y134782D01*
X164841Y134483D01*
X164221Y134007D01*
X163746Y133387D01*
X163446Y132665D01*
X163410Y132390D01*
X165839D01*
Y134818D01*
D02*
G37*
G36*
X166839D02*
Y132390D01*
X169267D01*
X169231Y132665D01*
X168932Y133387D01*
X168456Y134007D01*
X167836Y134483D01*
X167113Y134782D01*
X166839Y134818D01*
D02*
G37*
G36*
X22613Y133358D02*
X20185D01*
Y130930D01*
X20460Y130966D01*
X21182Y131265D01*
X21802Y131741D01*
X22278Y132361D01*
X22577Y133083D01*
X22613Y133358D01*
D02*
G37*
G36*
X81350Y130405D02*
X77731D01*
X77808Y129822D01*
X78226Y128813D01*
X78891Y127946D01*
X79758Y127281D01*
X80767Y126863D01*
X81350Y126786D01*
Y130405D01*
D02*
G37*
G36*
X85970D02*
X82350D01*
Y126786D01*
X82934Y126863D01*
X83943Y127281D01*
X84810Y127946D01*
X85475Y128813D01*
X85893Y129822D01*
X85970Y130405D01*
D02*
G37*
G36*
X205620Y130315D02*
X202000D01*
Y126695D01*
X202583Y126772D01*
X203593Y127190D01*
X204460Y127855D01*
X205125Y128722D01*
X205543Y129732D01*
X205620Y130315D01*
D02*
G37*
G36*
X76000Y135055D02*
X67701D01*
Y126756D01*
X76000D01*
Y135055D01*
D02*
G37*
G36*
X169267Y131390D02*
X166839D01*
Y128962D01*
X167113Y128998D01*
X167836Y129297D01*
X168456Y129773D01*
X168932Y130393D01*
X169231Y131115D01*
X169267Y131390D01*
D02*
G37*
G36*
X19185Y133358D02*
X16757D01*
X16793Y133083D01*
X17092Y132361D01*
X17568Y131741D01*
X18188Y131265D01*
X18910Y130966D01*
X19185Y130930D01*
Y133358D01*
D02*
G37*
G36*
X91850Y134889D02*
X90819Y134753D01*
X89859Y134355D01*
X89034Y133722D01*
X88400Y132897D01*
X88002Y131937D01*
X87867Y130905D01*
X88002Y129875D01*
X88400Y128914D01*
X89034Y128089D01*
X89859Y127455D01*
X90819Y127058D01*
X91850Y126922D01*
X92881Y127058D01*
X93842Y127455D01*
X94667Y128089D01*
X95300Y128914D01*
X95698Y129875D01*
X95834Y130905D01*
X95698Y131937D01*
X95300Y132897D01*
X94667Y133722D01*
X93842Y134355D01*
X92881Y134753D01*
X91850Y134889D01*
D02*
G37*
G36*
X165839Y131390D02*
X163410D01*
X163446Y131115D01*
X163746Y130393D01*
X164221Y129773D01*
X164841Y129297D01*
X165564Y128998D01*
X165839Y128962D01*
Y131390D01*
D02*
G37*
G36*
X36902Y77256D02*
X34473D01*
X34510Y76981D01*
X34809Y76259D01*
X35284Y75639D01*
X35904Y75163D01*
X36627Y74864D01*
X36902Y74828D01*
Y77256D01*
D02*
G37*
G36*
X40330D02*
X37902D01*
Y74828D01*
X38177Y74864D01*
X38899Y75163D01*
X39519Y75639D01*
X39994Y76259D01*
X40294Y76981D01*
X40330Y77256D01*
D02*
G37*
G36*
X85055Y77673D02*
X82193D01*
Y74319D01*
X85055D01*
Y77673D01*
D02*
G37*
G36*
X57004Y80209D02*
X49295D01*
Y77346D01*
X50656D01*
X50757Y76572D01*
X51057Y75849D01*
X51532Y75229D01*
X52153Y74753D01*
X52875Y74454D01*
X53150Y74418D01*
Y77346D01*
X54150D01*
Y74418D01*
X54425Y74454D01*
X55147Y74753D01*
X55767Y75229D01*
X56243Y75849D01*
X56542Y76572D01*
X56644Y77346D01*
X57004D01*
Y80209D01*
D02*
G37*
G36*
X52650Y84071D02*
X49295D01*
Y81209D01*
X52650D01*
Y84071D01*
D02*
G37*
G36*
X57004D02*
X53650D01*
Y81209D01*
X57004D01*
Y84071D01*
D02*
G37*
G36*
X36902Y80684D02*
X36627Y80648D01*
X35904Y80349D01*
X35284Y79873D01*
X34809Y79253D01*
X34510Y78531D01*
X34473Y78256D01*
X36902D01*
Y80684D01*
D02*
G37*
G36*
X37902D02*
Y78256D01*
X40330D01*
X40294Y78531D01*
X39994Y79253D01*
X39519Y79873D01*
X38899Y80349D01*
X38177Y80648D01*
X37902Y80684D01*
D02*
G37*
G36*
X196024Y77974D02*
X195162Y77861D01*
X194359Y77528D01*
X193670Y76999D01*
X193141Y76310D01*
X193085Y76175D01*
X187835D01*
X187249Y76059D01*
X186753Y75727D01*
X168322Y57296D01*
X163669D01*
Y50972D01*
X170977D01*
Y55625D01*
X188468Y73116D01*
X193085D01*
X193141Y72981D01*
X193670Y72292D01*
X194359Y71763D01*
X195162Y71431D01*
X196024Y71317D01*
X196885Y71431D01*
X197688Y71763D01*
X198377Y72292D01*
X198906Y72981D01*
X199239Y73784D01*
X199352Y74646D01*
X199239Y75507D01*
X198906Y76310D01*
X198377Y76999D01*
X197688Y77528D01*
X196885Y77861D01*
X196024Y77974D01*
D02*
G37*
G36*
X136496Y75179D02*
X135635Y75065D01*
X134832Y74733D01*
X134142Y74204D01*
X133614Y73515D01*
X133281Y72712D01*
X133168Y71850D01*
X133281Y70989D01*
X133337Y70854D01*
X126020Y63537D01*
X110446D01*
Y67631D01*
X104121D01*
Y60322D01*
X108283D01*
X109691Y58914D01*
Y49692D01*
X105591Y45592D01*
X105187D01*
X104907Y45779D01*
X104134Y45933D01*
X99016D01*
X98243Y45779D01*
X97588Y45342D01*
X97150Y44686D01*
X96996Y43913D01*
X97150Y43140D01*
X97588Y42485D01*
X98243Y42047D01*
X99016Y41894D01*
X104134D01*
X104907Y42047D01*
X105562Y42485D01*
X105595Y42534D01*
X106224D01*
X106810Y42650D01*
X107306Y42981D01*
X112302Y47978D01*
X112633Y48474D01*
X112750Y49059D01*
Y59547D01*
X112664Y59978D01*
X112958Y60479D01*
X126654D01*
X127239Y60595D01*
X127735Y60926D01*
X135500Y68691D01*
X135635Y68635D01*
X136496Y68522D01*
X137357Y68635D01*
X138160Y68968D01*
X138850Y69497D01*
X139379Y70186D01*
X139711Y70989D01*
X139824Y71850D01*
X139711Y72712D01*
X139379Y73515D01*
X138850Y74204D01*
X138160Y74733D01*
X137357Y75065D01*
X136496Y75179D01*
D02*
G37*
G36*
X156496D02*
X155635Y75065D01*
X154832Y74733D01*
X154142Y74204D01*
X153613Y73515D01*
X153281Y72712D01*
X153168Y71850D01*
X153281Y70989D01*
X153613Y70186D01*
X154142Y69497D01*
X154832Y68968D01*
X155635Y68635D01*
X156496Y68522D01*
X157358Y68635D01*
X158160Y68968D01*
X158850Y69497D01*
X159379Y70186D01*
X159711Y70989D01*
X159825Y71850D01*
X159711Y72712D01*
X159379Y73515D01*
X158850Y74204D01*
X158160Y74733D01*
X157358Y75065D01*
X156496Y75179D01*
D02*
G37*
G36*
X64461Y65445D02*
X60909D01*
Y62386D01*
X64461D01*
Y65445D01*
D02*
G37*
G36*
X69012D02*
X65461D01*
Y62386D01*
X69012D01*
Y65445D01*
D02*
G37*
G36*
X85055Y73319D02*
X82193D01*
Y69965D01*
X85055D01*
Y73319D01*
D02*
G37*
G36*
X77831Y72819D02*
X75402D01*
X75439Y72544D01*
X75738Y71822D01*
X76214Y71202D01*
X76834Y70726D01*
X77556Y70427D01*
X77831Y70391D01*
Y72819D01*
D02*
G37*
G36*
X65461Y71826D02*
Y68898D01*
X64461D01*
Y71826D01*
X64186Y71790D01*
X63464Y71491D01*
X62844Y71015D01*
X62368Y70395D01*
X62068Y69673D01*
X62046Y69504D01*
X60909D01*
Y66445D01*
X69012D01*
Y69504D01*
X67875D01*
X67853Y69673D01*
X67554Y70395D01*
X67078Y71015D01*
X66458Y71491D01*
X65736Y71790D01*
X65461Y71826D01*
D02*
G37*
G36*
X81193Y77673D02*
X78331D01*
Y76313D01*
X77556Y76211D01*
X76834Y75912D01*
X76214Y75436D01*
X75738Y74816D01*
X75439Y74094D01*
X75402Y73819D01*
X78331D01*
Y73319D01*
X78831D01*
Y69965D01*
X81193D01*
Y73819D01*
Y77673D01*
D02*
G37*
G36*
X189678Y100843D02*
X182369D01*
Y94519D01*
X184494D01*
Y87584D01*
X184359Y87528D01*
X183670Y86999D01*
X183141Y86310D01*
X182809Y85507D01*
X182695Y84646D01*
X182809Y83784D01*
X183141Y82981D01*
X183670Y82292D01*
X184359Y81763D01*
X185162Y81431D01*
X186024Y81317D01*
X186885Y81431D01*
X187688Y81763D01*
X188377Y82292D01*
X188906Y82981D01*
X189239Y83784D01*
X189352Y84646D01*
X189239Y85507D01*
X188906Y86310D01*
X188377Y86999D01*
X187688Y87528D01*
X187553Y87584D01*
Y94519D01*
X189678D01*
Y100843D01*
D02*
G37*
G36*
X99894Y100705D02*
X95653D01*
Y97547D01*
X99894D01*
Y100705D01*
D02*
G37*
G36*
X105134D02*
X100894D01*
Y97547D01*
X105134D01*
Y100705D01*
D02*
G37*
G36*
X73819Y110814D02*
X72905Y110693D01*
X72054Y110341D01*
X71682Y110055D01*
X65634D01*
Y100575D01*
X69424D01*
X69891Y100263D01*
X70866Y100069D01*
X76641D01*
X83871Y92839D01*
X83845Y92706D01*
X83310Y92582D01*
X83062Y92905D01*
X82373Y93433D01*
X81570Y93766D01*
X80708Y93879D01*
X79847Y93766D01*
X79044Y93433D01*
X78355Y92905D01*
X77826Y92215D01*
X77493Y91412D01*
X77380Y90551D01*
X77388Y90488D01*
X77059Y90112D01*
X56804D01*
Y91745D01*
X54787D01*
X54457Y92121D01*
X54510Y92520D01*
X54396Y93381D01*
X54064Y94184D01*
X53535Y94873D01*
X52845Y95402D01*
X52043Y95735D01*
X51181Y95848D01*
X50320Y95735D01*
X49517Y95402D01*
X48827Y94873D01*
X48299Y94184D01*
X47966Y93381D01*
X47853Y92520D01*
X47966Y91658D01*
X48299Y90855D01*
X48827Y90166D01*
X49495Y89654D01*
Y85421D01*
X56804D01*
Y87053D01*
X78740D01*
X79325Y87170D01*
X79679Y87406D01*
X79847Y87336D01*
X80708Y87222D01*
X81570Y87336D01*
X82373Y87668D01*
X82884Y88060D01*
X83294Y87745D01*
X83204Y87528D01*
X83084Y86614D01*
X83204Y85701D01*
X83557Y84849D01*
X84118Y84118D01*
X84849Y83557D01*
X85701Y83204D01*
X86614Y83084D01*
X87528Y83204D01*
X88379Y83557D01*
X89110Y84118D01*
X89671Y84849D01*
X90024Y85701D01*
X90144Y86614D01*
X90024Y87528D01*
X89671Y88379D01*
X89163Y89042D01*
Y93701D01*
X88969Y94676D01*
X88417Y95503D01*
X79499Y104420D01*
X78672Y104973D01*
X77697Y105167D01*
X77178D01*
X76938Y105667D01*
X77229Y106370D01*
X77349Y107283D01*
X77229Y108197D01*
X76876Y109049D01*
X76315Y109780D01*
X75584Y110341D01*
X74733Y110693D01*
X73819Y110814D01*
D02*
G37*
G36*
X126593Y106776D02*
X114408D01*
X114015Y106698D01*
X113682Y106476D01*
X113459Y106143D01*
X113381Y105750D01*
Y99274D01*
X113459Y98881D01*
X113682Y98548D01*
X114015Y98325D01*
X114408Y98247D01*
X117385D01*
X117715Y97871D01*
X117708Y97815D01*
X117803Y97092D01*
X118082Y96419D01*
X118526Y95840D01*
X119104Y95397D01*
X119777Y95118D01*
X120500Y95023D01*
X121223Y95118D01*
X121896Y95397D01*
X122475Y95840D01*
X122918Y96419D01*
X123197Y97092D01*
X123292Y97815D01*
X123285Y97871D01*
X123615Y98247D01*
X126593D01*
X126985Y98325D01*
X127318Y98548D01*
X127541Y98881D01*
X127619Y99274D01*
Y105750D01*
X127541Y106143D01*
X127318Y106476D01*
X126985Y106698D01*
X126593Y106776D01*
D02*
G37*
G36*
X222925Y105799D02*
X220497D01*
X220533Y105524D01*
X220832Y104802D01*
X221308Y104182D01*
X221928Y103706D01*
X222650Y103407D01*
X222925Y103371D01*
Y105799D01*
D02*
G37*
G36*
X226354D02*
X223925D01*
Y103371D01*
X224200Y103407D01*
X224922Y103706D01*
X225542Y104182D01*
X226018Y104802D01*
X226317Y105524D01*
X226354Y105799D01*
D02*
G37*
G36*
X56193Y110055D02*
X53035D01*
Y107794D01*
X52375Y107707D01*
X51652Y107408D01*
X51033Y106932D01*
X50557Y106312D01*
X50257Y105590D01*
X50221Y105315D01*
X53150D01*
Y104315D01*
X50221D01*
X50257Y104040D01*
X50557Y103318D01*
X51033Y102698D01*
X51652Y102222D01*
X52375Y101923D01*
X53035Y101836D01*
Y100575D01*
X56193D01*
Y105315D01*
Y110055D01*
D02*
G37*
G36*
X60350Y104815D02*
X57193D01*
Y100575D01*
X60350D01*
Y104815D01*
D02*
G37*
G36*
X165330Y94327D02*
X162902D01*
Y91899D01*
X163177Y91935D01*
X163899Y92234D01*
X164519Y92710D01*
X164995Y93330D01*
X165294Y94052D01*
X165330Y94327D01*
D02*
G37*
G36*
X19868Y85130D02*
X16248D01*
Y81510D01*
X16831Y81587D01*
X17841Y82005D01*
X18708Y82670D01*
X19373Y83537D01*
X19791Y84547D01*
X19868Y85130D01*
D02*
G37*
G36*
X15248Y89749D02*
X14665Y89673D01*
X13655Y89255D01*
X12788Y88589D01*
X12123Y87723D01*
X11705Y86713D01*
X11628Y86130D01*
X15248D01*
Y89749D01*
D02*
G37*
G36*
X210643Y100843D02*
X203334D01*
Y94519D01*
X205459D01*
Y87900D01*
X205162Y87861D01*
X204359Y87528D01*
X203670Y86999D01*
X203141Y86310D01*
X202809Y85507D01*
X202695Y84646D01*
X202809Y83784D01*
X203141Y82981D01*
X203670Y82292D01*
X204359Y81763D01*
X205162Y81431D01*
X206024Y81317D01*
X206885Y81431D01*
X207688Y81763D01*
X208377Y82292D01*
X208906Y82981D01*
X209239Y83784D01*
X209352Y84646D01*
X209239Y85507D01*
X208906Y86310D01*
X208518Y86816D01*
Y94519D01*
X210643D01*
Y100843D01*
D02*
G37*
G36*
X15248Y85130D02*
X11628D01*
X11705Y84547D01*
X12123Y83537D01*
X12788Y82670D01*
X13655Y82005D01*
X14665Y81587D01*
X15248Y81510D01*
Y85130D01*
D02*
G37*
G36*
X19698Y99580D02*
X11798D01*
Y91680D01*
X19698D01*
Y99580D01*
D02*
G37*
G36*
X161902Y94327D02*
X159473D01*
X159510Y94052D01*
X159809Y93330D01*
X160284Y92710D01*
X160905Y92234D01*
X161627Y91935D01*
X161902Y91899D01*
Y94327D01*
D02*
G37*
G36*
X16248Y89749D02*
Y86130D01*
X19868D01*
X19791Y86713D01*
X19373Y87723D01*
X18708Y88589D01*
X17841Y89255D01*
X16831Y89673D01*
X16248Y89749D01*
D02*
G37*
G36*
X105134Y96547D02*
X95653D01*
Y93390D01*
X96651D01*
X96816Y92991D01*
X97292Y92371D01*
X97912Y91895D01*
X98634Y91596D01*
X98909Y91560D01*
Y94488D01*
X99910D01*
Y91560D01*
X100184Y91596D01*
X100907Y91895D01*
X101527Y92371D01*
X102002Y92991D01*
X102168Y93390D01*
X105134D01*
Y96547D01*
D02*
G37*
%LPD*%
D10*
X186024Y23622D02*
D03*
X193898D02*
D03*
D11*
X64961Y65945D02*
D03*
Y58071D02*
D03*
X169000Y114378D02*
D03*
Y122252D02*
D03*
D12*
X184744Y46870D02*
D03*
Y41870D02*
D03*
Y36870D02*
D03*
Y31870D02*
D03*
X206988Y46870D02*
D03*
Y41870D02*
D03*
Y36870D02*
D03*
Y31870D02*
D03*
D13*
X100394Y109646D02*
D03*
Y97047D02*
D03*
X152000Y108016D02*
D03*
Y120614D02*
D03*
X88378Y16532D02*
D03*
Y29130D02*
D03*
D14*
X56693Y105315D02*
D03*
X69291D02*
D03*
D15*
X55961Y46484D02*
D03*
Y51484D02*
D03*
Y56484D02*
D03*
Y61484D02*
D03*
X35291Y46484D02*
D03*
Y51484D02*
D03*
Y56484D02*
D03*
Y61484D02*
D03*
D16*
X129555Y127118D02*
D03*
X120500D02*
D03*
X111445D02*
D03*
D17*
X120500Y102512D02*
D03*
D18*
X107283Y63976D02*
D03*
X99410D02*
D03*
X89567Y73819D02*
D03*
X81693D02*
D03*
X50197Y28543D02*
D03*
X58071D02*
D03*
X63976Y38386D02*
D03*
X56102D02*
D03*
X142559Y39370D02*
D03*
X150433D02*
D03*
D19*
X69378Y20894D02*
D03*
Y28768D02*
D03*
X206988Y105555D02*
D03*
Y97681D02*
D03*
X167323Y54134D02*
D03*
Y46260D02*
D03*
X186024Y97681D02*
D03*
Y105555D02*
D03*
X53150Y80709D02*
D03*
Y88583D02*
D03*
D20*
X129575Y47657D02*
D03*
Y53169D02*
D03*
X216535Y51378D02*
D03*
Y56890D02*
D03*
D21*
X78378Y17319D02*
D03*
Y28343D02*
D03*
D22*
X101575Y48913D02*
D03*
Y43913D02*
D03*
Y38913D02*
D03*
Y33913D02*
D03*
X120079Y48913D02*
D03*
Y43913D02*
D03*
Y38913D02*
D03*
Y33913D02*
D03*
D23*
X120457Y44291D02*
X129921D01*
X105268Y126921D02*
X111445D01*
X64961Y59252D02*
X76870D01*
X62193Y56484D02*
X64961Y59252D01*
X213342Y105555D02*
X223425Y95472D01*
Y79724D02*
Y95472D01*
X196850Y53150D02*
X223425Y79724D01*
X105315Y126969D02*
X106299D01*
X105268Y126921D02*
X105315Y126969D01*
X69291Y105315D02*
X71260Y107283D01*
X73819D01*
X212709Y41870D02*
X216535Y45697D01*
Y51378D01*
X120079Y43913D02*
X120457Y44291D01*
X129575Y44637D02*
Y47657D01*
Y44637D02*
X129921Y44291D01*
X206988Y105555D02*
X213342D01*
X196850Y44291D02*
Y53150D01*
X199563Y105555D02*
X206988D01*
X191929Y113189D02*
X199563Y105555D01*
X180118Y113189D02*
X191929D01*
X173228Y106299D02*
X180118Y113189D01*
X164370Y106299D02*
X173228D01*
X162402Y108268D02*
X164370Y106299D01*
X162402Y108268D02*
Y112205D01*
X160228Y114378D02*
X162402Y112205D01*
X144685Y114378D02*
X160228D01*
X143496Y113189D02*
X144685Y114378D01*
X119095Y113189D02*
X143496D01*
X111445Y120839D02*
X119095Y113189D01*
X111445Y120839D02*
Y126921D01*
X70866Y102618D02*
X77697D01*
X70276Y103209D02*
X70866Y102618D01*
X77697D02*
X86614Y93701D01*
Y86614D02*
Y93701D01*
X80709Y55413D02*
X103347D01*
X76870Y59252D02*
X80709Y55413D01*
X55961Y56484D02*
X62193D01*
X196850Y44291D02*
X199272Y41870D01*
X206988D01*
X212709D01*
D24*
X14842Y45315D02*
X22374D01*
X78740Y88583D02*
X80708Y90551D01*
X53150Y88583D02*
X78740D01*
X53150D02*
Y90551D01*
X51181Y92520D02*
X53150Y90551D01*
X98819Y111221D02*
X100394Y109646D01*
X94488Y111221D02*
X98819D01*
X221262Y43307D02*
X226378D01*
X214825Y36870D02*
X221262Y43307D01*
X206988Y36870D02*
X214825D01*
X99575Y44063D02*
X106224D01*
X126654Y62008D02*
X136496Y71850D01*
X109878Y62008D02*
X126654D01*
X106224Y44063D02*
X111221Y49059D01*
Y59547D01*
X107283Y63484D02*
X111221Y59547D01*
X107283Y63484D02*
Y63976D01*
X89567Y73819D02*
X99410Y63976D01*
X202114Y70224D02*
Y80366D01*
X190303Y58413D02*
X202114Y70224D01*
X180461Y58413D02*
X190303D01*
X142559Y39370D02*
Y55118D01*
X146496Y59055D01*
Y81850D01*
X184744Y24902D02*
X186024Y23622D01*
X184744Y24902D02*
Y31870D01*
X192913Y89567D02*
Y101528D01*
X188886Y105555D02*
X192913Y101528D01*
X186024Y105555D02*
X188886D01*
X192913Y89567D02*
X202114Y80366D01*
X174213Y52165D02*
X180461Y58413D01*
X174213Y45315D02*
Y52165D01*
X176181Y31870D02*
X184744D01*
X163307Y36870D02*
X184744D01*
X160807Y39370D02*
X163307Y36870D01*
X160433Y39370D02*
X160807D01*
X120079Y38913D02*
X120535Y39370D01*
X142559D01*
X150433D02*
X160433D01*
X167323Y46260D01*
Y54134D02*
X187835Y74646D01*
X196024D01*
X206024Y84646D02*
X206988Y85610D01*
Y97681D01*
X186024Y84646D02*
Y97681D01*
X100394Y109646D02*
X100984Y110236D01*
X117522D01*
X117769Y109989D01*
X130168D01*
X179374Y105555D02*
X186024D01*
X120079Y48913D02*
X122575Y51409D01*
X28543Y51484D02*
X35291D01*
X22374Y45315D02*
X28543Y51484D01*
X94880Y38413D02*
X95472D01*
X88378Y31911D02*
X94880Y38413D01*
X95472D02*
X96323D01*
X95472Y38413D02*
X101075D01*
X95472Y38413D02*
X95472Y38413D01*
X61240Y28543D02*
X62528Y29831D01*
X58071Y28543D02*
X61240D01*
X63976Y38386D02*
X68898Y43307D01*
Y49213D01*
X66626Y51484D02*
X68898Y49213D01*
X55961Y51484D02*
X66626D01*
X50197Y32480D02*
X56102Y38386D01*
X50197Y28543D02*
Y32480D01*
X88378Y29130D02*
Y31911D01*
X189429Y41870D02*
X194429Y36870D01*
X185531Y41870D02*
X189429D01*
X124000Y134815D02*
X137799D01*
X120500Y131315D02*
X124000Y134815D01*
X48126Y51484D02*
X55961D01*
X43126Y56484D02*
X48126Y51484D01*
X35291Y56484D02*
X43126D01*
X154701Y123315D02*
X166756D01*
X152000Y120614D02*
X154701Y123315D01*
X190500D02*
X191500Y124315D01*
X171244Y123315D02*
X190500D01*
X191500Y124315D02*
Y130815D01*
X78016Y27980D02*
X78378Y28343D01*
X62528Y29831D02*
X67528D01*
X101075Y38413D02*
X101575Y38913D01*
X122575Y51409D02*
Y55413D01*
X120500Y126921D02*
Y127118D01*
Y131315D01*
X194429Y36870D02*
X206988D01*
X69378Y27980D02*
X78016D01*
X78378Y28343D02*
X88378D01*
X89366Y29331D01*
X130168Y109989D02*
X140748Y99410D01*
X173228D01*
X179374Y105555D01*
X69378Y17717D02*
Y20894D01*
X78378Y14764D02*
Y17319D01*
X88378Y13780D02*
Y16532D01*
X129575Y53169D02*
Y55118D01*
X56193Y104815D02*
X56693Y105315D01*
X53150Y104815D02*
X56193D01*
X99410Y96063D02*
X100394Y97047D01*
X99410Y94488D02*
Y96063D01*
X169000Y121071D02*
X171244Y123315D01*
X166756D02*
X169000Y121071D01*
X137799Y134815D02*
X152000Y120614D01*
D25*
X0Y137795D02*
X236221D01*
Y0D02*
Y137795D01*
X0Y0D02*
X236221D01*
X0D02*
Y137795D01*
D26*
X190366Y42306D02*
Y39026D01*
X191022Y38370D01*
X192334D01*
X192990Y39026D01*
Y42306D01*
X196270Y38370D02*
Y42306D01*
X194302Y40338D01*
X196926D01*
X40126Y56920D02*
Y53640D01*
X40782Y52984D01*
X42094D01*
X42750Y53640D01*
Y56920D01*
X44062Y52984D02*
X45374D01*
X44718D01*
Y56920D01*
X44062Y56264D01*
X123436Y121315D02*
X120156D01*
X119500Y120659D01*
Y119347D01*
X120156Y118691D01*
X123436D01*
X122780Y117379D02*
X123436Y116723D01*
Y115411D01*
X122780Y114755D01*
X122124D01*
X121468Y115411D01*
Y116067D01*
Y115411D01*
X120812Y114755D01*
X120156D01*
X119500Y115411D01*
Y116723D01*
X120156Y117379D01*
D27*
X226378Y127953D02*
D03*
X9843D02*
D03*
Y9843D02*
D03*
X226378D02*
D03*
D28*
X-393898Y226772D02*
D03*
D29*
X146496Y81850D02*
D03*
X156496Y71850D02*
D03*
X136496D02*
D03*
X206024Y84646D02*
D03*
X186024D02*
D03*
X196024Y74646D02*
D03*
X51181Y92520D02*
D03*
X94488Y111221D02*
D03*
X106299Y126969D02*
D03*
X73819Y107283D02*
D03*
X145669Y126969D02*
D03*
X129921Y44291D02*
D03*
X174213Y45315D02*
D03*
X176181Y31870D02*
D03*
X80708Y90551D02*
D03*
X86614Y86614D02*
D03*
X103347Y55413D02*
D03*
X122575D02*
D03*
D30*
X71850Y130905D02*
D03*
X191500Y130815D02*
D03*
D31*
X81850Y130905D02*
D03*
X91850D02*
D03*
X201500Y130815D02*
D03*
X226378Y33307D02*
D03*
X14842Y35315D02*
D03*
X15748Y85630D02*
D03*
D32*
X226378Y43307D02*
D03*
X14842Y45315D02*
D03*
X15748Y95630D02*
D03*
D33*
X216535Y59055D02*
D03*
X78331Y73319D02*
D03*
X64961Y68898D02*
D03*
X162402Y20894D02*
D03*
X37402Y77756D02*
D03*
X224410Y116142D02*
D03*
X108268Y19685D02*
D03*
X223425Y106299D02*
D03*
X166339Y131890D02*
D03*
X18701Y117126D02*
D03*
X32480Y45315D02*
D03*
X142559Y9843D02*
D03*
X98425Y33307D02*
D03*
X196850Y23622D02*
D03*
X204724Y20669D02*
D03*
X120500Y97815D02*
D03*
X69378Y17717D02*
D03*
X78378Y14764D02*
D03*
X88378Y13780D02*
D03*
X129575Y55118D02*
D03*
X53150Y104815D02*
D03*
X99410Y94488D02*
D03*
X131890Y129921D02*
D03*
X152500Y104358D02*
D03*
X169000Y111221D02*
D03*
X53650Y77346D02*
D03*
X37402Y9843D02*
D03*
X162402Y94827D02*
D03*
X19685Y133858D02*
D03*
X177165Y13780D02*
D03*
M02*
