G04 Layer_Color=8388736*
%FSLAX25Y25*%
%MOIN*%
G70*
G01*
G75*
%ADD25C,0.00500*%
%ADD26C,0.00591*%
%ADD44R,0.05918X0.06902*%
%ADD45R,0.06902X0.05918*%
G04:AMPARAMS|DCode=46|XSize=33.59mil|YSize=72.96mil|CornerRadius=5.92mil|HoleSize=0mil|Usage=FLASHONLY|Rotation=90.000|XOffset=0mil|YOffset=0mil|HoleType=Round|Shape=RoundedRectangle|*
%AMROUNDEDRECTD46*
21,1,0.03359,0.06112,0,0,90.0*
21,1,0.02175,0.07296,0,0,90.0*
1,1,0.01184,0.03056,0.01088*
1,1,0.01184,0.03056,-0.01088*
1,1,0.01184,-0.03056,-0.01088*
1,1,0.01184,-0.03056,0.01088*
%
%ADD46ROUNDEDRECTD46*%
%ADD47R,0.08280X0.06115*%
%ADD48R,0.06115X0.08280*%
G04:AMPARAMS|DCode=49|XSize=29.65mil|YSize=57.21mil|CornerRadius=5.95mil|HoleSize=0mil|Usage=FLASHONLY|Rotation=90.000|XOffset=0mil|YOffset=0mil|HoleType=Round|Shape=RoundedRectangle|*
%AMROUNDEDRECTD49*
21,1,0.02965,0.04532,0,0,90.0*
21,1,0.01776,0.05721,0,0,90.0*
1,1,0.01190,0.02266,0.00888*
1,1,0.01190,0.02266,-0.00888*
1,1,0.01190,-0.02266,-0.00888*
1,1,0.01190,-0.02266,0.00888*
%
%ADD49ROUNDEDRECTD49*%
G04:AMPARAMS|DCode=50|XSize=43.43mil|YSize=76.9mil|CornerRadius=5.95mil|HoleSize=0mil|Usage=FLASHONLY|Rotation=0.000|XOffset=0mil|YOffset=0mil|HoleType=Round|Shape=RoundedRectangle|*
%AMROUNDEDRECTD50*
21,1,0.04343,0.06500,0,0,0.0*
21,1,0.03154,0.07690,0,0,0.0*
1,1,0.01190,0.01577,-0.03250*
1,1,0.01190,-0.01577,-0.03250*
1,1,0.01190,-0.01577,0.03250*
1,1,0.01190,0.01577,0.03250*
%
%ADD50ROUNDEDRECTD50*%
G04:AMPARAMS|DCode=51|XSize=133.98mil|YSize=76.9mil|CornerRadius=6.07mil|HoleSize=0mil|Usage=FLASHONLY|Rotation=0.000|XOffset=0mil|YOffset=0mil|HoleType=Round|Shape=RoundedRectangle|*
%AMROUNDEDRECTD51*
21,1,0.13398,0.06476,0,0,0.0*
21,1,0.12185,0.07690,0,0,0.0*
1,1,0.01213,0.06093,-0.03238*
1,1,0.01213,-0.06093,-0.03238*
1,1,0.01213,-0.06093,0.03238*
1,1,0.01213,0.06093,0.03238*
%
%ADD51ROUNDEDRECTD51*%
%ADD52R,0.05524X0.06509*%
%ADD53R,0.06509X0.05524*%
%ADD54R,0.06115X0.05131*%
%ADD55R,0.07493X0.04540*%
%ADD56O,0.08280X0.03162*%
%ADD57C,0.14186*%
%ADD58C,0.18516*%
%ADD59C,0.05800*%
%ADD60R,0.07099X0.07099*%
%ADD61C,0.07099*%
%ADD62R,0.07099X0.07099*%
%ADD63C,0.04331*%
%ADD64C,0.04737*%
D25*
X0Y137795D02*
X236221D01*
Y0D02*
Y137795D01*
X0Y0D02*
X236221D01*
X0D02*
Y137795D01*
D26*
X190366Y42306D02*
Y39026D01*
X191022Y38370D01*
X192334D01*
X192990Y39026D01*
Y42306D01*
X196270Y38370D02*
Y42306D01*
X194302Y40338D01*
X196926D01*
X40126Y56920D02*
Y53640D01*
X40782Y52984D01*
X42094D01*
X42750Y53640D01*
Y56920D01*
X44062Y52984D02*
X45374D01*
X44718D01*
Y56920D01*
X44062Y56264D01*
X123436Y121315D02*
X120156D01*
X119500Y120659D01*
Y119347D01*
X120156Y118691D01*
X123436D01*
X122780Y117379D02*
X123436Y116723D01*
Y115411D01*
X122780Y114755D01*
X122124D01*
X121468Y115411D01*
Y116067D01*
Y115411D01*
X120812Y114755D01*
X120156D01*
X119500Y115411D01*
Y116723D01*
X120156Y117379D01*
D44*
X186024Y23622D02*
D03*
X193898D02*
D03*
D45*
X64961Y65945D02*
D03*
Y58071D02*
D03*
X169000Y114378D02*
D03*
Y122252D02*
D03*
D46*
X184744Y46870D02*
D03*
Y41870D02*
D03*
Y36870D02*
D03*
Y31870D02*
D03*
X206988Y46870D02*
D03*
Y41870D02*
D03*
Y36870D02*
D03*
Y31870D02*
D03*
D47*
X100394Y109646D02*
D03*
Y97047D02*
D03*
X152000Y108016D02*
D03*
Y120614D02*
D03*
X88378Y16532D02*
D03*
Y29130D02*
D03*
D48*
X56693Y105315D02*
D03*
X69291D02*
D03*
D49*
X55961Y46484D02*
D03*
Y51484D02*
D03*
Y56484D02*
D03*
Y61484D02*
D03*
X35291Y46484D02*
D03*
Y51484D02*
D03*
Y56484D02*
D03*
Y61484D02*
D03*
D50*
X129555Y127118D02*
D03*
X120500D02*
D03*
X111445D02*
D03*
D51*
X120500Y102512D02*
D03*
D52*
X107283Y63976D02*
D03*
X99410D02*
D03*
X89567Y73819D02*
D03*
X81693D02*
D03*
X50197Y28543D02*
D03*
X58071D02*
D03*
X63976Y38386D02*
D03*
X56102D02*
D03*
X142559Y39370D02*
D03*
X150433D02*
D03*
D53*
X69378Y20894D02*
D03*
Y28768D02*
D03*
X206988Y105555D02*
D03*
Y97681D02*
D03*
X167323Y54134D02*
D03*
Y46260D02*
D03*
X186024Y97681D02*
D03*
Y105555D02*
D03*
X53150Y80709D02*
D03*
Y88583D02*
D03*
D54*
X129575Y47657D02*
D03*
Y53169D02*
D03*
X216535Y51378D02*
D03*
Y56890D02*
D03*
D55*
X78378Y17319D02*
D03*
Y28343D02*
D03*
D56*
X101575Y48913D02*
D03*
Y43913D02*
D03*
Y38913D02*
D03*
Y33913D02*
D03*
X120079Y48913D02*
D03*
Y43913D02*
D03*
Y38913D02*
D03*
Y33913D02*
D03*
D57*
X226378Y127953D02*
D03*
X9843D02*
D03*
Y9843D02*
D03*
X226378D02*
D03*
D58*
X-393898Y226772D02*
D03*
D59*
X146496Y81850D02*
D03*
X156496Y71850D02*
D03*
X136496D02*
D03*
X206024Y84646D02*
D03*
X186024D02*
D03*
X196024Y74646D02*
D03*
X51181Y92520D02*
D03*
X94488Y111221D02*
D03*
X106299Y126969D02*
D03*
X73819Y107283D02*
D03*
X145669Y126969D02*
D03*
X129921Y44291D02*
D03*
X174213Y45315D02*
D03*
X176181Y31870D02*
D03*
X80708Y90551D02*
D03*
X86614Y86614D02*
D03*
X103347Y55413D02*
D03*
X122575D02*
D03*
D60*
X71850Y130905D02*
D03*
X191500Y130815D02*
D03*
D61*
X81850Y130905D02*
D03*
X91850D02*
D03*
X201500Y130815D02*
D03*
X226378Y33307D02*
D03*
X14842Y35315D02*
D03*
X15748Y85630D02*
D03*
D62*
X226378Y43307D02*
D03*
X14842Y45315D02*
D03*
X15748Y95630D02*
D03*
D63*
X216535Y59055D02*
D03*
X162402Y20894D02*
D03*
X37402Y77756D02*
D03*
X224410Y116142D02*
D03*
X108268Y19685D02*
D03*
X223425Y106299D02*
D03*
X166339Y131890D02*
D03*
X18701Y117126D02*
D03*
X32480Y45315D02*
D03*
X142559Y9843D02*
D03*
X53150Y104815D02*
D03*
D64*
X78331Y73319D02*
D03*
X64961Y68898D02*
D03*
X98425Y33307D02*
D03*
X196850Y23622D02*
D03*
X204724Y20669D02*
D03*
X120500Y97815D02*
D03*
X69378Y17717D02*
D03*
X78378Y14764D02*
D03*
X88378Y13780D02*
D03*
X129575Y55118D02*
D03*
X99410Y94488D02*
D03*
X131890Y129921D02*
D03*
X152500Y104358D02*
D03*
X169000Y111221D02*
D03*
X53650Y77346D02*
D03*
X37402Y9843D02*
D03*
X162402Y94827D02*
D03*
X19685Y133858D02*
D03*
X177165Y13780D02*
D03*
M02*
