G04 Layer_Color=16711935*
%FSLAX25Y25*%
%MOIN*%
G70*
G01*
G75*
%ADD25C,0.00500*%
%ADD26C,0.00591*%
%ADD57C,0.14186*%
%ADD58C,0.18516*%
%ADD59C,0.05800*%
%ADD60R,0.07099X0.07099*%
%ADD61C,0.07099*%
%ADD62R,0.07099X0.07099*%
%ADD63C,0.04331*%
%ADD64C,0.04737*%
D25*
X0Y137795D02*
X236221D01*
Y0D02*
Y137795D01*
X0Y0D02*
X236221D01*
X0D02*
Y137795D01*
D26*
X190366Y42306D02*
Y39026D01*
X191022Y38370D01*
X192334D01*
X192990Y39026D01*
Y42306D01*
X196270Y38370D02*
Y42306D01*
X194302Y40338D01*
X196926D01*
X40126Y56920D02*
Y53640D01*
X40782Y52984D01*
X42094D01*
X42750Y53640D01*
Y56920D01*
X44062Y52984D02*
X45374D01*
X44718D01*
Y56920D01*
X44062Y56264D01*
X123436Y121315D02*
X120156D01*
X119500Y120659D01*
Y119347D01*
X120156Y118691D01*
X123436D01*
X122780Y117379D02*
X123436Y116723D01*
Y115411D01*
X122780Y114755D01*
X122124D01*
X121468Y115411D01*
Y116067D01*
Y115411D01*
X120812Y114755D01*
X120156D01*
X119500Y115411D01*
Y116723D01*
X120156Y117379D01*
D57*
X226378Y127953D02*
D03*
X9843D02*
D03*
Y9843D02*
D03*
X226378D02*
D03*
D58*
X-393898Y226772D02*
D03*
D59*
X146496Y81850D02*
D03*
X156496Y71850D02*
D03*
X136496D02*
D03*
X206024Y84646D02*
D03*
X186024D02*
D03*
X196024Y74646D02*
D03*
X51181Y92520D02*
D03*
X94488Y111221D02*
D03*
X106299Y126969D02*
D03*
X73819Y107283D02*
D03*
X145669Y126969D02*
D03*
X129921Y44291D02*
D03*
X174213Y45315D02*
D03*
X176181Y31870D02*
D03*
X80708Y90551D02*
D03*
X86614Y86614D02*
D03*
X103347Y55413D02*
D03*
X122575D02*
D03*
D60*
X71850Y130905D02*
D03*
X191500Y130815D02*
D03*
D61*
X81850Y130905D02*
D03*
X91850D02*
D03*
X201500Y130815D02*
D03*
X226378Y33307D02*
D03*
X14842Y35315D02*
D03*
X15748Y85630D02*
D03*
D62*
X226378Y43307D02*
D03*
X14842Y45315D02*
D03*
X15748Y95630D02*
D03*
D63*
X216535Y59055D02*
D03*
X162402Y20894D02*
D03*
X37402Y77756D02*
D03*
X224410Y116142D02*
D03*
X108268Y19685D02*
D03*
X223425Y106299D02*
D03*
X166339Y131890D02*
D03*
X18701Y117126D02*
D03*
X32480Y45315D02*
D03*
X142559Y9843D02*
D03*
X53150Y104815D02*
D03*
D64*
X78331Y73319D02*
D03*
X64961Y68898D02*
D03*
X98425Y33307D02*
D03*
X196850Y23622D02*
D03*
X204724Y20669D02*
D03*
X120500Y97815D02*
D03*
X69378Y17717D02*
D03*
X78378Y14764D02*
D03*
X88378Y13780D02*
D03*
X129575Y55118D02*
D03*
X99410Y94488D02*
D03*
X131890Y129921D02*
D03*
X152500Y104358D02*
D03*
X169000Y111221D02*
D03*
X53650Y77346D02*
D03*
X37402Y9843D02*
D03*
X162402Y94827D02*
D03*
X19685Y133858D02*
D03*
X177165Y13780D02*
D03*
M02*
