G04 Layer_Physical_Order=2*
G04 Layer_Color=16711680*
%FSLAX25Y25*%
%MOIN*%
G70*
G01*
G75*
%ADD18C,0.00500*%
%ADD19C,0.06299*%
%ADD20R,0.06299X0.06299*%
%ADD21C,0.13386*%
%ADD22C,0.17716*%
%ADD23R,0.06299X0.06299*%
%ADD24C,0.06000*%
%ADD25C,0.03937*%
G36*
X236221Y0D02*
X0D01*
Y157480D01*
X236221D01*
Y0D01*
D02*
G37*
%LPC*%
G36*
X156521Y72335D02*
X152901D01*
Y68715D01*
X153485Y68792D01*
X154494Y69210D01*
X155361Y69875D01*
X156026Y70742D01*
X156444Y71751D01*
X156521Y72335D01*
D02*
G37*
G36*
X43161D02*
X39542D01*
X39619Y71751D01*
X40037Y70742D01*
X40702Y69875D01*
X41569Y69210D01*
X42578Y68792D01*
X43161Y68715D01*
Y72335D01*
D02*
G37*
G36*
X136521D02*
X132902D01*
Y68715D01*
X133485Y68792D01*
X134494Y69210D01*
X135361Y69875D01*
X136026Y70742D01*
X136444Y71751D01*
X136521Y72335D01*
D02*
G37*
G36*
X146521D02*
X142902D01*
Y68715D01*
X143485Y68792D01*
X144494Y69210D01*
X145361Y69875D01*
X146026Y70742D01*
X146444Y71751D01*
X146521Y72335D01*
D02*
G37*
G36*
X73161D02*
X69542D01*
X69619Y71751D01*
X70037Y70742D01*
X70702Y69875D01*
X71569Y69210D01*
X72578Y68792D01*
X73161Y68715D01*
Y72335D01*
D02*
G37*
G36*
X47781D02*
X44161D01*
Y68715D01*
X44745Y68792D01*
X45754Y69210D01*
X46621Y69875D01*
X47286Y70742D01*
X47704Y71751D01*
X47781Y72335D01*
D02*
G37*
G36*
X53161D02*
X49542D01*
X49619Y71751D01*
X50037Y70742D01*
X50702Y69875D01*
X51569Y69210D01*
X52578Y68792D01*
X53161Y68715D01*
Y72335D01*
D02*
G37*
G36*
X63161D02*
X59542D01*
X59619Y71751D01*
X60037Y70742D01*
X60702Y69875D01*
X61569Y69210D01*
X62578Y68792D01*
X63161Y68715D01*
Y72335D01*
D02*
G37*
G36*
X126521D02*
X122901D01*
Y68715D01*
X123485Y68792D01*
X124494Y69210D01*
X125361Y69875D01*
X126026Y70742D01*
X126444Y71751D01*
X126521Y72335D01*
D02*
G37*
G36*
X155028Y57062D02*
Y54634D01*
X157456D01*
X157420Y54909D01*
X157121Y55631D01*
X156645Y56251D01*
X156025Y56727D01*
X155303Y57026D01*
X155028Y57062D01*
D02*
G37*
G36*
X218504Y66818D02*
X217473Y66683D01*
X216512Y66285D01*
X215687Y65652D01*
X215054Y64827D01*
X214656Y63866D01*
X214520Y62835D01*
X214656Y61804D01*
X215054Y60843D01*
X215687Y60018D01*
X216512Y59385D01*
X217473Y58987D01*
X218504Y58851D01*
X219535Y58987D01*
X220496Y59385D01*
X221321Y60018D01*
X221954Y60843D01*
X222352Y61804D01*
X222488Y62835D01*
X222352Y63866D01*
X221954Y64827D01*
X221321Y65652D01*
X220496Y66285D01*
X219535Y66683D01*
X218504Y66818D01*
D02*
G37*
G36*
X157456Y53634D02*
X155028D01*
Y51206D01*
X155303Y51242D01*
X156025Y51541D01*
X156645Y52017D01*
X157121Y52637D01*
X157420Y53359D01*
X157456Y53634D01*
D02*
G37*
G36*
X154028Y57062D02*
X153753Y57026D01*
X153031Y56727D01*
X152410Y56251D01*
X151935Y55631D01*
X151636Y54909D01*
X151599Y54634D01*
X154028D01*
Y57062D01*
D02*
G37*
G36*
X161901Y72335D02*
X158252D01*
Y68685D01*
X161901D01*
Y72335D01*
D02*
G37*
G36*
X166551D02*
X162901D01*
Y68685D01*
X166551D01*
Y72335D01*
D02*
G37*
G36*
X83161D02*
X79512D01*
Y68685D01*
X83161D01*
Y72335D01*
D02*
G37*
G36*
X87811D02*
X84161D01*
Y68685D01*
X87811D01*
Y72335D01*
D02*
G37*
G36*
X63161Y76954D02*
X62578Y76877D01*
X61569Y76459D01*
X60702Y75794D01*
X60037Y74927D01*
X59619Y73918D01*
X59542Y73335D01*
X63161D01*
Y76954D01*
D02*
G37*
G36*
X43161D02*
X42578Y76877D01*
X41569Y76459D01*
X40702Y75794D01*
X40037Y74927D01*
X39619Y73918D01*
X39542Y73335D01*
X43161D01*
Y76954D01*
D02*
G37*
G36*
X161901Y76984D02*
X158252D01*
Y73335D01*
X161901D01*
Y76984D01*
D02*
G37*
G36*
X53161Y76954D02*
X52578Y76877D01*
X51569Y76459D01*
X50702Y75794D01*
X50037Y74927D01*
X49619Y73918D01*
X49542Y73335D01*
X53161D01*
Y76954D01*
D02*
G37*
G36*
X151901Y76954D02*
X151318Y76877D01*
X150309Y76459D01*
X149442Y75794D01*
X148777Y74927D01*
X148359Y73918D01*
X148282Y73335D01*
X151901D01*
Y76954D01*
D02*
G37*
G36*
X141902D02*
X141318Y76877D01*
X140309Y76459D01*
X139442Y75794D01*
X138777Y74927D01*
X138359Y73918D01*
X138282Y73335D01*
X141902D01*
Y76954D01*
D02*
G37*
G36*
X73161Y76954D02*
X72578Y76877D01*
X71569Y76459D01*
X70702Y75794D01*
X70037Y74927D01*
X69619Y73918D01*
X69542Y73335D01*
X73161D01*
Y76954D01*
D02*
G37*
G36*
X121902Y76954D02*
X121318Y76877D01*
X120309Y76459D01*
X119442Y75794D01*
X118777Y74927D01*
X118359Y73918D01*
X118282Y73335D01*
X121902D01*
Y76954D01*
D02*
G37*
G36*
X83161Y76984D02*
X79512D01*
Y73335D01*
X83161D01*
Y76984D01*
D02*
G37*
G36*
X77781Y72335D02*
X74161D01*
Y68715D01*
X74745Y68792D01*
X75754Y69210D01*
X76621Y69875D01*
X77286Y70742D01*
X77704Y71751D01*
X77781Y72335D01*
D02*
G37*
G36*
X121902D02*
X118282D01*
X118359Y71751D01*
X118777Y70742D01*
X119442Y69875D01*
X120309Y69210D01*
X121318Y68792D01*
X121902Y68715D01*
Y72335D01*
D02*
G37*
G36*
X57781D02*
X54161D01*
Y68715D01*
X54745Y68792D01*
X55754Y69210D01*
X56621Y69875D01*
X57286Y70742D01*
X57704Y71751D01*
X57781Y72335D01*
D02*
G37*
G36*
X67781D02*
X64161D01*
Y68715D01*
X64745Y68792D01*
X65754Y69210D01*
X66621Y69875D01*
X67286Y70742D01*
X67704Y71751D01*
X67781Y72335D01*
D02*
G37*
G36*
X151901D02*
X148282D01*
X148359Y71751D01*
X148777Y70742D01*
X149442Y69875D01*
X150309Y69210D01*
X151318Y68792D01*
X151901Y68715D01*
Y72335D01*
D02*
G37*
G36*
X218504Y76818D02*
X217473Y76683D01*
X216512Y76285D01*
X215687Y75652D01*
X215054Y74827D01*
X214656Y73866D01*
X214520Y72835D01*
X214656Y71804D01*
X215054Y70843D01*
X215687Y70018D01*
X216512Y69385D01*
X217473Y68987D01*
X218504Y68851D01*
X219535Y68987D01*
X220496Y69385D01*
X221321Y70018D01*
X221954Y70843D01*
X222352Y71804D01*
X222488Y72835D01*
X222352Y73866D01*
X221954Y74827D01*
X221321Y75652D01*
X220496Y76285D01*
X219535Y76683D01*
X218504Y76818D01*
D02*
G37*
G36*
X131902Y72335D02*
X128282D01*
X128359Y71751D01*
X128777Y70742D01*
X129442Y69875D01*
X130309Y69210D01*
X131318Y68792D01*
X131902Y68715D01*
Y72335D01*
D02*
G37*
G36*
X141902D02*
X138282D01*
X138359Y71751D01*
X138777Y70742D01*
X139442Y69875D01*
X140309Y69210D01*
X141318Y68792D01*
X141902Y68715D01*
Y72335D01*
D02*
G37*
G36*
X154028Y53634D02*
X151599D01*
X151636Y53359D01*
X151935Y52637D01*
X152410Y52017D01*
X153031Y51541D01*
X153753Y51242D01*
X154028Y51206D01*
Y53634D01*
D02*
G37*
G36*
X48204Y38870D02*
X45776D01*
Y36442D01*
X46051Y36478D01*
X46773Y36777D01*
X47393Y37253D01*
X47869Y37873D01*
X48168Y38595D01*
X48204Y38870D01*
D02*
G37*
G36*
X218504Y46818D02*
X217473Y46683D01*
X216512Y46285D01*
X215687Y45652D01*
X215054Y44826D01*
X214656Y43866D01*
X214520Y42835D01*
X214656Y41804D01*
X215054Y40843D01*
X215687Y40018D01*
X216512Y39385D01*
X217473Y38987D01*
X218504Y38851D01*
X219535Y38987D01*
X220496Y39385D01*
X221321Y40018D01*
X221954Y40843D01*
X222352Y41804D01*
X222488Y42835D01*
X222352Y43866D01*
X221954Y44826D01*
X221321Y45652D01*
X220496Y46285D01*
X219535Y46683D01*
X218504Y46818D01*
D02*
G37*
G36*
X182587Y33440D02*
Y31012D01*
X185015D01*
X184979Y31287D01*
X184680Y32009D01*
X184204Y32629D01*
X183584Y33105D01*
X182862Y33404D01*
X182587Y33440D01*
D02*
G37*
G36*
X44776Y38870D02*
X42347D01*
X42384Y38595D01*
X42683Y37873D01*
X43158Y37253D01*
X43778Y36777D01*
X44501Y36478D01*
X44776Y36442D01*
Y38870D01*
D02*
G37*
G36*
X93063Y43791D02*
X89595D01*
Y40323D01*
X90139Y40394D01*
X91112Y40797D01*
X91947Y41438D01*
X92589Y42274D01*
X92992Y43247D01*
X93063Y43791D01*
D02*
G37*
G36*
X123063D02*
X119595D01*
Y40323D01*
X120139Y40394D01*
X121112Y40797D01*
X121947Y41438D01*
X122589Y42274D01*
X122992Y43247D01*
X123063Y43791D01*
D02*
G37*
G36*
X44776Y42298D02*
X44501Y42262D01*
X43778Y41963D01*
X43158Y41487D01*
X42683Y40867D01*
X42384Y40145D01*
X42347Y39870D01*
X44776D01*
Y42298D01*
D02*
G37*
G36*
X45776D02*
Y39870D01*
X48204D01*
X48168Y40145D01*
X47869Y40867D01*
X47393Y41487D01*
X46773Y41963D01*
X46051Y42262D01*
X45776Y42298D01*
D02*
G37*
G36*
X181587Y33440D02*
X181312Y33404D01*
X180590Y33105D01*
X179970Y32629D01*
X179494Y32009D01*
X179194Y31287D01*
X179158Y31012D01*
X181587D01*
Y33440D01*
D02*
G37*
G36*
X95957Y9342D02*
X93528D01*
X93565Y9068D01*
X93864Y8345D01*
X94340Y7725D01*
X94960Y7249D01*
X95682Y6950D01*
X95957Y6914D01*
Y9342D01*
D02*
G37*
G36*
X99385D02*
X96957D01*
Y6914D01*
X97232Y6950D01*
X97954Y7249D01*
X98574Y7725D01*
X99050Y8345D01*
X99349Y9068D01*
X99385Y9342D01*
D02*
G37*
G36*
X9843Y17372D02*
X8374Y17227D01*
X6961Y16799D01*
X5660Y16103D01*
X4519Y15166D01*
X3582Y14026D01*
X2887Y12724D01*
X2458Y11311D01*
X2313Y9843D01*
X2458Y8374D01*
X2887Y6961D01*
X3582Y5660D01*
X4519Y4519D01*
X5660Y3582D01*
X6961Y2887D01*
X8374Y2458D01*
X9843Y2313D01*
X11311Y2458D01*
X12724Y2887D01*
X14026Y3582D01*
X15166Y4519D01*
X16103Y5660D01*
X16799Y6961D01*
X17227Y8374D01*
X17372Y9843D01*
X17227Y11311D01*
X16799Y12724D01*
X16103Y14026D01*
X15166Y15166D01*
X14026Y16103D01*
X12724Y16799D01*
X11311Y17227D01*
X9843Y17372D01*
D02*
G37*
G36*
X226378D02*
X224909Y17227D01*
X223497Y16799D01*
X222195Y16103D01*
X221054Y15166D01*
X220118Y14026D01*
X219422Y12724D01*
X218993Y11311D01*
X218849Y9843D01*
X218993Y8374D01*
X219422Y6961D01*
X220118Y5660D01*
X221054Y4519D01*
X222195Y3582D01*
X223497Y2887D01*
X224909Y2458D01*
X226378Y2313D01*
X227847Y2458D01*
X229259Y2887D01*
X230561Y3582D01*
X231702Y4519D01*
X232638Y5660D01*
X233334Y6961D01*
X233762Y8374D01*
X233907Y9843D01*
X233762Y11311D01*
X233334Y12724D01*
X232638Y14026D01*
X231702Y15166D01*
X230561Y16103D01*
X229259Y16799D01*
X227847Y17227D01*
X226378Y17372D01*
D02*
G37*
G36*
X181587Y30012D02*
X179158D01*
X179194Y29737D01*
X179494Y29015D01*
X179970Y28395D01*
X180590Y27919D01*
X181312Y27620D01*
X181587Y27584D01*
Y30012D01*
D02*
G37*
G36*
X185015D02*
X182587D01*
Y27584D01*
X182862Y27620D01*
X183584Y27919D01*
X184204Y28395D01*
X184680Y29015D01*
X184979Y29737D01*
X185015Y30012D01*
D02*
G37*
G36*
X95957Y12771D02*
X95682Y12735D01*
X94960Y12436D01*
X94340Y11960D01*
X93864Y11340D01*
X93565Y10617D01*
X93528Y10343D01*
X95957D01*
Y12771D01*
D02*
G37*
G36*
X96957D02*
Y10343D01*
X99385D01*
X99349Y10617D01*
X99050Y11340D01*
X98574Y11960D01*
X97954Y12436D01*
X97232Y12735D01*
X96957Y12771D01*
D02*
G37*
G36*
X89595Y48260D02*
Y44791D01*
X93063D01*
X92992Y45336D01*
X92589Y46309D01*
X91947Y47144D01*
X91112Y47785D01*
X90139Y48188D01*
X89595Y48260D01*
D02*
G37*
G36*
X138279Y50015D02*
X138005Y49979D01*
X137283Y49680D01*
X136662Y49204D01*
X136187Y48584D01*
X135887Y47861D01*
X135851Y47587D01*
X138279D01*
Y50015D01*
D02*
G37*
G36*
X88595Y48260D02*
X88050Y48188D01*
X87077Y47785D01*
X86242Y47144D01*
X85601Y46309D01*
X85197Y45336D01*
X85126Y44791D01*
X88595D01*
Y48260D01*
D02*
G37*
G36*
X119595Y48260D02*
Y44791D01*
X123063D01*
X122992Y45336D01*
X122589Y46309D01*
X121947Y47144D01*
X121112Y47785D01*
X120139Y48188D01*
X119595Y48260D01*
D02*
G37*
G36*
X23138Y50172D02*
Y47744D01*
X25566D01*
X25530Y48019D01*
X25231Y48741D01*
X24755Y49361D01*
X24135Y49837D01*
X23413Y50136D01*
X23138Y50172D01*
D02*
G37*
G36*
X218504Y56818D02*
X217473Y56683D01*
X216512Y56285D01*
X215687Y55651D01*
X215054Y54826D01*
X214656Y53866D01*
X214520Y52835D01*
X214656Y51804D01*
X215054Y50843D01*
X215687Y50018D01*
X216512Y49385D01*
X217473Y48987D01*
X218504Y48851D01*
X219535Y48987D01*
X220496Y49385D01*
X221321Y50018D01*
X221954Y50843D01*
X222352Y51804D01*
X222488Y52835D01*
X222352Y53866D01*
X221954Y54826D01*
X221321Y55651D01*
X220496Y56285D01*
X219535Y56683D01*
X218504Y56818D01*
D02*
G37*
G36*
X139279Y50015D02*
Y47587D01*
X141708D01*
X141672Y47861D01*
X141373Y48584D01*
X140897Y49204D01*
X140277Y49680D01*
X139555Y49979D01*
X139279Y50015D01*
D02*
G37*
G36*
X22138Y50172D02*
X21863Y50136D01*
X21141Y49837D01*
X20521Y49361D01*
X20045Y48741D01*
X19746Y48019D01*
X19710Y47744D01*
X22138D01*
Y50172D01*
D02*
G37*
G36*
X118595Y48260D02*
X118050Y48188D01*
X117077Y47785D01*
X116242Y47144D01*
X115601Y46309D01*
X115197Y45336D01*
X115126Y44791D01*
X118595D01*
Y48260D01*
D02*
G37*
G36*
X99094Y48124D02*
X98102Y47993D01*
X97178Y47611D01*
X96384Y47001D01*
X95775Y46208D01*
X95392Y45283D01*
X95262Y44291D01*
X95392Y43299D01*
X95775Y42375D01*
X96384Y41581D01*
X97178Y40972D01*
X98102Y40589D01*
X99094Y40459D01*
X100086Y40589D01*
X101011Y40972D01*
X101805Y41581D01*
X102414Y42375D01*
X102797Y43299D01*
X102927Y44291D01*
X102797Y45283D01*
X102414Y46208D01*
X101805Y47001D01*
X101011Y47611D01*
X100086Y47993D01*
X99094Y48124D01*
D02*
G37*
G36*
X109095D02*
X108103Y47993D01*
X107178Y47611D01*
X106384Y47001D01*
X105775Y46208D01*
X105392Y45283D01*
X105262Y44291D01*
X105392Y43299D01*
X105775Y42375D01*
X106384Y41581D01*
X107178Y40972D01*
X108103Y40589D01*
X109095Y40459D01*
X110087Y40589D01*
X111011Y40972D01*
X111805Y41581D01*
X112414Y42375D01*
X112797Y43299D01*
X112927Y44291D01*
X112797Y45283D01*
X112414Y46208D01*
X111805Y47001D01*
X111011Y47611D01*
X110087Y47993D01*
X109095Y48124D01*
D02*
G37*
G36*
X88595Y43791D02*
X85126D01*
X85197Y43247D01*
X85601Y42274D01*
X86242Y41438D01*
X87077Y40797D01*
X88050Y40394D01*
X88595Y40323D01*
Y43791D01*
D02*
G37*
G36*
X118595D02*
X115126D01*
X115197Y43247D01*
X115601Y42274D01*
X116242Y41438D01*
X117077Y40797D01*
X118050Y40394D01*
X118595Y40323D01*
Y43791D01*
D02*
G37*
G36*
X22138Y46744D02*
X19710D01*
X19746Y46469D01*
X20045Y45747D01*
X20521Y45127D01*
X21141Y44651D01*
X21863Y44352D01*
X22138Y44316D01*
Y46744D01*
D02*
G37*
G36*
X25566D02*
X23138D01*
Y44316D01*
X23413Y44352D01*
X24135Y44651D01*
X24755Y45127D01*
X25231Y45747D01*
X25530Y46469D01*
X25566Y46744D01*
D02*
G37*
G36*
X138279Y46587D02*
X135851D01*
X135887Y46312D01*
X136187Y45590D01*
X136662Y44969D01*
X137283Y44494D01*
X138005Y44194D01*
X138279Y44158D01*
Y46587D01*
D02*
G37*
G36*
X141708D02*
X139279D01*
Y44158D01*
X139555Y44194D01*
X140277Y44494D01*
X140897Y44969D01*
X141373Y45590D01*
X141672Y46312D01*
X141708Y46587D01*
D02*
G37*
G36*
X203240Y130405D02*
X200812D01*
X200848Y130131D01*
X201147Y129408D01*
X201623Y128788D01*
X202243Y128313D01*
X202965Y128013D01*
X203240Y127977D01*
Y130405D01*
D02*
G37*
G36*
X206668D02*
X204240D01*
Y127977D01*
X204515Y128013D01*
X205237Y128313D01*
X205857Y128788D01*
X206333Y129408D01*
X206632Y130131D01*
X206668Y130405D01*
D02*
G37*
G36*
X179618Y125960D02*
X179343Y125924D01*
X178621Y125625D01*
X178001Y125149D01*
X177525Y124529D01*
X177226Y123806D01*
X177190Y123531D01*
X179618D01*
Y125960D01*
D02*
G37*
G36*
X180618D02*
Y123531D01*
X183046D01*
X183010Y123806D01*
X182711Y124529D01*
X182235Y125149D01*
X181615Y125625D01*
X180893Y125924D01*
X180618Y125960D01*
D02*
G37*
G36*
X43661Y143949D02*
X42578Y143807D01*
X41569Y143388D01*
X40702Y142723D01*
X40037Y141857D01*
X39619Y140847D01*
X39476Y139764D01*
X39619Y138681D01*
X40037Y137671D01*
X40702Y136804D01*
X41569Y136139D01*
X42578Y135721D01*
X43661Y135578D01*
X44745Y135721D01*
X45754Y136139D01*
X46621Y136804D01*
X47286Y137671D01*
X47704Y138681D01*
X47847Y139764D01*
X47704Y140847D01*
X47286Y141857D01*
X46621Y142723D01*
X45754Y143388D01*
X44745Y143807D01*
X43661Y143949D01*
D02*
G37*
G36*
X53661D02*
X52578Y143807D01*
X51569Y143388D01*
X50702Y142723D01*
X50037Y141857D01*
X49619Y140847D01*
X49476Y139764D01*
X49619Y138681D01*
X50037Y137671D01*
X50702Y136804D01*
X51569Y136139D01*
X52578Y135721D01*
X53661Y135578D01*
X54745Y135721D01*
X55754Y136139D01*
X56621Y136804D01*
X57286Y137671D01*
X57704Y138681D01*
X57847Y139764D01*
X57704Y140847D01*
X57286Y141857D01*
X56621Y142723D01*
X55754Y143388D01*
X54745Y143807D01*
X53661Y143949D01*
D02*
G37*
G36*
X203240Y133834D02*
X202965Y133798D01*
X202243Y133499D01*
X201623Y133023D01*
X201147Y132403D01*
X200848Y131680D01*
X200812Y131405D01*
X203240D01*
Y133834D01*
D02*
G37*
G36*
X204240D02*
Y131405D01*
X206668D01*
X206632Y131680D01*
X206333Y132403D01*
X205857Y133023D01*
X205237Y133499D01*
X204515Y133798D01*
X204240Y133834D01*
D02*
G37*
G36*
X183046Y122531D02*
X180618D01*
Y120103D01*
X180893Y120139D01*
X181615Y120439D01*
X182235Y120914D01*
X182711Y121534D01*
X183010Y122257D01*
X183046Y122531D01*
D02*
G37*
G36*
X173228Y115981D02*
X172506Y115886D01*
X171832Y115607D01*
X171254Y115164D01*
X170810Y114585D01*
X170531Y113912D01*
X170436Y113189D01*
X170531Y112466D01*
X170810Y111793D01*
X171254Y111214D01*
X171832Y110771D01*
X172506Y110492D01*
X173228Y110397D01*
X173951Y110492D01*
X174625Y110771D01*
X175203Y111214D01*
X175647Y111793D01*
X175926Y112466D01*
X176021Y113189D01*
X175926Y113912D01*
X175647Y114585D01*
X175203Y115164D01*
X174625Y115607D01*
X173951Y115886D01*
X173228Y115981D01*
D02*
G37*
G36*
X96941Y114657D02*
X94513D01*
X94549Y114383D01*
X94848Y113660D01*
X95324Y113040D01*
X95944Y112565D01*
X96666Y112265D01*
X96941Y112229D01*
Y114657D01*
D02*
G37*
G36*
X24106Y107850D02*
X23831Y107813D01*
X23109Y107514D01*
X22489Y107038D01*
X22013Y106418D01*
X21714Y105696D01*
X21678Y105421D01*
X24106D01*
Y107850D01*
D02*
G37*
G36*
X25106D02*
Y105421D01*
X27535D01*
X27498Y105696D01*
X27199Y106418D01*
X26724Y107038D01*
X26103Y107514D01*
X25381Y107813D01*
X25106Y107850D01*
D02*
G37*
G36*
X97941Y118086D02*
Y115657D01*
X100369D01*
X100333Y115932D01*
X100034Y116655D01*
X99558Y117275D01*
X98938Y117751D01*
X98216Y118050D01*
X97941Y118086D01*
D02*
G37*
G36*
X179618Y122531D02*
X177190D01*
X177226Y122257D01*
X177525Y121534D01*
X178001Y120914D01*
X178621Y120439D01*
X179343Y120139D01*
X179618Y120103D01*
Y122531D01*
D02*
G37*
G36*
X100369Y114657D02*
X97941D01*
Y112229D01*
X98216Y112265D01*
X98938Y112565D01*
X99558Y113040D01*
X100034Y113660D01*
X100333Y114383D01*
X100369Y114657D01*
D02*
G37*
G36*
X96941Y118086D02*
X96666Y118050D01*
X95944Y117751D01*
X95324Y117275D01*
X94848Y116655D01*
X94549Y115932D01*
X94513Y115657D01*
X96941D01*
Y118086D01*
D02*
G37*
G36*
X63661Y143949D02*
X62578Y143807D01*
X61569Y143388D01*
X60702Y142723D01*
X60037Y141857D01*
X59619Y140847D01*
X59476Y139764D01*
X59619Y138681D01*
X60037Y137671D01*
X60702Y136804D01*
X61569Y136139D01*
X62578Y135721D01*
X63661Y135578D01*
X64745Y135721D01*
X65754Y136139D01*
X66621Y136804D01*
X67286Y137671D01*
X67704Y138681D01*
X67847Y139764D01*
X67704Y140847D01*
X67286Y141857D01*
X66621Y142723D01*
X65754Y143388D01*
X64745Y143807D01*
X63661Y143949D01*
D02*
G37*
G36*
X26075Y148122D02*
X23647D01*
X23683Y147847D01*
X23982Y147125D01*
X24458Y146505D01*
X25078Y146029D01*
X25800Y145730D01*
X26075Y145694D01*
Y148122D01*
D02*
G37*
G36*
X29503D02*
X27075D01*
Y145694D01*
X27350Y145730D01*
X28072Y146029D01*
X28692Y146505D01*
X29168Y147125D01*
X29467Y147847D01*
X29503Y148122D01*
D02*
G37*
G36*
X94972Y147138D02*
X92544D01*
X92580Y146863D01*
X92879Y146141D01*
X93355Y145521D01*
X93975Y145045D01*
X94697Y144746D01*
X94972Y144710D01*
Y147138D01*
D02*
G37*
G36*
X98401D02*
X95972D01*
Y144710D01*
X96247Y144746D01*
X96969Y145045D01*
X97590Y145521D01*
X98065Y146141D01*
X98365Y146863D01*
X98401Y147138D01*
D02*
G37*
G36*
X26075Y151550D02*
X25800Y151514D01*
X25078Y151215D01*
X24458Y150739D01*
X23982Y150119D01*
X23683Y149397D01*
X23647Y149122D01*
X26075D01*
Y151550D01*
D02*
G37*
G36*
X27075D02*
Y149122D01*
X29503D01*
X29467Y149397D01*
X29168Y150119D01*
X28692Y150739D01*
X28072Y151215D01*
X27350Y151514D01*
X27075Y151550D01*
D02*
G37*
G36*
X94972Y150566D02*
X94697Y150530D01*
X93975Y150231D01*
X93355Y149755D01*
X92879Y149135D01*
X92580Y148413D01*
X92544Y148138D01*
X94972D01*
Y150566D01*
D02*
G37*
G36*
X95972D02*
Y148138D01*
X98401D01*
X98365Y148413D01*
X98065Y149135D01*
X97590Y149755D01*
X96969Y150231D01*
X96247Y150530D01*
X95972Y150566D01*
D02*
G37*
G36*
X226378Y155167D02*
X224909Y155022D01*
X223497Y154594D01*
X222195Y153898D01*
X221054Y152962D01*
X220118Y151821D01*
X219422Y150519D01*
X218993Y149107D01*
X218849Y147638D01*
X218993Y146169D01*
X219422Y144756D01*
X220118Y143455D01*
X221054Y142314D01*
X222195Y141377D01*
X223497Y140682D01*
X224909Y140253D01*
X226378Y140109D01*
X227847Y140253D01*
X229259Y140682D01*
X230561Y141377D01*
X231702Y142314D01*
X232638Y143455D01*
X233334Y144756D01*
X233762Y146169D01*
X233907Y147638D01*
X233762Y149107D01*
X233334Y150519D01*
X232638Y151821D01*
X231702Y152962D01*
X230561Y153898D01*
X229259Y154594D01*
X227847Y155022D01*
X226378Y155167D01*
D02*
G37*
G36*
X121063Y143747D02*
X120032Y143612D01*
X119071Y143214D01*
X118246Y142581D01*
X117613Y141756D01*
X117215Y140795D01*
X117079Y139764D01*
X117215Y138733D01*
X117613Y137772D01*
X118246Y136947D01*
X119071Y136314D01*
X120032Y135916D01*
X121063Y135780D01*
X122094Y135916D01*
X123055Y136314D01*
X123880Y136947D01*
X124513Y137772D01*
X124911Y138733D01*
X125047Y139764D01*
X124911Y140795D01*
X124513Y141756D01*
X123880Y142581D01*
X123055Y143214D01*
X122094Y143612D01*
X121063Y143747D01*
D02*
G37*
G36*
X131063D02*
X130032Y143612D01*
X129071Y143214D01*
X128246Y142581D01*
X127613Y141756D01*
X127215Y140795D01*
X127079Y139764D01*
X127215Y138733D01*
X127613Y137772D01*
X128246Y136947D01*
X129071Y136314D01*
X130032Y135916D01*
X131063Y135780D01*
X132094Y135916D01*
X133055Y136314D01*
X133880Y136947D01*
X134513Y137772D01*
X134911Y138733D01*
X135047Y139764D01*
X134911Y140795D01*
X134513Y141756D01*
X133880Y142581D01*
X133055Y143214D01*
X132094Y143612D01*
X131063Y143747D01*
D02*
G37*
G36*
X73661Y143949D02*
X72578Y143807D01*
X71569Y143388D01*
X70702Y142723D01*
X70037Y141857D01*
X69619Y140847D01*
X69476Y139764D01*
X69619Y138681D01*
X70037Y137671D01*
X70702Y136804D01*
X71569Y136139D01*
X72578Y135721D01*
X73661Y135578D01*
X74745Y135721D01*
X75754Y136139D01*
X76621Y136804D01*
X77286Y137671D01*
X77704Y138681D01*
X77847Y139764D01*
X77704Y140847D01*
X77286Y141857D01*
X76621Y142723D01*
X75754Y143388D01*
X74745Y143807D01*
X73661Y143949D01*
D02*
G37*
G36*
X87811Y143913D02*
X79512D01*
Y135614D01*
X87811D01*
Y143913D01*
D02*
G37*
G36*
X165013Y143713D02*
X157113D01*
Y135814D01*
X165013D01*
Y143713D01*
D02*
G37*
G36*
X9843Y155167D02*
X8374Y155022D01*
X6961Y154594D01*
X5660Y153898D01*
X4519Y152962D01*
X3582Y151821D01*
X2887Y150519D01*
X2458Y149107D01*
X2313Y147638D01*
X2458Y146169D01*
X2887Y144756D01*
X3582Y143455D01*
X4519Y142314D01*
X5660Y141377D01*
X6961Y140682D01*
X8374Y140253D01*
X9843Y140109D01*
X11311Y140253D01*
X12724Y140682D01*
X14026Y141377D01*
X15166Y142314D01*
X16103Y143455D01*
X16799Y144756D01*
X17227Y146169D01*
X17372Y147638D01*
X17227Y149107D01*
X16799Y150519D01*
X16103Y151821D01*
X15166Y152962D01*
X14026Y153898D01*
X12724Y154594D01*
X11311Y155022D01*
X9843Y155167D01*
D02*
G37*
G36*
X141063Y143747D02*
X140032Y143612D01*
X139071Y143214D01*
X138246Y142581D01*
X137613Y141756D01*
X137215Y140795D01*
X137079Y139764D01*
X137215Y138733D01*
X137613Y137772D01*
X138246Y136947D01*
X139071Y136314D01*
X140032Y135916D01*
X141063Y135780D01*
X142094Y135916D01*
X143055Y136314D01*
X143880Y136947D01*
X144513Y137772D01*
X144911Y138733D01*
X145047Y139764D01*
X144911Y140795D01*
X144513Y141756D01*
X143880Y142581D01*
X143055Y143214D01*
X142094Y143612D01*
X141063Y143747D01*
D02*
G37*
G36*
X151063D02*
X150032Y143612D01*
X149071Y143214D01*
X148246Y142581D01*
X147613Y141756D01*
X147215Y140795D01*
X147079Y139764D01*
X147215Y138733D01*
X147613Y137772D01*
X148246Y136947D01*
X149071Y136314D01*
X150032Y135916D01*
X151063Y135780D01*
X152094Y135916D01*
X153055Y136314D01*
X153880Y136947D01*
X154513Y137772D01*
X154911Y138733D01*
X155047Y139764D01*
X154911Y140795D01*
X154513Y141756D01*
X153880Y142581D01*
X153055Y143214D01*
X152094Y143612D01*
X151063Y143747D01*
D02*
G37*
G36*
X222453Y86784D02*
X214554D01*
Y78885D01*
X222453D01*
Y86784D01*
D02*
G37*
G36*
X167323Y87438D02*
X166600Y87343D01*
X165927Y87064D01*
X165348Y86620D01*
X164904Y86042D01*
X164626Y85368D01*
X164530Y84646D01*
X164626Y83923D01*
X164904Y83249D01*
X165348Y82671D01*
X165927Y82227D01*
X166600Y81948D01*
X167323Y81853D01*
X168046Y81948D01*
X168719Y82227D01*
X169297Y82671D01*
X169741Y83249D01*
X170020Y83923D01*
X170115Y84646D01*
X170020Y85368D01*
X169741Y86042D01*
X169297Y86620D01*
X168719Y87064D01*
X168046Y87343D01*
X167323Y87438D01*
D02*
G37*
G36*
X44161Y76954D02*
Y73335D01*
X47781D01*
X47704Y73918D01*
X47286Y74927D01*
X46621Y75794D01*
X45754Y76459D01*
X44745Y76877D01*
X44161Y76954D01*
D02*
G37*
G36*
X87811Y76984D02*
X84161D01*
Y73335D01*
X87811D01*
Y76984D01*
D02*
G37*
G36*
X70366Y85130D02*
X67938D01*
X67974Y84855D01*
X68273Y84133D01*
X68749Y83513D01*
X69369Y83037D01*
X70091Y82738D01*
X70366Y82702D01*
Y85130D01*
D02*
G37*
G36*
X73794D02*
X71366D01*
Y82702D01*
X71641Y82738D01*
X72363Y83037D01*
X72983Y83513D01*
X73459Y84133D01*
X73758Y84855D01*
X73794Y85130D01*
D02*
G37*
G36*
X59539D02*
X57111D01*
X57147Y84855D01*
X57446Y84133D01*
X57922Y83513D01*
X58542Y83037D01*
X59264Y82738D01*
X59539Y82702D01*
Y85130D01*
D02*
G37*
G36*
X62968D02*
X60539D01*
Y82702D01*
X60814Y82738D01*
X61536Y83037D01*
X62156Y83513D01*
X62632Y84133D01*
X62932Y84855D01*
X62968Y85130D01*
D02*
G37*
G36*
X74161Y76954D02*
Y73335D01*
X77781D01*
X77704Y73918D01*
X77286Y74927D01*
X76621Y75794D01*
X75754Y76459D01*
X74745Y76877D01*
X74161Y76954D01*
D02*
G37*
G36*
X122901D02*
Y73335D01*
X126521D01*
X126444Y73918D01*
X126026Y74927D01*
X125361Y75794D01*
X124494Y76459D01*
X123485Y76877D01*
X122901Y76954D01*
D02*
G37*
G36*
X152901D02*
Y73335D01*
X156521D01*
X156444Y73918D01*
X156026Y74927D01*
X155361Y75794D01*
X154494Y76459D01*
X153485Y76877D01*
X152901Y76954D01*
D02*
G37*
G36*
X131902Y76954D02*
X131318Y76877D01*
X130309Y76459D01*
X129442Y75794D01*
X128777Y74927D01*
X128359Y73918D01*
X128282Y73335D01*
X131902D01*
Y76954D01*
D02*
G37*
G36*
X166551Y76984D02*
X162901D01*
Y73335D01*
X166551D01*
Y76984D01*
D02*
G37*
G36*
X64161Y76954D02*
Y73335D01*
X67781D01*
X67704Y73918D01*
X67286Y74927D01*
X66621Y75794D01*
X65754Y76459D01*
X64745Y76877D01*
X64161Y76954D01*
D02*
G37*
G36*
X54161D02*
Y73335D01*
X57781D01*
X57704Y73918D01*
X57286Y74927D01*
X56621Y75794D01*
X55754Y76459D01*
X54745Y76877D01*
X54161Y76954D01*
D02*
G37*
G36*
X142902D02*
Y73335D01*
X146521D01*
X146444Y73918D01*
X146026Y74927D01*
X145361Y75794D01*
X144494Y76459D01*
X143485Y76877D01*
X142902Y76954D01*
D02*
G37*
G36*
X132902D02*
Y73335D01*
X136521D01*
X136444Y73918D01*
X136026Y74927D01*
X135361Y75794D01*
X134494Y76459D01*
X133485Y76877D01*
X132902Y76954D01*
D02*
G37*
G36*
X141232Y86114D02*
X138804D01*
X138840Y85839D01*
X139139Y85117D01*
X139615Y84497D01*
X140235Y84021D01*
X140957Y83722D01*
X141232Y83686D01*
Y86114D01*
D02*
G37*
G36*
X130405Y90527D02*
X130131Y90491D01*
X129408Y90191D01*
X128788Y89716D01*
X128313Y89095D01*
X128013Y88373D01*
X127977Y88098D01*
X130405D01*
Y90527D01*
D02*
G37*
G36*
X131405D02*
Y88098D01*
X133834D01*
X133798Y88373D01*
X133499Y89095D01*
X133023Y89716D01*
X132403Y90191D01*
X131680Y90491D01*
X131405Y90527D01*
D02*
G37*
G36*
X141232Y89543D02*
X140957Y89506D01*
X140235Y89207D01*
X139615Y88731D01*
X139139Y88111D01*
X138840Y87389D01*
X138804Y87114D01*
X141232D01*
Y89543D01*
D02*
G37*
G36*
X142232D02*
Y87114D01*
X144661D01*
X144624Y87389D01*
X144325Y88111D01*
X143849Y88731D01*
X143229Y89207D01*
X142507Y89506D01*
X142232Y89543D01*
D02*
G37*
G36*
X24106Y104421D02*
X21678D01*
X21714Y104146D01*
X22013Y103424D01*
X22489Y102804D01*
X23109Y102328D01*
X23831Y102029D01*
X24106Y101993D01*
Y104421D01*
D02*
G37*
G36*
X27535D02*
X25106D01*
Y101993D01*
X25381Y102029D01*
X26103Y102328D01*
X26724Y102804D01*
X27199Y103424D01*
X27498Y104146D01*
X27535Y104421D01*
D02*
G37*
G36*
X111705Y90920D02*
X111430Y90884D01*
X110708Y90585D01*
X110088Y90109D01*
X109612Y89489D01*
X109313Y88767D01*
X109276Y88492D01*
X111705D01*
Y90920D01*
D02*
G37*
G36*
X112705D02*
Y88492D01*
X115133D01*
X115097Y88767D01*
X114798Y89489D01*
X114322Y90109D01*
X113702Y90585D01*
X112980Y90884D01*
X112705Y90920D01*
D02*
G37*
G36*
X71366Y88558D02*
Y86130D01*
X73794D01*
X73758Y86405D01*
X73459Y87127D01*
X72983Y87747D01*
X72363Y88223D01*
X71641Y88522D01*
X71366Y88558D01*
D02*
G37*
G36*
X133834Y87098D02*
X131405D01*
Y84670D01*
X131680Y84706D01*
X132403Y85005D01*
X133023Y85481D01*
X133499Y86101D01*
X133798Y86823D01*
X133834Y87098D01*
D02*
G37*
G36*
X111705Y87492D02*
X109276D01*
X109313Y87217D01*
X109612Y86495D01*
X110088Y85875D01*
X110708Y85399D01*
X111430Y85100D01*
X111705Y85064D01*
Y87492D01*
D02*
G37*
G36*
X144661Y86114D02*
X142232D01*
Y83686D01*
X142507Y83722D01*
X143229Y84021D01*
X143849Y84497D01*
X144325Y85117D01*
X144624Y85839D01*
X144661Y86114D01*
D02*
G37*
G36*
X130405Y87098D02*
X127977D01*
X128013Y86823D01*
X128313Y86101D01*
X128788Y85481D01*
X129408Y85005D01*
X130131Y84706D01*
X130405Y84670D01*
Y87098D01*
D02*
G37*
G36*
X60539Y88558D02*
Y86130D01*
X62968D01*
X62932Y86405D01*
X62632Y87127D01*
X62156Y87747D01*
X61536Y88223D01*
X60814Y88522D01*
X60539Y88558D01*
D02*
G37*
G36*
X70366D02*
X70091Y88522D01*
X69369Y88223D01*
X68749Y87747D01*
X68273Y87127D01*
X67974Y86405D01*
X67938Y86130D01*
X70366D01*
Y88558D01*
D02*
G37*
G36*
X115133Y87492D02*
X112705D01*
Y85064D01*
X112980Y85100D01*
X113702Y85399D01*
X114322Y85875D01*
X114798Y86495D01*
X115097Y87217D01*
X115133Y87492D01*
D02*
G37*
G36*
X59539Y88558D02*
X59264Y88522D01*
X58542Y88223D01*
X57922Y87747D01*
X57446Y87127D01*
X57147Y86405D01*
X57111Y86130D01*
X59539D01*
Y88558D01*
D02*
G37*
%LPD*%
D18*
X0Y157480D02*
X236221D01*
Y0D02*
Y157480D01*
X0Y0D02*
X236221D01*
X0D02*
Y157480D01*
D19*
X218504Y52835D02*
D03*
Y72835D02*
D03*
Y62835D02*
D03*
Y42835D02*
D03*
X43661Y72835D02*
D03*
X63661D02*
D03*
X73661D02*
D03*
X53661D02*
D03*
X122402D02*
D03*
X142402D02*
D03*
X152402D02*
D03*
X132402D02*
D03*
X43661Y139764D02*
D03*
X63661D02*
D03*
X73661D02*
D03*
X53661D02*
D03*
X121063D02*
D03*
X141063D02*
D03*
X151063D02*
D03*
X131063D02*
D03*
D20*
X218504Y82835D02*
D03*
D21*
X226378Y147638D02*
D03*
X9843D02*
D03*
Y9843D02*
D03*
X226378D02*
D03*
D22*
X-393898Y226772D02*
D03*
D23*
X83661Y72835D02*
D03*
X162402D02*
D03*
X83661Y139764D02*
D03*
X161063D02*
D03*
D24*
X119095Y44291D02*
D03*
X109095D02*
D03*
X99094D02*
D03*
X89095D02*
D03*
D25*
X26575Y148622D02*
D03*
X24606Y104921D02*
D03*
X96457Y9843D02*
D03*
X138779Y47087D02*
D03*
X154528Y54134D02*
D03*
X130905Y87598D02*
D03*
X141732Y86614D02*
D03*
X112205Y87992D02*
D03*
X70866Y85630D02*
D03*
X60039D02*
D03*
X167323Y84646D02*
D03*
X173228Y113189D02*
D03*
X45276Y39370D02*
D03*
X182087Y30512D02*
D03*
X203740Y130905D02*
D03*
X180118Y123031D02*
D03*
X97441Y115157D02*
D03*
X95472Y147638D02*
D03*
X22638Y47244D02*
D03*
M02*
