G04 Layer_Color=65535*
%FSLAX25Y25*%
%MOIN*%
G70*
G01*
G75*
%ADD18C,0.00500*%
%ADD26C,0.01968*%
%ADD27C,0.00787*%
%ADD28C,0.01000*%
D18*
X0Y157480D02*
X236221D01*
Y0D02*
Y157480D01*
X0Y0D02*
X236221D01*
X0D02*
Y157480D01*
D26*
X210842Y105472D02*
X233842D01*
X113189Y126969D02*
Y156496D01*
X35433Y126969D02*
Y156496D01*
X92520Y126969D02*
Y156496D01*
X210842Y35000D02*
Y105315D01*
Y35000D02*
X233842D01*
X113189Y126969D02*
X170276D01*
X35433D02*
X92520D01*
X170276D02*
Y156496D01*
D27*
X223504Y37834D02*
Y87835D01*
X213504Y37834D02*
X223504D01*
X213504D02*
Y87835D01*
X223504D01*
X141929Y36220D02*
Y40551D01*
X135630Y36220D02*
Y40551D01*
X101181Y85433D02*
X105512D01*
X101181Y91732D02*
X105512D01*
X88661Y67835D02*
Y77835D01*
X38661D02*
X88661D01*
X38661Y67835D02*
Y77835D01*
Y67835D02*
X88661D01*
X167402D02*
Y77835D01*
X117401D02*
X167402D01*
X117401Y67835D02*
Y77835D01*
Y67835D02*
X167402D01*
X88661Y134764D02*
Y144764D01*
X38661D02*
X88661D01*
X38661Y134764D02*
Y144764D01*
Y134764D02*
X88661D01*
X166063D02*
Y144764D01*
X116062D02*
X166063D01*
X116062Y134764D02*
Y144764D01*
Y134764D02*
X166063D01*
X74803Y91339D02*
Y95669D01*
X68898Y91339D02*
Y95669D01*
X144685Y93307D02*
Y97638D01*
X138779Y93307D02*
Y97638D01*
X158661Y37598D02*
Y45079D01*
X150394Y37598D02*
Y45079D01*
D28*
X79669Y154667D02*
X74338D01*
Y150668D01*
X77003Y152001D01*
X78336D01*
X79669Y150668D01*
Y148002D01*
X78336Y146669D01*
X75670D01*
X74338Y148002D01*
X82335Y154667D02*
Y149335D01*
X85001Y146669D01*
X87666Y149335D01*
Y154667D01*
X157425Y155651D02*
X154759Y154318D01*
X152093Y151652D01*
Y148986D01*
X153426Y147653D01*
X156092D01*
X157425Y148986D01*
Y150319D01*
X156092Y151652D01*
X152093D01*
X160091Y155651D02*
Y150319D01*
X162757Y147653D01*
X165422Y150319D01*
Y155651D01*
X14542Y75578D02*
X13209Y76911D01*
X10544D01*
X9211Y75578D01*
Y70246D01*
X10544Y68913D01*
X13209D01*
X14542Y70246D01*
Y72912D01*
X11877D01*
X17208Y68913D02*
Y76911D01*
X22540Y68913D01*
Y76911D01*
X25206D02*
Y68913D01*
X29204D01*
X30537Y70246D01*
Y75578D01*
X29204Y76911D01*
X25206D01*
X230238Y55439D02*
Y60771D01*
X226239Y68768D02*
Y63437D01*
X230238D01*
X228905Y66102D01*
Y67435D01*
X230238Y68768D01*
X232903D01*
X234236Y67435D01*
Y64770D01*
X232903Y63437D01*
X226239Y71434D02*
X231570D01*
X234236Y74100D01*
X231570Y76766D01*
X226239D01*
X143067Y150820D02*
X148398D01*
X145732Y153486D02*
Y148154D01*
X64996Y150820D02*
X70327D01*
X67661Y153486D02*
Y148154D01*
X148545Y96518D02*
X147545Y95519D01*
Y93519D01*
X148545Y92520D01*
X152544D01*
X153543Y93519D01*
Y95519D01*
X152544Y96518D01*
X153543Y98518D02*
Y100517D01*
Y99517D01*
X147545D01*
X148545Y98518D01*
X119017Y95534D02*
X118018Y94534D01*
Y92535D01*
X119017Y91535D01*
X123016D01*
X124016Y92535D01*
Y94534D01*
X123016Y95534D01*
X124016Y101532D02*
Y97534D01*
X120017Y101532D01*
X119017D01*
X118018Y100532D01*
Y98533D01*
X119017Y97534D01*
X79647Y91991D02*
X78648Y90991D01*
Y88992D01*
X79647Y87992D01*
X83646D01*
X84646Y88992D01*
Y90991D01*
X83646Y91991D01*
X79647Y93990D02*
X78648Y94990D01*
Y96989D01*
X79647Y97989D01*
X80647D01*
X81647Y96989D01*
Y95990D01*
Y96989D01*
X82646Y97989D01*
X83646D01*
X84646Y96989D01*
Y94990D01*
X83646Y93990D01*
X50120Y94550D02*
X49120Y93550D01*
Y91551D01*
X50120Y90551D01*
X54118D01*
X55118Y91551D01*
Y93550D01*
X54118Y94550D01*
X55118Y99548D02*
X49120D01*
X52119Y96549D01*
Y100548D01*
X152621Y61101D02*
X151621Y62100D01*
X149622D01*
X148622Y61101D01*
Y57102D01*
X149622Y56102D01*
X151621D01*
X152621Y57102D01*
X158619Y62100D02*
X154620D01*
Y59101D01*
X156620Y60101D01*
X157619D01*
X158619Y59101D01*
Y57102D01*
X157619Y56102D01*
X155620D01*
X154620Y57102D01*
X100343Y100407D02*
X99344Y101406D01*
X97344D01*
X96345Y100407D01*
Y96408D01*
X97344Y95408D01*
X99344D01*
X100343Y96408D01*
X106341Y101406D02*
X104342Y100407D01*
X102343Y98407D01*
Y96408D01*
X103342Y95408D01*
X105342D01*
X106341Y96408D01*
Y97408D01*
X105342Y98407D01*
X102343D01*
X138841Y52242D02*
X137842Y53242D01*
X135842D01*
X134843Y52242D01*
Y48244D01*
X135842Y47244D01*
X137842D01*
X138841Y48244D01*
X140841Y53242D02*
X144839D01*
Y52242D01*
X140841Y48244D01*
Y47244D01*
X43260Y154173D02*
X41260D01*
X42260D01*
Y149174D01*
X41260Y148175D01*
X40261D01*
X39261Y149174D01*
X45259Y148175D02*
X47258D01*
X46259D01*
Y154173D01*
X45259Y153173D01*
X120694Y154135D02*
X118694D01*
X119694D01*
Y149136D01*
X118694Y148137D01*
X117695D01*
X116695Y149136D01*
X126692Y148137D02*
X122693D01*
X126692Y152135D01*
Y153135D01*
X125692Y154135D01*
X123693D01*
X122693Y153135D01*
X43286Y87238D02*
X41287D01*
X42287D01*
Y82239D01*
X41287Y81240D01*
X40288D01*
X39288Y82239D01*
X45286Y86238D02*
X46286Y87238D01*
X48285D01*
X49285Y86238D01*
Y85238D01*
X48285Y84239D01*
X47285D01*
X48285D01*
X49285Y83239D01*
Y82239D01*
X48285Y81240D01*
X46286D01*
X45286Y82239D01*
X122000Y87176D02*
X120001D01*
X121000D01*
Y82178D01*
X120001Y81178D01*
X119001D01*
X118001Y82178D01*
X126998Y81178D02*
Y87176D01*
X123999Y84177D01*
X127998D01*
X216443Y95534D02*
Y93535D01*
Y94534D01*
X221441D01*
X222441Y93535D01*
Y92535D01*
X221441Y91535D01*
X216443Y101532D02*
Y97534D01*
X219442D01*
X218442Y99533D01*
Y100532D01*
X219442Y101532D01*
X221441D01*
X222441Y100532D01*
Y98533D01*
X221441Y97534D01*
X104331Y81786D02*
Y75787D01*
X108329D01*
X110329D02*
X112328D01*
X111328D01*
Y81786D01*
X110329Y80786D01*
X121063Y58163D02*
Y53165D01*
X122063Y52165D01*
X124062D01*
X125062Y53165D01*
Y58163D01*
X127061Y52165D02*
X129060D01*
X128061D01*
Y58163D01*
X127061Y57164D01*
M02*
