M48
;Layer_Color=9474304
;FILE_FORMAT=2:5
INCH,LZ
;TYPE=PLATED
T1F00S00C0.01968
T2F00S00C0.03937
T3F00S00C0.04331
T4F00S00C0.12205
T5F00S00C0.17717
%
T01
X0096457Y0009843
X0138779Y0047087
X0154528Y0054134
X0182087Y0030512
X0045276Y003937
X0022638Y0047244
X0024606Y0104921
X0026575Y0148622
X0060039Y008563
X0070866
X0112205Y0087992
X0130905Y0087598
X0141732Y0086614
X0167323Y0084646
X0173228Y0113189
X0180118Y0123031
X020374Y0130905
X0097441Y0115157
X0095472Y0147638
T02
X0089095Y0044291
X0099094
X0109095
X0119095
T03
X0218504Y0042835
Y0052835
X0073661Y0072835
X0063661
X0053661
X0043661
Y0139764
X0053661
X0063661
X0073661
X0083661
X0121063
X0131063
X0141063
X0151063
X0161063
X0162402Y0072835
X0152402
X0142402
X0132402
X0122402
X0083661
X0218504Y0072835
Y0082835
Y0062835
T04
X0226378Y0009843
X0009843
Y0147638
X0226378
T05
X-0393898Y0226772
M30
