M48
;Layer_Color=9474304
;FILE_FORMAT=2:5
INCH,LZ
;TYPE=PLATED
T1F00S00C0.01968
T2F00S00C0.02500
T3F00S00C0.02800
T4F00S00C0.04331
T5F00S00C0.12205
T6F00S00C0.17717
%
T01
X0078378Y0014764
X0088378Y001378
X0108268Y0019685
X0098425Y0033307
X0142559Y0009843
X0162402Y0020894
X0177165Y001378
X019685Y0023622
X0204724Y0020669
X0069378Y0017717
X0037402Y0009843
X003248Y0045315
X0037402Y0077756
X005365Y0077346
X0064961Y0068898
X005315Y0104815
X0018701Y0117126
X0019685Y0133858
X013189Y0129921
X0166339Y013189
X0169Y0111221
X0162402Y0094827
X01525Y0104358
X01205Y0097815
X009941Y0094488
X0078331Y0073319
X0129575Y0055118
X0216535Y0059055
X0223425Y0106299
X022441Y0116142
T02
X0136496Y007185
X0146496Y008185
X0156496Y007185
X0186024Y0084646
X0206024
X0196024Y0074646
T03
X0176181Y003187
X0073819Y0107283
X0051181Y009252
X0080708Y0090551
X0086614Y0086614
X0094488Y0111221
X0106299Y0126969
X0145669
X0122575Y0055413
X0129921Y0044291
X0103347Y0055413
X0174213Y0045315
T04
X0226378Y0033307
X0014842Y0035315
Y0045315
X0015748Y008563
Y009563
X007185Y0130905
X008185
X009185
X01915Y0130815
X02015
X0226378Y0043307
T05
X0226378Y0009843
X0009843
Y0127953
X0226378
T06
X-0393898Y0226772
M30
